<svg width="30" height="30" viewBox="0 0 30 30" fill="none" xmlns="http://www.w3.org/2000/svg">
<path fill-rule="evenodd" clip-rule="evenodd" d="M5.875 26.5C5.875 26.5 4 26.5 4 24.625C4 22.75 5.875 17.125 15.25 17.125C24.625 17.125 26.5 22.75 26.5 24.625C26.5 26.5 24.625 26.5 24.625 26.5H5.875ZM15.25 15.25C16.7418 15.25 18.1726 14.6574 19.2275 13.6025C20.2824 12.5476 20.875 11.1168 20.875 9.625C20.875 8.13316 20.2824 6.70242 19.2275 5.64752C18.1726 4.59263 16.7418 4 15.25 4C13.7582 4 12.3274 4.59263 11.2725 5.64752C10.2176 6.70242 9.625 8.13316 9.625 9.625C9.625 11.1168 10.2176 12.5476 11.2725 13.6025C12.3274 14.6574 13.7582 15.25 15.25 15.25Z" fill="#5A5A5A"/>
</svg>
