<svg width="427" height="427" viewBox="0 0 427 427" fill="none" xmlns="http://www.w3.org/2000/svg">
<path d="M78.32 337.97C54.0819 337.97 34.433 325.651 34.433 310.455C34.433 295.258 54.0819 282.939 78.32 282.939C102.558 282.939 122.207 295.258 122.207 310.455C122.207 325.651 102.558 337.97 78.32 337.97Z" fill="#E6E6E6"/>
<path d="M368.074 230.58C368.6 224.248 370.062 218.029 372.413 212.125C376.281 202.586 383.685 193.004 392.217 191.211C400.748 189.417 404.352 195.139 402.559 200.776C401.004 205.626 394.668 209.657 389.851 213.893C385.035 218.129 376.051 228.411 373.557 238.258L368.74 238.787L368.074 230.58Z" fill="#8E82F0"/>
<g opacity="0.15">
<path opacity="0.15" d="M368.074 230.58C368.6 224.248 370.062 218.029 372.413 212.125C376.281 202.586 383.685 193.004 392.217 191.211C400.748 189.417 404.352 195.139 402.559 200.776C401.004 205.626 394.668 209.657 389.851 213.893C385.035 218.129 376.051 228.411 373.557 238.258L368.74 238.787L368.074 230.58Z" fill="black"/>
</g>
<path d="M371.379 235.004C371.516 235.004 371.649 234.95 371.747 234.855C371.846 234.759 371.904 234.629 371.908 234.491C372.805 209.623 397.11 195.72 397.375 195.566C397.491 195.493 397.574 195.378 397.608 195.245C397.642 195.112 397.624 194.971 397.557 194.851C397.49 194.731 397.381 194.641 397.25 194.599C397.119 194.557 396.977 194.567 396.854 194.627C396.598 194.772 371.755 208.974 370.841 234.432C370.836 234.573 370.887 234.71 370.983 234.814C371.079 234.918 371.212 234.98 371.353 234.987L371.379 235.004Z" fill="white"/>
<path d="M364.239 274.356C364.239 274.356 369.21 277.499 376.981 276.158C379.494 275.824 381.836 274.699 383.668 272.947C385.675 270.88 385.991 268.797 386.554 266.03C386.71 264.873 387.105 263.762 387.716 262.767C389.424 260.479 392.703 260.521 395.47 259.923C399.399 259.069 403.011 256.251 404.147 252.4C405.283 248.548 403.438 243.86 399.715 242.34L404.283 239.41C405.704 238.577 407.017 237.573 408.195 236.421C409.37 235.247 410.072 233.682 410.167 232.023C410.167 229.598 408.366 227.429 406.145 226.438C403.871 225.56 401.403 225.306 398.997 225.704C396.561 226.002 394.165 226.575 391.858 227.412C391.229 227.696 390.549 227.849 389.859 227.864C388.962 227.705 388.12 227.317 387.417 226.737C382.19 223.321 373.676 223.552 370.875 230.059C370.465 231.016 370.217 232.04 369.773 232.98C368.151 236.49 363.582 235.431 360.627 237.07C359.7 237.658 358.913 238.442 358.322 239.367C357.732 240.293 357.353 241.337 357.211 242.425C356.622 245.892 357.587 249.846 358.227 253.271C358.868 256.695 359.679 259.881 360.61 263.126C361.37 265.808 362.207 268.463 363.095 271.102C363.283 271.649 363.693 274.014 364.239 274.356Z" fill="#8E82F0"/>
<path d="M361.114 266.346C363.718 259.179 367.996 252.738 373.591 247.558C373.649 247.433 373.753 247.335 373.881 247.284C375.493 245.773 377.183 244.348 378.945 243.014C379.611 238.403 379.021 233.697 377.237 229.393C377.177 229.265 377.171 229.119 377.219 228.986C377.267 228.853 377.366 228.744 377.493 228.684C377.621 228.624 377.768 228.617 377.901 228.666C378.034 228.714 378.142 228.812 378.202 228.94C379.971 233.09 380.65 237.623 380.175 242.109C387.333 236.947 395.274 232.968 403.694 230.324C403.831 230.29 403.976 230.309 404.099 230.379C404.221 230.449 404.312 230.564 404.352 230.7C404.371 230.768 404.377 230.839 404.368 230.909C404.36 230.979 404.337 231.046 404.302 231.108C404.267 231.169 404.22 231.222 404.164 231.265C404.108 231.308 404.044 231.339 403.976 231.357C403.754 231.417 388.604 235.721 376.067 246.729C383.753 245.388 392.917 249.095 393.335 249.291C393.453 249.335 393.551 249.42 393.612 249.53C393.673 249.64 393.693 249.768 393.668 249.891C393.644 250.014 393.576 250.124 393.477 250.202C393.379 250.28 393.256 250.32 393.13 250.316C393.062 250.328 392.993 250.328 392.925 250.316C392.823 250.265 382.054 245.909 374.445 248.275C368.918 253.343 364.684 259.659 362.096 266.696C362.06 266.801 361.992 266.892 361.902 266.956C361.811 267.021 361.703 267.055 361.592 267.054H361.413C361.345 267.029 361.284 266.99 361.232 266.941C361.18 266.891 361.139 266.831 361.111 266.764C361.083 266.698 361.068 266.627 361.069 266.555C361.07 266.483 361.085 266.412 361.114 266.346Z" fill="white"/>
<path d="M364.069 273.613C363.978 274.863 363.593 276.073 362.946 277.146C362.299 278.219 361.408 279.124 360.345 279.787L256.2 339.892C255.049 340.477 253.776 340.782 252.485 340.782C251.194 340.782 249.921 340.477 248.77 339.892L106.298 257.635C105.177 257.04 104.24 256.151 103.586 255.064C102.933 253.977 102.587 252.733 102.587 251.464C102.587 250.196 102.933 248.952 103.586 247.865C104.24 246.778 105.177 245.889 106.298 245.294L210.426 185.173C211.578 184.592 212.85 184.289 214.141 184.289C215.431 184.289 216.703 184.592 217.856 185.173L360.345 267.447C361.408 268.109 362.298 269.013 362.945 270.084C363.592 271.156 363.977 272.365 364.069 273.613Z" fill="#37474F"/>
<path d="M252.502 332.753V340.789C253.793 340.825 255.072 340.531 256.217 339.935L360.388 279.787C361.477 279.214 362.394 278.362 363.046 277.318C363.698 276.274 364.061 275.076 364.1 273.846C364.138 272.616 363.849 271.398 363.263 270.316C362.677 269.234 361.815 268.327 360.764 267.686C362.429 268.882 362.301 270.633 360.388 271.734L256.2 331.856C255.064 332.464 253.791 332.772 252.502 332.753Z" fill="#263238"/>
<path d="M367.553 267.575C368.588 266.872 369.442 265.934 370.047 264.84C370.652 263.745 370.992 262.523 371.038 261.273V137.007C370.968 135.719 370.595 134.465 369.949 133.348C369.304 132.23 368.404 131.281 367.323 130.577L224.85 48.3193C223.744 47.7322 222.515 47.414 221.262 47.3902C220.01 47.3665 218.77 47.638 217.642 48.1827C216.608 48.8863 215.753 49.8235 215.148 50.9183C214.543 52.0131 214.204 53.235 214.158 54.4852V178.751C214.228 180.039 214.601 181.293 215.246 182.41C215.892 183.528 216.792 184.477 217.873 185.181L360.346 267.447C361.453 268.031 362.682 268.347 363.934 268.369C365.186 268.391 366.426 268.119 367.553 267.575Z" fill="#455A64"/>
<path d="M360.79 267.669C361.856 268.147 363.014 268.387 364.182 268.37C365.35 268.354 366.501 268.083 367.553 267.575C368.588 266.872 369.442 265.934 370.047 264.84C370.652 263.745 370.992 262.523 371.038 261.273V137.007C370.997 135.715 370.62 134.455 369.944 133.352L362.976 137.366C363.645 138.471 364.022 139.729 364.069 141.021V265.295C364.069 267.498 362.634 268.48 360.79 267.669Z" fill="#263238"/>
<path d="M364.069 141.038V265.295C364.069 267.669 362.361 268.626 360.345 267.447L217.873 185.181C216.791 184.477 215.892 183.528 215.246 182.41C214.601 181.293 214.228 180.039 214.158 178.751V54.4852C214.158 52.1196 215.823 51.1546 217.873 52.3417L360.345 134.599C361.429 135.303 362.331 136.254 362.979 137.372C363.626 138.491 363.999 139.747 364.069 141.038Z" fill="#37474F"/>
<path d="M360.346 271.734L256.2 331.856C255.048 332.437 253.776 332.74 252.485 332.74C251.195 332.74 249.923 332.437 248.77 331.856L106.298 249.599C104.239 248.412 104.239 246.49 106.298 245.329L210.426 185.207C211.578 184.626 212.85 184.323 214.141 184.323C215.431 184.323 216.704 184.626 217.856 185.207L360.346 267.447C362.404 268.626 362.404 270.547 360.346 271.734Z" fill="#455A64"/>
<path d="M358.347 141.499L220.982 62.2053C219.752 61.4965 218.753 62.0772 218.753 63.4949V171.099C218.795 171.872 219.019 172.624 219.407 173.295C219.794 173.965 220.333 174.535 220.982 174.959L358.347 254.21C359.586 254.919 360.585 254.347 360.585 252.921V145.317C360.537 144.549 360.31 143.804 359.921 143.141C359.533 142.478 358.994 141.916 358.347 141.499Z" fill="#FAFAFA"/>
<path d="M348.262 268.515L216.011 192.15C215.436 191.856 214.8 191.702 214.154 191.702C213.508 191.702 212.871 191.856 212.296 192.15L205.533 196.053C205.311 196.131 205.118 196.276 204.982 196.468C204.846 196.66 204.773 196.889 204.773 197.125C204.773 197.36 204.846 197.589 204.982 197.781C205.118 197.973 205.311 198.118 205.533 198.196L337.8 274.552C338.375 274.847 339.012 275.001 339.658 275.001C340.304 275.001 340.94 274.847 341.515 274.552L348.262 270.658C348.484 270.58 348.676 270.435 348.812 270.243C348.948 270.051 349.021 269.822 349.021 269.586C349.021 269.351 348.948 269.122 348.812 268.93C348.676 268.738 348.484 268.593 348.262 268.515Z" fill="#37474F"/>
<path d="M330.831 278.583L198.581 202.227C198.005 201.937 197.369 201.785 196.723 201.785C196.078 201.785 195.442 201.937 194.866 202.227L153.259 226.25C153.037 226.328 152.845 226.473 152.709 226.665C152.572 226.857 152.499 227.087 152.499 227.322C152.499 227.557 152.572 227.787 152.709 227.979C152.845 228.171 153.037 228.316 153.259 228.394L285.356 304.639C285.933 304.931 286.571 305.084 287.218 305.084C287.864 305.084 288.502 304.931 289.079 304.639L330.823 280.727C331.049 280.654 331.247 280.511 331.387 280.319C331.528 280.127 331.604 279.896 331.605 279.658C331.606 279.42 331.532 279.188 331.393 278.995C331.254 278.802 331.057 278.658 330.831 278.583Z" fill="#263238"/>
<path d="M212.279 236.558L208.145 234.175C207.966 234.073 207.974 233.902 208.145 233.791L212.936 231.024C213.038 230.972 213.151 230.944 213.265 230.944C213.379 230.944 213.492 230.972 213.594 231.024L217.736 233.415C217.915 233.509 217.906 233.68 217.736 233.791L212.953 236.558C212.849 236.612 212.733 236.64 212.616 236.64C212.499 236.64 212.383 236.612 212.279 236.558ZM220.451 227.062L224.602 229.47C224.781 229.572 224.764 229.743 224.602 229.854L219.819 232.613C219.716 232.665 219.602 232.692 219.486 232.692C219.371 232.692 219.256 232.665 219.153 232.613L215.011 230.221C214.841 230.119 214.849 229.948 215.011 229.837L219.802 227.079C219.903 227.028 220.014 227.001 220.127 227.001C220.24 227.001 220.351 227.028 220.451 227.079V227.062ZM233.834 234.85L240.836 238.889C241.016 238.992 241.007 239.163 240.836 239.274L236.054 242.041C235.95 242.091 235.836 242.118 235.721 242.118C235.605 242.118 235.492 242.091 235.388 242.041L228.385 238.001C228.206 237.899 228.223 237.728 228.385 237.617L233.142 234.85C233.248 234.793 233.367 234.764 233.488 234.764C233.608 234.764 233.727 234.793 233.834 234.85ZM226.506 230.58L230.648 232.971C230.819 233.074 230.81 233.245 230.648 233.356L225.857 236.122C225.755 236.173 225.642 236.199 225.528 236.199C225.414 236.199 225.302 236.173 225.2 236.122L221.058 233.731C220.887 233.629 220.895 233.458 221.058 233.356L225.849 230.58C225.95 230.528 226.063 230.5 226.177 230.5C226.292 230.5 226.405 230.528 226.506 230.58ZM242.732 239.974L246.874 242.357C247.045 242.459 247.036 242.63 246.874 242.741L242.083 245.508C241.982 245.56 241.869 245.588 241.754 245.588C241.64 245.588 241.527 245.56 241.426 245.508L237.284 243.117C237.113 243.023 237.121 242.852 237.284 242.741L242.092 239.974C242.193 239.922 242.306 239.894 242.421 239.894C242.535 239.894 242.648 239.922 242.749 239.974H242.732ZM248.787 243.467L252.92 245.858C253.1 245.952 253.091 246.123 252.92 246.234L248.13 249.001C248.027 249.051 247.915 249.078 247.801 249.078C247.687 249.078 247.574 249.051 247.472 249.001L243.33 246.61C243.151 246.507 243.168 246.336 243.33 246.225L248.112 243.458C248.218 243.4 248.337 243.369 248.457 243.368C248.578 243.366 248.697 243.394 248.804 243.45L248.787 243.467ZM229.948 254.706L225.806 252.314C225.635 252.212 225.644 252.041 225.806 251.93L230.597 249.172C230.699 249.119 230.811 249.092 230.926 249.092C231.04 249.092 231.153 249.119 231.254 249.172L235.396 251.563C235.576 251.665 235.559 251.836 235.396 251.947L230.614 254.706C230.512 254.753 230.4 254.776 230.287 254.773C230.175 254.77 230.065 254.741 229.965 254.688L229.948 254.706ZM236.003 258.198L231.861 255.807C231.681 255.705 231.699 255.534 231.861 255.423L236.643 252.664C236.746 252.612 236.861 252.585 236.976 252.585C237.092 252.585 237.206 252.612 237.309 252.664L241.451 255.056C241.622 255.158 241.613 255.329 241.451 255.44L236.66 258.207C236.558 258.251 236.448 258.271 236.337 258.267C236.226 258.262 236.118 258.233 236.02 258.181L236.003 258.198ZM242.058 261.691L237.916 259.3C237.736 259.198 237.745 259.027 237.916 258.924L242.698 256.157C242.8 256.105 242.912 256.078 243.027 256.078C243.141 256.078 243.254 256.105 243.356 256.157L247.498 258.549C247.677 258.651 247.668 258.822 247.498 258.933L242.707 261.7C242.606 261.742 242.497 261.762 242.388 261.758C242.279 261.753 242.172 261.725 242.075 261.674L242.058 261.691ZM248.104 265.184L243.962 262.793C243.791 262.699 243.8 262.528 243.962 262.417L248.796 259.616C248.897 259.564 249.01 259.536 249.124 259.536C249.239 259.536 249.352 259.564 249.453 259.616L253.595 261.999C253.774 262.101 253.757 262.272 253.595 262.383L248.813 265.15C248.708 265.209 248.59 265.242 248.469 265.245C248.348 265.248 248.229 265.221 248.121 265.167L248.104 265.184ZM218.316 240.094L214.174 237.702C214.004 237.6 214.012 237.429 214.174 237.318L218.965 234.551C219.068 234.501 219.18 234.474 219.294 234.474C219.408 234.474 219.521 234.501 219.623 234.551L223.765 236.942C223.936 237.045 223.927 237.216 223.765 237.318L218.974 240.085C218.873 240.132 218.764 240.155 218.653 240.153C218.542 240.152 218.433 240.126 218.333 240.077L218.316 240.094ZM223.902 251.196L214.661 245.858C214.482 245.756 214.499 245.585 214.661 245.482L226.31 238.77C226.413 238.717 226.527 238.69 226.643 238.69C226.759 238.69 226.873 238.717 226.976 238.77L231.75 241.528C231.929 241.631 231.921 241.802 231.75 241.913L225.601 245.465C225.405 245.576 225.396 245.747 225.601 245.841L229.418 248.053C229.598 248.155 229.589 248.326 229.418 248.437L224.627 251.196C224.519 251.257 224.397 251.289 224.273 251.289C224.149 251.289 224.027 251.257 223.919 251.196H223.902ZM254.833 246.926L258.975 249.317C259.155 249.419 259.138 249.59 258.975 249.693L254.193 252.46C254.09 252.512 253.976 252.539 253.86 252.539C253.744 252.539 253.63 252.512 253.527 252.46L249.393 250.068C249.214 249.966 249.223 249.795 249.393 249.684L254.184 246.917C254.29 246.869 254.405 246.847 254.52 246.851C254.636 246.855 254.749 246.887 254.851 246.943L254.833 246.926ZM260.888 250.418L265.03 252.81C265.201 252.912 265.192 253.083 265.03 253.194L260.239 255.952C260.138 256.005 260.025 256.032 259.91 256.032C259.796 256.032 259.683 256.005 259.582 255.952L255.44 253.561C255.269 253.459 255.278 253.288 255.44 253.177L260.231 250.418C260.336 250.366 260.453 250.34 260.57 250.343C260.688 250.346 260.803 250.378 260.905 250.436L260.888 250.418ZM291.128 289.6C291.026 289.65 290.914 289.677 290.8 289.677C290.686 289.677 290.573 289.65 290.471 289.6L286.329 287.209C286.15 287.106 286.158 286.936 286.329 286.833L291.111 284.066C291.215 284.015 291.329 283.989 291.444 283.989C291.56 283.989 291.674 284.015 291.777 284.066L295.911 286.457C296.09 286.56 296.082 286.731 295.911 286.842L291.128 289.6ZM309.319 278.404L313.461 280.795C313.631 280.898 313.623 281.069 313.461 281.18L308.67 283.938C308.568 283.99 308.455 284.018 308.341 284.018C308.226 284.018 308.114 283.99 308.012 283.938L303.87 281.547C303.699 281.444 303.708 281.273 303.87 281.162L308.661 278.404C308.763 278.352 308.875 278.324 308.99 278.324C309.104 278.324 309.217 278.352 309.319 278.404ZM299.574 286.602C299.472 286.653 299.36 286.679 299.246 286.679C299.132 286.679 299.019 286.653 298.917 286.602L294.775 284.211C294.604 284.109 294.613 283.938 294.775 283.827L299.566 281.06C299.668 281.008 299.78 280.98 299.895 280.98C300.009 280.98 300.122 281.008 300.224 281.06L304.365 283.451C304.536 283.554 304.528 283.716 304.365 283.827L299.574 286.602ZM280.462 291.726L276.32 289.335C276.141 289.241 276.158 289.07 276.32 288.959L281.102 286.193C281.206 286.14 281.32 286.113 281.436 286.113C281.551 286.113 281.665 286.14 281.769 286.193L285.91 288.575C286.081 288.678 286.073 288.848 285.91 288.959L281.12 291.726C281.019 291.78 280.906 291.809 280.792 291.811C280.677 291.812 280.564 291.786 280.462 291.735V291.726ZM287.174 295.211C287.071 295.261 286.957 295.288 286.841 295.288C286.726 295.288 286.612 295.261 286.508 295.211L282.375 292.82C282.196 292.717 282.204 292.546 282.375 292.435L287.166 289.668C287.268 289.616 287.38 289.589 287.495 289.589C287.609 289.589 287.722 289.616 287.823 289.668L291.982 292.068C292.162 292.162 292.153 292.333 291.982 292.444L287.174 295.211ZM303.264 274.886L307.406 277.277C307.585 277.379 307.576 277.55 307.406 277.653L302.623 280.419C302.522 280.472 302.409 280.499 302.294 280.499C302.18 280.499 302.067 280.472 301.966 280.419L297.824 278.028C297.644 277.926 297.653 277.755 297.824 277.644L302.615 274.877C302.717 274.831 302.829 274.808 302.941 274.811C303.054 274.814 303.164 274.842 303.264 274.894V274.886ZM273.007 257.413L277.148 259.804C277.328 259.906 277.311 260.077 277.148 260.188L272.366 262.947C272.263 262.999 272.149 263.026 272.033 263.026C271.917 263.026 271.803 262.999 271.7 262.947L267.558 260.555C267.387 260.453 267.396 260.282 267.558 260.171L272.349 257.413C272.451 257.362 272.564 257.336 272.679 257.337C272.793 257.339 272.906 257.368 273.007 257.421V257.413ZM297.192 271.401L301.334 273.792C301.505 273.895 301.496 274.066 301.334 274.168L296.543 276.935C296.441 276.988 296.328 277.015 296.214 277.015C296.1 277.015 295.987 276.988 295.885 276.935L291.743 274.544C291.564 274.441 291.581 274.271 291.743 274.16L296.526 271.393C296.63 271.343 296.744 271.319 296.86 271.32C296.975 271.322 297.089 271.349 297.192 271.401ZM266.935 253.928L271.068 256.32C271.247 256.422 271.239 256.593 271.068 256.704L266.277 259.462C266.175 259.515 266.063 259.542 265.948 259.542C265.834 259.542 265.721 259.515 265.619 259.462L261.478 257.071C261.298 256.969 261.307 256.798 261.478 256.687L266.26 253.928C266.367 253.87 266.488 253.84 266.61 253.84C266.732 253.84 266.853 253.87 266.96 253.928H266.935ZM279.036 260.914L283.178 263.305C283.348 263.408 283.34 263.579 283.178 263.69L278.404 266.448C278.302 266.499 278.189 266.525 278.075 266.525C277.961 266.525 277.848 266.499 277.746 266.448L273.604 264.057C273.425 263.954 273.442 263.784 273.604 263.681L278.404 260.931C278.504 260.876 278.616 260.846 278.731 260.843C278.845 260.84 278.958 260.864 279.061 260.914H279.036ZM285.082 264.407L289.224 266.798C289.403 266.901 289.395 267.071 289.224 267.182L284.433 269.949C284.331 270.002 284.219 270.029 284.104 270.029C283.99 270.029 283.877 270.002 283.775 269.949L279.634 267.558C279.454 267.456 279.463 267.285 279.634 267.182L284.425 264.416C284.529 264.36 284.646 264.33 284.765 264.328C284.884 264.327 285.001 264.354 285.108 264.407H285.082ZM291.137 267.908L295.279 270.3C295.458 270.394 295.441 270.564 295.279 270.675L290.496 273.442C290.393 273.495 290.279 273.522 290.163 273.522C290.048 273.522 289.934 273.495 289.83 273.442L285.688 271.06C285.518 270.957 285.526 270.786 285.688 270.675L290.479 267.908C290.584 267.852 290.702 267.822 290.821 267.822C290.94 267.822 291.058 267.852 291.163 267.908H291.137ZM260.205 272.178L256.063 269.787C255.884 269.685 255.892 269.514 256.063 269.403L260.854 266.636C260.956 266.585 261.069 266.559 261.183 266.559C261.297 266.559 261.409 266.585 261.512 266.636L265.654 269.027C265.833 269.13 265.824 269.3 265.654 269.403L260.863 272.17C260.764 272.217 260.655 272.24 260.546 272.239C260.436 272.237 260.328 272.211 260.231 272.161L260.205 272.178ZM207.052 219.376L211.194 221.767C211.365 221.869 211.356 222.04 211.194 222.143L206.403 224.909C206.301 224.962 206.189 224.989 206.074 224.989C205.96 224.989 205.847 224.962 205.746 224.909L201.604 222.518C201.424 222.416 201.441 222.245 201.604 222.134L206.386 219.367C206.492 219.311 206.611 219.281 206.731 219.279C206.851 219.278 206.97 219.305 207.078 219.358L207.052 219.376ZM214.379 223.603L218.513 225.994C218.692 226.097 218.684 226.267 218.513 226.378L213.722 229.137C213.62 229.189 213.507 229.217 213.393 229.217C213.279 229.217 213.166 229.189 213.064 229.137L208.922 226.746C208.743 226.643 208.752 226.472 208.922 226.361L213.705 223.603C213.811 223.542 213.93 223.508 214.053 223.505C214.175 223.502 214.296 223.53 214.405 223.586L214.379 223.603ZM200.997 215.917L205.139 218.308C205.318 218.402 205.301 218.573 205.139 218.684L200.357 221.451C200.253 221.501 200.139 221.528 200.024 221.528C199.908 221.528 199.794 221.501 199.691 221.451L195.549 219.06C195.378 218.957 195.386 218.786 195.549 218.675L200.34 215.908C200.441 215.845 200.557 215.808 200.676 215.8C200.795 215.793 200.914 215.815 201.023 215.866L200.997 215.917ZM232.322 248.215L228.18 245.824C228.009 245.721 228.018 245.551 228.18 245.44L232.971 242.681C233.073 242.629 233.185 242.601 233.3 242.601C233.414 242.601 233.527 242.629 233.629 242.681L237.771 245.072C237.941 245.175 237.933 245.346 237.771 245.457L232.98 248.215C232.877 248.256 232.767 248.272 232.658 248.263C232.548 248.254 232.442 248.22 232.348 248.164L232.322 248.215ZM194.285 212.433C194.388 212.38 194.502 212.353 194.618 212.353C194.734 212.353 194.848 212.38 194.951 212.433L199.084 214.815C199.264 214.918 199.255 215.088 199.084 215.199L194.293 217.966C194.192 218.019 194.079 218.046 193.965 218.046C193.85 218.046 193.737 218.019 193.636 217.966L189.494 215.575C189.315 215.481 189.323 215.311 189.494 215.199L194.285 212.433ZM254.15 268.711L250.008 266.328C249.829 266.226 249.846 266.055 250.008 265.944L254.791 263.177C254.894 263.125 255.008 263.097 255.124 263.097C255.24 263.097 255.354 263.125 255.457 263.177L259.616 265.509C259.787 265.603 259.778 265.773 259.616 265.884L254.825 268.651C254.725 268.704 254.614 268.732 254.501 268.733C254.389 268.735 254.277 268.71 254.176 268.66L254.15 268.711ZM179.938 225.866L175.796 223.475C175.616 223.372 175.633 223.201 175.796 223.099L180.578 220.332C180.681 220.28 180.795 220.252 180.911 220.252C181.027 220.252 181.141 220.28 181.244 220.332L185.378 222.723C185.557 222.826 185.548 222.997 185.378 223.108L180.587 225.874C180.485 225.911 180.376 225.924 180.268 225.913C180.161 225.903 180.057 225.869 179.963 225.815L179.938 225.866ZM192.824 225.413L188.683 223.022C188.512 222.92 188.52 222.749 188.683 222.638L193.474 219.879C193.575 219.827 193.688 219.8 193.802 219.8C193.917 219.8 194.029 219.827 194.131 219.879L198.273 222.271C198.452 222.373 198.435 222.544 198.273 222.655L193.491 225.413C193.387 225.454 193.275 225.47 193.164 225.461C193.053 225.453 192.946 225.419 192.85 225.362L192.824 225.413ZM187.444 216.387C187.547 216.334 187.662 216.307 187.777 216.307C187.893 216.307 188.007 216.334 188.11 216.387L192.244 218.778C192.423 218.88 192.415 219.051 192.244 219.162L187.453 221.92C187.351 221.973 187.238 222 187.124 222C187.01 222 186.897 221.973 186.795 221.92L182.653 219.529C182.474 219.427 182.483 219.256 182.653 219.145L187.444 216.387ZM186.172 215.644L174.54 222.365C174.438 222.415 174.326 222.441 174.212 222.441C174.098 222.441 173.985 222.415 173.883 222.365L169.741 219.973C169.57 219.871 169.579 219.7 169.741 219.598L181.372 212.877C181.475 212.826 181.587 212.8 181.701 212.8C181.815 212.8 181.928 212.826 182.03 212.877L186.172 215.268C186.394 215.319 186.385 215.49 186.172 215.592V215.644ZM200.212 223.33L204.353 225.721C204.524 225.823 204.516 225.994 204.353 226.105L199.563 228.863C199.461 228.916 199.348 228.943 199.234 228.943C199.119 228.943 199.007 228.916 198.905 228.863L194.763 226.472C194.584 226.37 194.601 226.199 194.763 226.088L199.545 223.33C199.65 223.269 199.767 223.235 199.888 223.23C200.009 223.226 200.129 223.251 200.237 223.304L200.212 223.33ZM245.781 249.599L249.923 251.99C250.102 252.092 250.085 252.263 249.923 252.374L245.141 255.141C245.037 255.194 244.923 255.221 244.807 255.221C244.692 255.221 244.578 255.194 244.474 255.141L240.341 252.75C240.162 252.647 240.17 252.485 240.341 252.374L245.098 249.616C245.202 249.558 245.318 249.527 245.437 249.524C245.556 249.521 245.674 249.547 245.781 249.599ZM186.676 229.299C186.572 229.352 186.458 229.379 186.343 229.379C186.227 229.379 186.113 229.352 186.01 229.299L181.868 226.908C181.697 226.814 181.705 226.643 181.868 226.532L186.684 223.748C186.786 223.698 186.899 223.671 187.013 223.671C187.127 223.671 187.24 223.698 187.342 223.748L191.484 226.139C191.663 226.242 191.646 226.413 191.484 226.524L186.676 229.299ZM239.735 246.106L243.868 248.497C244.047 248.599 244.039 248.77 243.868 248.881L239.077 251.648C238.975 251.699 238.862 251.725 238.748 251.725C238.634 251.725 238.522 251.699 238.42 251.648L234.278 249.257C234.098 249.155 234.107 248.984 234.278 248.881L239.06 246.114C239.164 246.059 239.279 246.029 239.396 246.028C239.514 246.026 239.63 246.053 239.735 246.106ZM285.091 286.09C284.988 286.141 284.876 286.167 284.762 286.167C284.648 286.167 284.535 286.141 284.433 286.09L280.291 283.699C280.12 283.596 280.129 283.426 280.291 283.323L285.082 280.556C285.184 280.504 285.297 280.476 285.411 280.476C285.525 280.476 285.638 280.504 285.74 280.556L289.882 282.947C290.052 283.05 290.044 283.221 289.882 283.332L285.091 286.09ZM294.194 277.55L298.336 279.933C298.516 280.035 298.507 280.206 298.336 280.317L293.554 283.084C293.451 283.136 293.336 283.164 293.221 283.164C293.105 283.164 292.991 283.136 292.888 283.084L288.754 280.693C288.575 280.599 288.583 280.428 288.754 280.317L293.537 277.55C293.638 277.498 293.751 277.47 293.865 277.47C293.98 277.47 294.093 277.498 294.194 277.55ZM278.404 282.674L274.27 280.283C274.091 280.18 274.1 280.01 274.27 279.899L279.061 277.14C279.163 277.088 279.276 277.06 279.39 277.06C279.505 277.06 279.617 277.088 279.719 277.14L283.861 279.531C284.04 279.634 284.032 279.805 283.861 279.916L279.078 282.674C278.974 282.728 278.859 282.756 278.741 282.756C278.624 282.756 278.508 282.728 278.404 282.674ZM272.358 279.181L268.216 276.79C268.036 276.687 268.053 276.517 268.216 276.406L272.998 273.647C273.101 273.595 273.215 273.567 273.331 273.567C273.447 273.567 273.561 273.595 273.664 273.647L277.806 276.038C277.977 276.141 277.968 276.312 277.806 276.423L273.015 279.181C272.907 279.233 272.788 279.257 272.669 279.251C272.55 279.245 272.434 279.209 272.332 279.147L272.358 279.181ZM266.303 275.688L262.161 273.297C261.99 273.195 261.998 273.024 262.161 272.913L266.952 270.146C267.054 270.095 267.166 270.069 267.28 270.069C267.395 270.069 267.507 270.095 267.609 270.146L271.751 272.537C271.931 272.64 271.913 272.81 271.751 272.913L266.969 275.68C266.86 275.733 266.74 275.758 266.62 275.754C266.499 275.749 266.381 275.715 266.277 275.654L266.303 275.688ZM288.174 274.091L292.315 276.483C292.486 276.585 292.478 276.756 292.315 276.867L287.525 279.634C287.422 279.684 287.31 279.711 287.196 279.711C287.082 279.711 286.969 279.684 286.867 279.634L282.725 277.243C282.546 277.14 282.563 276.969 282.725 276.867L287.507 274.1C287.605 274.046 287.712 274.015 287.823 274.008C287.934 274 288.045 274.017 288.148 274.057L288.174 274.091ZM282.119 270.598L286.261 272.99C286.44 273.092 286.423 273.263 286.261 273.374L281.478 276.141C281.374 276.192 281.261 276.218 281.145 276.218C281.03 276.218 280.916 276.192 280.812 276.141L276.67 273.75C276.499 273.647 276.508 273.476 276.67 273.374L281.461 270.607C281.556 270.552 281.663 270.52 281.772 270.512C281.882 270.505 281.992 270.523 282.093 270.564L282.119 270.598ZM257.908 256.593L262.041 258.984C262.221 259.087 262.212 259.257 262.041 259.36L257.25 262.127C257.149 262.179 257.036 262.207 256.921 262.207C256.807 262.207 256.694 262.179 256.593 262.127L252.451 259.736C252.271 259.633 252.28 259.462 252.451 259.351L257.233 256.584C257.339 256.534 257.454 256.508 257.571 256.51C257.689 256.511 257.804 256.54 257.908 256.593ZM263.954 260.086L268.096 262.477C268.275 262.579 268.258 262.75 268.096 262.853L263.314 265.62C263.21 265.672 263.096 265.7 262.981 265.7C262.865 265.7 262.751 265.672 262.648 265.62L258.506 263.228C258.335 263.126 258.343 262.955 258.506 262.844L263.297 260.077C263.397 260.031 263.507 260.007 263.618 260.009C263.729 260.01 263.838 260.037 263.937 260.086H263.954ZM251.853 253.1L255.995 255.491C256.166 255.585 256.157 255.756 255.995 255.867L251.204 258.634C251.102 258.686 250.99 258.714 250.875 258.714C250.761 258.714 250.648 258.686 250.546 258.634L246.404 256.251C246.234 256.149 246.242 255.978 246.404 255.867L251.195 253.1C251.295 253.05 251.404 253.025 251.516 253.025C251.627 253.025 251.736 253.05 251.836 253.1H251.853ZM276.055 267.071L280.197 269.463C280.377 269.565 280.368 269.736 280.197 269.847L275.406 272.605C275.305 272.658 275.192 272.685 275.077 272.685C274.963 272.685 274.85 272.658 274.749 272.605L270.607 270.214C270.427 270.112 270.436 269.941 270.607 269.83L275.398 267.071C275.497 267.022 275.607 266.996 275.718 266.996C275.829 266.996 275.939 267.022 276.038 267.071H276.055ZM270.009 263.579L274.151 265.97C274.322 266.072 274.313 266.243 274.151 266.354L269.36 269.113C269.258 269.165 269.146 269.192 269.031 269.192C268.917 269.192 268.804 269.165 268.702 269.113L264.56 266.721C264.381 266.619 264.398 266.448 264.56 266.337L269.351 263.579C269.451 263.529 269.561 263.503 269.672 263.503C269.783 263.503 269.892 263.529 269.992 263.579H270.009ZM274.424 288.242L270.282 285.851C270.111 285.748 270.12 285.578 270.282 285.475L275.082 282.674C275.183 282.622 275.296 282.594 275.411 282.594C275.525 282.594 275.638 282.622 275.739 282.674L279.881 285.065C280.061 285.168 280.043 285.339 279.881 285.45L275.099 288.216C274.994 288.275 274.876 288.308 274.756 288.313C274.636 288.317 274.516 288.293 274.407 288.242H274.424ZM309.942 284.655L314.724 281.897C314.828 281.844 314.942 281.817 315.058 281.817C315.173 281.817 315.287 281.844 315.391 281.897L319.532 284.288C319.703 284.391 319.695 284.561 319.532 284.672L314.742 287.431C314.64 287.483 314.527 287.511 314.413 287.511C314.298 287.511 314.186 287.483 314.084 287.431L309.942 285.04C309.72 284.937 309.737 284.766 309.925 284.655H309.942ZM300.873 287.32L305.655 284.553C305.759 284.502 305.873 284.476 305.988 284.476C306.103 284.476 306.217 284.502 306.321 284.553L312.692 288.225C312.863 288.328 312.854 288.498 312.692 288.609L307.901 291.376C307.799 291.429 307.687 291.456 307.572 291.456C307.458 291.456 307.345 291.429 307.243 291.376L300.873 287.704C300.608 287.602 300.668 287.431 300.855 287.32H300.873ZM317.286 279.318L322.069 276.551C322.172 276.498 322.286 276.471 322.402 276.471C322.518 276.471 322.632 276.498 322.735 276.551L327.859 279.497C328.03 279.6 328.021 279.77 327.859 279.873L323.068 282.64C322.966 282.692 322.854 282.72 322.739 282.72C322.625 282.72 322.512 282.692 322.41 282.64L317.286 279.694C317.064 279.591 317.081 279.42 317.269 279.318H317.286ZM313.375 277.055C313.273 277.107 313.161 277.135 313.046 277.135C312.932 277.135 312.819 277.107 312.718 277.055L308.576 274.664C308.405 274.561 308.413 274.39 308.576 274.279L313.375 271.572C313.477 271.52 313.59 271.492 313.704 271.492C313.818 271.492 313.931 271.52 314.033 271.572L318.175 273.963C318.345 274.066 318.337 274.237 318.175 274.348L313.375 277.055ZM292.418 290.36L297.192 287.585C297.293 287.532 297.406 287.505 297.521 287.505C297.635 287.505 297.748 287.532 297.849 287.585L305.817 292.179C305.988 292.282 305.979 292.452 305.817 292.563L301.026 295.322C300.925 295.374 300.812 295.402 300.697 295.402C300.583 295.402 300.47 295.374 300.369 295.322L292.409 290.727C292.222 290.633 292.23 290.463 292.418 290.36ZM288.447 295.962L293.238 293.195C293.34 293.145 293.453 293.119 293.567 293.119C293.681 293.119 293.793 293.145 293.895 293.195L299.019 296.133C299.19 296.236 299.182 296.406 299.019 296.517L294.228 299.284C294.126 299.335 294.014 299.361 293.9 299.361C293.786 299.361 293.673 299.335 293.571 299.284L288.447 296.347C288.25 296.236 288.259 296.065 288.447 295.954V295.962ZM268.369 251.076C268.266 251.127 268.152 251.153 268.036 251.153C267.921 251.153 267.807 251.127 267.703 251.076L263.561 248.685C263.39 248.582 263.399 248.412 263.561 248.309L268.352 245.542C268.454 245.49 268.567 245.462 268.681 245.462C268.795 245.462 268.908 245.49 269.01 245.542L273.152 247.933C273.331 248.036 273.314 248.207 273.152 248.318L268.369 251.076ZM280.47 258.062C280.367 258.114 280.253 258.142 280.137 258.142C280.022 258.142 279.908 258.114 279.804 258.062L275.671 255.671C275.492 255.577 275.5 255.406 275.671 255.295L280.462 252.528C280.564 252.477 280.677 252.451 280.791 252.451C280.905 252.451 281.017 252.477 281.12 252.528L285.236 254.919C285.415 255.022 285.407 255.192 285.236 255.303L280.47 258.062ZM307.312 273.553C307.209 273.606 307.094 273.633 306.979 273.633C306.863 273.633 306.749 273.606 306.646 273.553L302.512 271.162C302.333 271.06 302.341 270.889 302.512 270.778L307.303 268.019C307.405 267.967 307.518 267.94 307.632 267.94C307.746 267.94 307.859 267.967 307.961 268.019L312.103 270.411C312.282 270.513 312.265 270.684 312.103 270.795L307.312 273.553ZM274.416 254.569C274.313 254.619 274.201 254.646 274.087 254.646C273.973 254.646 273.86 254.619 273.758 254.569L269.616 252.178C269.437 252.075 269.454 251.904 269.616 251.802L274.399 249.035C274.502 248.982 274.616 248.955 274.732 248.955C274.847 248.955 274.962 248.982 275.065 249.035L279.207 251.426C279.377 251.529 279.369 251.699 279.207 251.81L274.416 254.569ZM286.517 261.555C286.415 261.607 286.302 261.634 286.188 261.634C286.074 261.634 285.961 261.607 285.859 261.555L281.717 259.172C281.547 259.069 281.555 258.899 281.717 258.788L286.508 256.021C286.61 255.968 286.723 255.941 286.837 255.941C286.951 255.941 287.064 255.968 287.166 256.021L291.308 258.412C291.479 258.506 291.47 258.677 291.308 258.788L286.517 261.555ZM285.116 296.398C285.219 296.345 285.334 296.318 285.449 296.318C285.565 296.318 285.679 296.345 285.782 296.398L292.153 300.079C292.324 300.181 292.315 300.352 292.153 300.454L287.362 303.221C287.261 303.274 287.148 303.301 287.033 303.301C286.919 303.301 286.806 303.274 286.705 303.221L280.334 299.541C280.163 299.438 280.172 299.267 280.334 299.156L285.116 296.398ZM295.202 266.568C295.1 266.618 294.987 266.644 294.873 266.644C294.759 266.644 294.647 266.618 294.544 266.568L290.403 264.176C290.232 264.074 290.24 263.903 290.403 263.792L295.193 261.025C295.296 260.975 295.408 260.948 295.522 260.948C295.636 260.948 295.749 260.975 295.851 261.025L299.993 263.416C300.164 263.519 300.155 263.69 299.993 263.792L295.202 266.568ZM301.257 270.06C301.155 270.113 301.042 270.14 300.928 270.14C300.814 270.14 300.701 270.113 300.599 270.06L296.457 267.669C296.278 267.567 296.287 267.396 296.457 267.285L301.24 264.518C301.344 264.467 301.457 264.441 301.573 264.441C301.688 264.441 301.802 264.467 301.906 264.518L306.039 266.909C306.219 267.012 306.21 267.182 306.039 267.285L301.257 270.06ZM173.003 231.63C173.105 231.578 173.218 231.551 173.332 231.551C173.446 231.551 173.559 231.578 173.661 231.63L183.857 237.515C184.028 237.617 184.02 237.788 183.857 237.899L179.067 240.666C178.964 240.716 178.852 240.742 178.738 240.742C178.624 240.742 178.511 240.716 178.409 240.666L168.195 234.85C168.016 234.748 168.024 234.577 168.195 234.474L173.003 231.63ZM186.385 239.316C186.488 239.266 186.6 239.24 186.714 239.24C186.828 239.24 186.941 239.266 187.043 239.316L191.185 241.708C191.356 241.81 191.347 241.981 191.185 242.083L186.394 244.85C186.292 244.901 186.179 244.927 186.065 244.927C185.951 244.927 185.839 244.901 185.736 244.85L181.594 242.459C181.424 242.357 181.432 242.186 181.594 242.075L186.385 239.316ZM268.369 284.672L264.227 282.281C264.048 282.179 264.057 282.008 264.227 281.905L269.01 279.258C269.111 279.206 269.224 279.178 269.339 279.178C269.453 279.178 269.566 279.206 269.667 279.258L273.809 281.649C273.989 281.752 273.98 281.923 273.809 282.034L269.018 284.8C268.912 284.843 268.798 284.861 268.684 284.852C268.57 284.843 268.459 284.808 268.361 284.749L268.369 284.672ZM198.495 246.311C198.597 246.258 198.709 246.231 198.824 246.231C198.938 246.231 199.051 246.258 199.153 246.311L203.295 248.702C203.474 248.804 203.457 248.975 203.295 249.086L198.512 251.845C198.409 251.897 198.295 251.924 198.179 251.924C198.063 251.924 197.949 251.897 197.846 251.845L193.704 249.453C193.533 249.351 193.542 249.18 193.704 249.069L198.495 246.311ZM166.957 228.103C167.06 228.051 167.174 228.024 167.29 228.024C167.406 228.024 167.52 228.051 167.623 228.103L171.765 230.495C171.936 230.597 171.927 230.768 171.765 230.879L166.974 233.637C166.872 233.69 166.76 233.717 166.645 233.717C166.531 233.717 166.418 233.69 166.316 233.637L162.174 231.246C161.995 231.144 162.012 230.973 162.174 230.862L166.957 228.103ZM156.12 227.369L167.751 220.657C167.853 220.604 167.965 220.577 168.08 220.577C168.194 220.577 168.307 220.604 168.409 220.657L172.551 223.048C172.73 223.142 172.713 223.312 172.551 223.424L160.928 230.136C160.824 230.188 160.71 230.216 160.594 230.216C160.479 230.216 160.365 230.188 160.261 230.136L156.12 227.745C155.915 227.728 155.923 227.557 156.111 227.446L156.12 227.369ZM221.109 259.36C221.211 259.309 221.324 259.283 221.438 259.283C221.552 259.283 221.664 259.309 221.767 259.36L226.891 262.298C227.07 262.4 227.053 262.571 226.891 262.682L222.108 265.449C222.004 265.499 221.89 265.526 221.775 265.526C221.66 265.526 221.546 265.499 221.442 265.449L216.318 262.511C216.147 262.409 216.156 262.238 216.318 262.127L221.109 259.36ZM205.814 250.615C205.915 250.562 206.028 250.535 206.143 250.535C206.257 250.535 206.37 250.562 206.471 250.615L212.842 254.296C213.013 254.398 213.004 254.569 212.842 254.68L208.051 257.438C207.95 257.491 207.837 257.518 207.722 257.518C207.608 257.518 207.495 257.491 207.394 257.438L201.023 253.758C200.852 253.655 200.861 253.484 201.023 253.382L205.814 250.615ZM235.115 267.533C235.216 267.48 235.329 267.453 235.443 267.453C235.558 267.453 235.67 267.48 235.772 267.533L269.855 287.175C270.035 287.277 270.018 287.448 269.855 287.559L265.073 290.326C264.969 290.376 264.855 290.403 264.74 290.403C264.624 290.403 264.511 290.376 264.407 290.326L230.332 270.684C230.153 270.581 230.161 270.411 230.332 270.308L235.115 267.533ZM271.102 288.31C271.205 288.258 271.319 288.231 271.435 288.231C271.551 288.231 271.665 288.258 271.768 288.31L276.892 291.248C277.063 291.351 277.054 291.521 276.892 291.632L272.101 294.391C272 294.443 271.887 294.471 271.773 294.471C271.658 294.471 271.545 294.443 271.444 294.391L266.32 291.445C266.14 291.351 266.157 291.18 266.32 291.069L271.102 288.31ZM228.103 263.485C228.206 263.432 228.321 263.405 228.436 263.405C228.552 263.405 228.666 263.432 228.769 263.485L233.893 266.422C234.073 266.525 234.064 266.696 233.893 266.807L229.102 269.565C229.001 269.618 228.888 269.645 228.774 269.645C228.659 269.645 228.546 269.618 228.445 269.565L223.321 266.619C223.141 266.525 223.159 266.354 223.321 266.243L228.103 263.485ZM278.113 292.358C278.215 292.306 278.328 292.279 278.442 292.279C278.557 292.279 278.669 292.306 278.771 292.358L283.895 295.305C284.074 295.407 284.057 295.578 283.895 295.689L279.113 298.447C279.009 298.5 278.895 298.527 278.78 298.527C278.664 298.527 278.55 298.5 278.447 298.447L273.323 295.501C273.143 295.399 273.152 295.228 273.323 295.125L278.113 292.358ZM214.063 255.397C214.167 255.345 214.281 255.317 214.397 255.317C214.512 255.317 214.626 255.345 214.73 255.397L219.854 258.344C220.033 258.446 220.024 258.617 219.854 258.719L215.063 261.486C214.96 261.537 214.848 261.563 214.734 261.563C214.62 261.563 214.507 261.537 214.405 261.486L209.281 258.54C209.102 258.438 209.119 258.267 209.281 258.156L214.063 255.397ZM192.406 242.886C192.51 242.836 192.624 242.809 192.739 242.809C192.854 242.809 192.968 242.836 193.072 242.886L197.206 245.277C197.385 245.38 197.376 245.551 197.206 245.653L192.415 248.42C192.313 248.473 192.2 248.5 192.086 248.5C191.971 248.5 191.859 248.473 191.757 248.42L187.615 246.029C187.436 245.926 187.444 245.756 187.615 245.645L192.406 242.886ZM179.143 233.262L175.01 230.87C174.831 230.768 174.839 230.597 175.01 230.486L179.801 227.728C179.903 227.675 180.015 227.648 180.13 227.648C180.244 227.648 180.357 227.675 180.459 227.728L184.6 230.119C184.78 230.221 184.771 230.392 184.6 230.503L179.818 233.262C179.717 233.311 179.606 233.337 179.494 233.337C179.381 233.337 179.27 233.311 179.169 233.262H179.143ZM206.207 233.082L202.065 230.691C201.885 230.597 201.902 230.426 202.065 230.315L206.847 227.548C206.951 227.498 207.065 227.471 207.18 227.471C207.296 227.471 207.41 227.498 207.513 227.548L211.655 229.94C211.826 230.042 211.817 230.213 211.655 230.324L206.864 233.091C206.765 233.138 206.657 233.161 206.547 233.16C206.438 233.158 206.33 233.132 206.232 233.082H206.207ZM219.871 256.798L207.769 249.812C207.599 249.71 207.607 249.539 207.769 249.428L212.646 246.661C212.748 246.61 212.861 246.584 212.975 246.584C213.089 246.584 213.201 246.61 213.303 246.661L225.413 253.638C225.592 253.741 225.584 253.911 225.413 254.022L220.631 256.781C220.526 256.84 220.408 256.873 220.287 256.876C220.166 256.879 220.047 256.852 219.939 256.798H219.871ZM185.813 236.737C185.711 236.79 185.599 236.817 185.484 236.817C185.37 236.817 185.257 236.79 185.156 236.737L181.014 234.346C180.843 234.244 180.851 234.073 181.014 233.962L185.805 231.203C185.906 231.151 186.019 231.124 186.133 231.124C186.248 231.124 186.361 231.151 186.462 231.203L190.604 233.595C190.775 233.697 190.766 233.868 190.604 233.979L185.813 236.737ZM191.996 232.809L187.854 230.418C187.683 230.315 187.692 230.144 187.854 230.033L192.645 227.267C192.747 227.214 192.86 227.187 192.974 227.187C193.088 227.187 193.201 227.214 193.303 227.267L197.445 229.658C197.615 229.752 197.607 229.922 197.445 230.033L192.654 232.8C192.561 232.842 192.461 232.864 192.36 232.866C192.259 232.867 192.158 232.848 192.064 232.809H191.996ZM225.926 260.291L221.784 257.899C221.613 257.797 221.621 257.626 221.784 257.524L226.575 254.757C226.676 254.704 226.789 254.677 226.903 254.677C227.018 254.677 227.13 254.704 227.232 254.757L231.374 257.148C231.545 257.25 231.536 257.421 231.374 257.532L226.583 260.299C226.489 260.338 226.389 260.357 226.288 260.356C226.186 260.354 226.086 260.332 225.994 260.291H225.926ZM199.195 244.466C199.094 244.519 198.981 244.546 198.867 244.546C198.752 244.546 198.639 244.519 198.538 244.466L194.396 242.075C194.216 241.972 194.225 241.802 194.396 241.699L199.187 238.932C199.289 238.882 199.402 238.855 199.516 238.855C199.63 238.855 199.742 238.882 199.844 238.932L203.986 241.323C204.166 241.426 204.157 241.597 203.986 241.708L199.195 244.466ZM256.183 277.772L252.041 275.381C251.87 275.278 251.879 275.108 252.041 274.997L256.832 272.238C256.933 272.186 257.046 272.158 257.161 272.158C257.275 272.158 257.388 272.186 257.489 272.238L261.631 274.629C261.811 274.732 261.794 274.903 261.631 275.014L256.849 277.772C256.754 277.813 256.652 277.833 256.549 277.831C256.446 277.83 256.345 277.807 256.251 277.764L256.183 277.772ZM250.136 274.279L245.995 271.888C245.815 271.786 245.824 271.615 245.995 271.504L250.777 268.737C250.879 268.686 250.992 268.66 251.106 268.66C251.22 268.66 251.332 268.686 251.435 268.737L255.576 271.128C255.756 271.23 255.747 271.401 255.576 271.504L250.785 274.271C250.696 274.309 250.601 274.328 250.504 274.328C250.407 274.328 250.311 274.309 250.222 274.271L250.136 274.279ZM262.238 281.265L258.096 278.874C257.916 278.771 257.933 278.6 258.096 278.489L262.878 275.731C262.981 275.679 263.095 275.651 263.211 275.651C263.327 275.651 263.441 275.679 263.544 275.731L267.686 278.122C267.857 278.225 267.848 278.396 267.686 278.507L262.895 281.265C262.802 281.305 262.701 281.325 262.6 281.324C262.498 281.323 262.398 281.299 262.306 281.256L262.238 281.265ZM238.095 267.302L233.962 264.919C233.782 264.817 233.791 264.646 233.962 264.535L238.753 261.768C238.854 261.716 238.967 261.688 239.081 261.688C239.196 261.688 239.309 261.716 239.41 261.768L243.552 264.159C243.731 264.253 243.714 264.424 243.552 264.535L238.77 267.302C238.665 267.356 238.55 267.384 238.432 267.384C238.315 267.384 238.199 267.356 238.095 267.302ZM244.15 270.803L240.008 268.412C239.837 268.31 239.846 268.139 240.008 268.028L244.799 265.261C244.901 265.211 245.014 265.184 245.128 265.184C245.242 265.184 245.354 265.211 245.456 265.261L249.598 267.652C249.769 267.755 249.761 267.925 249.598 268.028L244.807 270.795C244.704 270.843 244.591 270.866 244.477 270.863C244.363 270.86 244.251 270.831 244.15 270.778V270.803ZM232.049 263.809L227.907 261.418C227.727 261.315 227.745 261.145 227.907 261.042L232.689 258.275C232.793 258.225 232.907 258.198 233.022 258.198C233.138 258.198 233.252 258.225 233.355 258.275L237.489 260.666C237.668 260.769 237.659 260.94 237.489 261.051L232.698 263.818C232.594 263.862 232.482 263.881 232.369 263.875C232.257 263.869 232.147 263.838 232.049 263.784V263.809ZM204.362 212.125C204.259 212.178 204.145 212.205 204.029 212.205C203.913 212.205 203.799 212.178 203.696 212.125L199.554 209.734C199.383 209.64 199.392 209.469 199.554 209.358L200.826 208.624C200.93 208.571 201.044 208.544 201.16 208.544C201.275 208.544 201.389 208.571 201.493 208.624L205.634 211.015C205.805 211.117 205.797 211.288 205.634 211.399L204.362 212.125ZM234.132 231.34C234.031 231.393 233.918 231.42 233.804 231.42C233.689 231.42 233.577 231.393 233.475 231.34L229.333 228.949C229.162 228.846 229.171 228.676 229.333 228.565L234.124 225.806C234.226 225.754 234.338 225.726 234.453 225.726C234.567 225.726 234.68 225.754 234.781 225.806L238.923 228.197C239.094 228.3 239.086 228.471 238.923 228.582L234.132 231.34ZM222.04 224.329C221.938 224.381 221.825 224.409 221.711 224.409C221.597 224.409 221.484 224.381 221.382 224.329L217.24 221.938C217.061 221.835 217.078 221.664 217.24 221.553L222.023 218.786C222.126 218.736 222.24 218.709 222.356 218.709C222.471 218.709 222.585 218.736 222.689 218.786L226.831 221.177C227.002 221.28 226.993 221.451 226.831 221.553L222.04 224.329ZM241.537 235.584C241.433 235.635 241.319 235.661 241.204 235.661C241.088 235.661 240.974 235.635 240.871 235.584L236.729 233.193C236.558 233.091 236.566 232.92 236.729 232.809L241.52 230.042C241.622 229.992 241.734 229.965 241.848 229.965C241.962 229.965 242.075 229.992 242.177 230.042L246.319 232.433C246.498 232.527 246.481 232.698 246.319 232.809L241.537 235.584ZM228.095 227.822C227.992 227.874 227.877 227.901 227.762 227.901C227.646 227.901 227.532 227.874 227.429 227.822L223.295 225.43C223.116 225.328 223.124 225.157 223.295 225.046L228.086 222.288C228.188 222.235 228.301 222.208 228.415 222.208C228.529 222.208 228.642 222.235 228.744 222.288L232.886 224.679C233.065 224.781 233.056 224.952 232.886 225.063L228.095 227.822ZM253.638 242.536C253.536 242.588 253.423 242.616 253.309 242.616C253.195 242.616 253.082 242.588 252.98 242.536L248.838 240.145C248.659 240.042 248.668 239.872 248.838 239.761L253.638 237.053C253.739 237.001 253.852 236.974 253.967 236.974C254.081 236.974 254.194 237.001 254.295 237.053L258.437 239.445C258.617 239.547 258.608 239.718 258.437 239.829L253.638 242.536ZM247.574 239.12C247.473 239.172 247.36 239.2 247.246 239.2C247.131 239.2 247.019 239.172 246.917 239.12L242.775 236.729C242.596 236.626 242.613 236.456 242.775 236.345L247.566 233.578C247.668 233.527 247.781 233.501 247.895 233.501C248.009 233.501 248.121 233.527 248.223 233.578L252.365 235.969C252.536 236.071 252.528 236.242 252.365 236.345L247.574 239.12ZM216.463 219.128C216.362 219.18 216.249 219.208 216.134 219.208C216.02 219.208 215.907 219.18 215.806 219.128L211.664 216.737C211.484 216.634 211.493 216.463 211.664 216.352L212.936 215.618C213.038 215.566 213.151 215.538 213.265 215.538C213.379 215.538 213.492 215.566 213.594 215.618L217.736 218.009C217.915 218.112 217.898 218.282 217.736 218.393L216.463 219.128ZM198.307 208.649C198.205 208.7 198.092 208.726 197.978 208.726C197.864 208.726 197.752 208.7 197.65 208.649L193.508 206.258C193.328 206.156 193.337 205.985 193.508 205.882L194.78 205.148C194.882 205.095 194.995 205.068 195.109 205.068C195.223 205.068 195.336 205.095 195.438 205.148L199.58 207.539C199.759 207.642 199.742 207.812 199.58 207.923L198.307 208.649ZM188.247 214.457C188.145 214.507 188.032 214.533 187.918 214.533C187.804 214.533 187.692 214.507 187.589 214.457L183.448 212.065C183.268 211.963 183.285 211.792 183.448 211.69L188.239 208.923C188.34 208.87 188.453 208.843 188.567 208.843C188.682 208.843 188.794 208.87 188.896 208.923L193.038 211.314C193.209 211.416 193.2 211.587 193.038 211.698L188.247 214.457ZM173.123 229.829L168.981 227.437C168.801 227.335 168.819 227.164 168.981 227.053L173.763 224.286C173.867 224.235 173.981 224.209 174.096 224.209C174.212 224.209 174.326 224.235 174.429 224.286L178.571 226.677C178.742 226.78 178.733 226.951 178.571 227.053L173.78 229.82C173.675 229.865 173.56 229.883 173.445 229.874C173.331 229.865 173.22 229.829 173.123 229.769V229.829ZM210.408 215.652C210.306 215.703 210.194 215.729 210.08 215.729C209.966 215.729 209.853 215.703 209.751 215.652L205.609 213.261C205.438 213.158 205.447 212.988 205.609 212.877L206.881 212.142C206.983 212.09 207.096 212.062 207.21 212.062C207.325 212.062 207.437 212.09 207.539 212.142L211.681 214.533C211.86 214.636 211.852 214.807 211.681 214.918L210.408 215.652ZM259.684 246.123C259.581 246.175 259.467 246.203 259.351 246.203C259.235 246.203 259.121 246.175 259.018 246.123L254.876 243.732C254.705 243.629 254.714 243.458 254.876 243.347L259.667 240.589C259.769 240.536 259.881 240.509 259.996 240.509C260.11 240.509 260.223 240.536 260.325 240.589L264.467 242.98C264.646 243.083 264.629 243.253 264.467 243.364L259.684 246.123Z" fill="#455A64"/>
<path d="M232.843 282.392L191.979 258.762C191.288 258.412 190.525 258.23 189.75 258.23C188.976 258.23 188.212 258.412 187.521 258.762L164.088 272.289C162.858 273.007 162.858 274.16 164.088 274.851L204.96 298.49C205.65 298.844 206.414 299.028 207.189 299.028C207.964 299.028 208.728 298.844 209.418 298.49L232.852 284.963C234.073 284.254 234.073 283.101 232.843 282.392Z" fill="#263238"/>
<path d="M223.91 74.4859V80.7286L316.92 134.428C317.56 134.795 318.081 134.496 318.081 133.753L318.013 131.516C318.567 131.295 319.138 131.118 319.721 130.986L347.578 147.067C347.917 147.29 348.2 147.589 348.403 147.941C348.606 148.292 348.724 148.686 348.748 149.091V151.448C348.768 151.854 348.883 152.248 349.085 152.6C349.287 152.952 349.57 153.251 349.91 153.472L353.121 155.326V149.091C353.101 148.686 352.986 148.291 352.784 147.939C352.582 147.588 352.299 147.289 351.959 147.067L225.072 73.8112C224.431 73.444 223.91 73.7429 223.91 74.4859Z" fill="#8E82F0"/>
<path d="M223.902 167.965C223.924 168.369 224.041 168.763 224.244 169.113C224.448 169.463 224.731 169.761 225.072 169.98L351.959 243.236C352.6 243.612 353.121 243.305 353.121 242.562V155.325L349.91 153.472C349.269 153.105 348.202 147.443 347.578 147.067L319.721 130.986C319.08 130.619 317.56 134.795 316.92 134.402L223.91 80.7286V167.965H223.902Z" fill="#EBEBEB"/>
<path d="M347.578 179.238L291.846 147.033C291.206 146.657 290.685 146.965 290.685 147.708V202.483C290.704 202.889 290.82 203.283 291.022 203.635C291.224 203.987 291.506 204.286 291.846 204.507L347.578 236.712C348.219 237.079 348.74 236.78 348.74 236.037V181.262C348.72 180.856 348.605 180.461 348.403 180.11C348.201 179.758 347.918 179.459 347.578 179.238Z" fill="#FAFAFA"/>
<path d="M347.578 164.771L229.445 96.5703C228.804 96.1945 228.283 96.502 228.283 97.245V105.452C228.304 105.856 228.42 106.249 228.622 106.599C228.824 106.949 229.106 107.247 229.445 107.467L347.578 175.676C348.219 176.044 348.74 175.745 348.74 175.002V166.795C348.72 166.389 348.605 165.995 348.403 165.643C348.201 165.291 347.918 164.992 347.578 164.771Z" fill="#455A64"/>
<path d="M272.085 127.69V129.859C272.085 130.312 271.769 130.491 271.385 130.269L237.045 110.439V106.648L271.385 126.477C271.588 126.611 271.757 126.79 271.879 127C272.001 127.211 272.071 127.447 272.085 127.69Z" fill="#FAFAFA"/>
<path d="M233.364 104.521C232.971 104.299 232.664 104.521 232.664 104.922V107.1C232.676 107.343 232.746 107.58 232.868 107.791C232.99 108.002 233.16 108.181 233.364 108.313L237.045 110.439V106.647L233.364 104.521Z" fill="#8E82F0"/>
<path d="M233.629 107.502L234.047 107.373C234.003 107.2 233.98 107.023 233.979 106.844C233.963 106.681 233.99 106.518 234.056 106.368C234.121 106.219 234.224 106.088 234.355 105.99C234.445 105.936 234.548 105.907 234.654 105.907C234.759 105.907 234.862 105.936 234.953 105.99C235.22 106.186 235.437 106.444 235.586 106.741C235.734 107.038 235.81 107.366 235.807 107.698C235.82 107.86 235.793 108.024 235.728 108.173C235.662 108.322 235.56 108.452 235.431 108.552C235.35 108.596 235.259 108.62 235.166 108.62C235.048 108.617 234.933 108.581 234.833 108.518C234.526 108.311 234.293 108.012 234.167 107.664L233.757 107.792H233.714C233.682 107.793 233.65 107.784 233.624 107.765C233.598 107.747 233.578 107.72 233.569 107.689C233.555 107.656 233.554 107.619 233.565 107.585C233.576 107.55 233.598 107.521 233.629 107.502ZM234.953 108.287C234.996 108.314 235.047 108.327 235.098 108.327C235.149 108.327 235.199 108.314 235.243 108.287C235.326 108.21 235.389 108.113 235.428 108.007C235.467 107.9 235.479 107.785 235.465 107.672C235.469 107.397 235.411 107.125 235.295 106.875C235.18 106.626 235.01 106.405 234.799 106.229C234.742 106.195 234.677 106.175 234.611 106.169C234.578 106.157 234.541 106.157 234.508 106.169C234.363 106.246 234.286 106.477 234.286 106.776C234.268 107.063 234.319 107.35 234.435 107.613C234.551 107.876 234.728 108.107 234.953 108.287Z" fill="#FAFAFA"/>
<path d="M223.91 80.7286V88.3206L353.121 162.918V155.325L350.721 153.942C350.08 153.566 349.867 153.003 349.559 151.918L348.748 149.091C348.701 148.692 348.573 148.307 348.372 147.959C348.171 147.611 347.901 147.307 347.578 147.067L319.721 130.986C319.597 130.876 319.448 130.797 319.286 130.757C319.125 130.717 318.957 130.717 318.795 130.756C318.634 130.796 318.485 130.874 318.36 130.984C318.236 131.094 318.14 131.233 318.081 131.388L317.082 133.198C316.715 133.83 316.535 134.206 315.895 133.83L223.91 80.7286Z" fill="#E6E6E6"/>
<path d="M229.376 78.4057C228.522 77.936 227.907 78.3118 227.907 79.2597C227.932 79.7725 228.078 80.2721 228.333 80.7175C228.588 81.1629 228.946 81.5413 229.376 81.8217C230.23 82.2914 230.853 81.9071 230.853 80.9677C230.829 80.4537 230.683 79.9528 230.426 79.5071C230.169 79.0613 229.809 78.6836 229.376 78.4057Z" fill="#455A64"/>
<path d="M234.671 81.4545C233.859 80.9848 233.202 81.3606 233.202 82.3085C233.227 82.8213 233.373 83.3209 233.628 83.7663C233.883 84.2117 234.241 84.5901 234.671 84.8705C235.525 85.3402 236.14 84.9559 236.14 84.0165C236.116 83.5036 235.97 83.0037 235.714 82.5582C235.459 82.1127 235.101 81.7344 234.671 81.4545Z" fill="#455A64"/>
<path d="M239.974 84.546C239.163 84.0763 238.505 84.4521 238.505 85.4C238.53 85.9128 238.676 86.4124 238.931 86.8578C239.187 87.3031 239.544 87.6816 239.974 87.962C240.828 88.4317 241.443 88.0474 241.443 87.108C241.419 86.595 241.273 86.0952 241.018 85.6497C240.762 85.2042 240.405 84.8259 239.974 84.546Z" fill="#455A64"/>
<path opacity="0.5" d="M340.226 149.715C340.226 149.604 340.337 149.621 340.379 149.715L340.635 150.33C341.062 150.278 341.583 150.697 341.933 151.44C342.386 152.405 342.386 153.541 341.933 154.002C341.82 154.109 341.672 154.173 341.516 154.183C341.36 154.192 341.205 154.146 341.079 154.053C340.702 153.812 340.405 153.464 340.226 153.054C340.166 152.926 340.166 152.781 340.226 152.729C340.285 152.678 340.379 152.729 340.43 152.849C340.772 153.566 341.284 153.882 341.66 153.558C341.832 153.273 341.923 152.947 341.923 152.614C341.923 152.281 341.832 151.955 341.66 151.67C341.421 151.158 341.071 150.816 340.806 150.816L340.994 151.278C341.045 151.397 340.994 151.517 340.926 151.465L340.174 150.979C340.146 150.953 340.123 150.921 340.108 150.886C340.093 150.85 340.087 150.812 340.089 150.774L340.226 149.715Z" fill="#455A64"/>
<path opacity="0.5" d="M320.532 134.454L319.858 133.036C319.819 132.97 319.799 132.895 319.799 132.818C319.799 132.742 319.819 132.667 319.858 132.601C319.943 132.524 320.071 132.601 320.148 132.763L320.814 134.18L321.48 133.531C321.566 133.463 321.685 133.531 321.771 133.702C321.809 133.768 321.829 133.844 321.829 133.92C321.829 133.996 321.809 134.072 321.771 134.138L321.104 134.787L321.771 136.196C321.81 136.263 321.83 136.34 321.83 136.418C321.83 136.496 321.81 136.572 321.771 136.64C321.749 136.655 321.724 136.663 321.698 136.663C321.672 136.663 321.647 136.655 321.625 136.64C321.563 136.593 321.513 136.532 321.48 136.461L320.814 135.052L320.148 135.692C320.138 135.702 320.127 135.709 320.115 135.714C320.102 135.72 320.089 135.722 320.075 135.722C320.062 135.722 320.049 135.72 320.036 135.714C320.024 135.709 320.012 135.702 320.003 135.692C319.938 135.651 319.888 135.592 319.858 135.521C319.819 135.454 319.798 135.377 319.798 135.299C319.798 135.221 319.819 135.145 319.858 135.077L320.532 134.454Z" fill="#455A64"/>
<path d="M337.792 151.457V149.091C337.772 148.686 337.657 148.291 337.455 147.939C337.253 147.587 336.97 147.289 336.63 147.067L231.639 86.4845C230.999 86.1173 230.478 86.4162 230.478 87.1592V89.5248C230.497 89.93 230.613 90.3248 230.815 90.6767C231.017 91.0285 231.299 91.3274 231.639 91.5488L336.63 152.131C337.271 152.499 337.792 152.2 337.792 151.457Z" fill="#FAFAFA"/>
<path d="M232.288 87.7399L231.981 88.389C231.967 88.3994 231.951 88.405 231.934 88.405C231.917 88.405 231.9 88.3994 231.887 88.389L231.195 88.1242C231.092 88.1242 231.041 88.2353 231.127 88.3804L231.622 89.3113C231.637 89.3701 231.637 89.4319 231.622 89.4906L231.502 90.3446C231.502 90.4727 231.605 90.6521 231.699 90.6435L232.314 90.5667C232.338 90.5655 232.362 90.5713 232.383 90.5834C232.405 90.5955 232.422 90.6134 232.433 90.635L233.048 91.4207C233.151 91.5403 233.262 91.4975 233.245 91.3438L233.125 90.3703C233.114 90.3492 233.108 90.3258 233.108 90.3019C233.108 90.2781 233.114 90.2547 233.125 90.2336L233.629 89.8749C233.706 89.8152 233.629 89.6102 233.552 89.5248L232.869 89.0039C232.819 88.9617 232.783 88.905 232.766 88.8416L232.459 87.8424C232.51 87.7143 232.373 87.6375 232.288 87.7399Z" stroke="#E0E0E0" stroke-width="0.75" stroke-miterlimit="10"/>
<g opacity="0.5">
<path opacity="0.5" d="M229.103 86.2028C229.174 86.2011 229.243 86.1814 229.304 86.1455C229.366 86.1097 229.417 86.0588 229.453 85.9978C229.505 85.9036 229.519 85.7926 229.49 85.6887C229.461 85.5848 229.393 85.4964 229.299 85.4427L226.02 83.5468C225.929 83.5097 225.827 83.5067 225.734 83.5384C225.64 83.5701 225.561 83.6344 225.512 83.7194C225.462 83.8045 225.444 83.9047 225.462 84.0016C225.48 84.0985 225.533 84.1857 225.61 84.2471L228.872 86.143C228.94 86.1886 229.021 86.2097 229.103 86.2028Z" fill="#455A64"/>
<path opacity="0.5" d="M229.103 88.0987C229.174 88.097 229.243 88.0773 229.304 88.0415C229.366 88.0056 229.417 87.9548 229.453 87.8937C229.479 87.8477 229.495 87.7971 229.502 87.7448C229.508 87.6924 229.504 87.6393 229.489 87.5886C229.475 87.5378 229.451 87.4904 229.418 87.449C229.386 87.4075 229.345 87.3729 229.299 87.3472L226.02 85.4427C225.929 85.4056 225.827 85.4026 225.734 85.4343C225.64 85.466 225.562 85.5303 225.512 85.6154C225.462 85.7004 225.445 85.8006 225.463 85.8975C225.481 85.9944 225.533 86.0816 225.61 86.143L228.872 88.0474C228.943 88.0859 229.023 88.1036 229.103 88.0987Z" fill="#455A64"/>
<path opacity="0.5" d="M229.103 89.9945C229.192 89.9946 229.278 89.9651 229.348 89.9109C229.419 89.8566 229.469 89.7806 229.491 89.6946C229.514 89.6087 229.507 89.5178 229.472 89.436C229.438 89.3543 229.377 89.2864 229.299 89.243L226.02 87.3471C225.974 87.3184 225.923 87.2993 225.87 87.2911C225.817 87.2829 225.763 87.2857 225.711 87.2993C225.659 87.3129 225.61 87.3371 225.568 87.3703C225.525 87.4035 225.49 87.445 225.465 87.4923C225.412 87.5854 225.397 87.6957 225.424 87.7995C225.451 87.9033 225.518 87.9923 225.61 88.0474L228.872 89.9433C228.943 89.9817 229.023 89.9995 229.103 89.9945Z" fill="#455A64"/>
</g>
<path d="M322.052 192.15C317.364 187.376 316.16 185.207 316.16 183.294C316.16 181.381 316.963 180.177 319.456 181.586C321.217 182.57 322.537 184.189 323.146 186.112C323.301 186.516 323.547 186.88 323.863 187.176C324.18 187.472 324.559 187.692 324.973 187.82L328.227 188.538C329.004 188.717 329.525 188.222 329.337 187.444C327.911 181.629 324.315 176.257 319.268 173.345C313.205 169.844 309.669 172.491 309.669 178.401C309.669 184.08 312.658 188.819 315.647 192.227C316.204 192.941 316.529 193.808 316.578 194.712V196.642C316.602 197.075 316.728 197.496 316.944 197.871C317.161 198.246 317.463 198.565 317.825 198.803L321.822 201.108C322.514 201.51 323.069 201.185 323.069 200.391V194.567C323.008 193.671 322.65 192.82 322.052 192.15Z" fill="#455A64"/>
<path d="M323.145 209.119C323.154 207.933 322.854 206.765 322.274 205.731C321.695 204.696 320.856 203.83 319.84 203.218C317.697 201.971 316.578 203.073 316.578 205.327C316.561 206.513 316.852 207.684 317.424 208.723C317.996 209.762 318.829 210.634 319.84 211.254C322.035 212.518 323.145 211.374 323.145 209.119Z" fill="#455A64"/>
<path d="M190.724 54.5535L193.858 52.7259C194.162 52.5798 194.5 52.5193 194.836 52.5509C195.171 52.5825 195.492 52.705 195.763 52.9053L273.793 97.9452C274.572 98.4534 275.221 99.138 275.687 99.9436C276.153 100.749 276.423 101.653 276.474 102.582V214.807C276.504 215.133 276.45 215.461 276.317 215.76C276.184 216.059 275.977 216.319 275.714 216.515L272.554 218.342L195.797 171.287C195.018 170.778 194.371 170.093 193.906 169.288C193.442 168.482 193.174 167.578 193.124 166.65L190.724 54.5535Z" fill="#8E82F0"/>
<path opacity="0.15" d="M272.605 218.342L275.722 216.54C275.986 216.346 276.193 216.086 276.325 215.786C276.457 215.486 276.508 215.158 276.474 214.832V102.582C276.439 101.598 276.144 100.641 275.62 99.8069L272.426 101.626C272.953 102.462 273.248 103.423 273.28 104.41V216.643C273.318 216.96 273.276 217.281 273.158 217.578C273.04 217.874 272.85 218.137 272.605 218.342Z" fill="black"/>
<path d="M270.658 99.7813L192.628 54.7328C191.151 53.8788 189.955 54.5705 189.955 56.2785V168.503C190.005 169.431 190.273 170.335 190.738 171.141C191.202 171.946 191.85 172.631 192.628 173.14L270.658 218.188C272.136 219.042 273.34 218.351 273.34 216.643V104.41C273.287 103.482 273.017 102.58 272.551 101.776C272.085 100.972 271.437 100.289 270.658 99.7813Z" fill="#8E82F0"/>
<path opacity="0.4" d="M193.858 52.7259L190.8 54.4937C191.097 54.3869 191.414 54.3529 191.726 54.3945C192.038 54.4361 192.336 54.5521 192.594 54.7328L270.624 99.7813C271.366 100.24 271.985 100.873 272.426 101.626L275.594 99.8069C275.154 99.049 274.535 98.41 273.792 97.9452L195.805 52.948C195.533 52.7482 195.212 52.6267 194.877 52.5965C194.541 52.5664 194.203 52.6289 193.9 52.7772L193.858 52.7259Z" fill="white"/>
<path d="M261.802 104.188L199.315 68.1064C198.196 67.4574 197.291 67.9869 197.291 69.2764V165.275C197.329 165.977 197.533 166.661 197.884 167.271C198.236 167.881 198.726 168.399 199.315 168.784L261.802 204.798C262.921 205.438 263.835 204.917 263.835 203.628V107.715C263.801 107.008 263.599 106.319 263.246 105.705C262.892 105.092 262.397 104.572 261.802 104.188Z" fill="white"/>
<path d="M212.287 125.324L211.655 124.804C212.698 123.672 214.054 122.876 215.549 122.515L215.754 123.301C214.428 123.628 213.225 124.331 212.287 125.324Z" fill="#37474F"/>
<path d="M210.895 128.51L212.185 127.246C212.49 126.928 212.661 126.504 212.661 126.063C212.661 125.622 212.49 125.198 212.185 124.88C211.867 124.575 211.443 124.405 211.002 124.405C210.561 124.405 210.137 124.575 209.819 124.88L208.538 126.144C208.233 126.462 208.062 126.886 208.062 127.327C208.062 127.768 208.233 128.192 208.538 128.51C208.856 128.813 209.278 128.982 209.717 128.982C210.156 128.982 210.578 128.813 210.895 128.51Z" fill="#8E82F0"/>
<path d="M199.529 157.7L196.643 162.636C196.643 162.636 177.735 152.61 176.668 151.295C175.6 149.979 175.668 147.324 175.506 145.889C175.241 143.498 176.121 141.439 176.249 140.577C176.463 139.074 174.302 138.988 173.234 141.081C172.449 142.601 172.38 144.343 171.714 144.36C170.76 143.69 169.871 142.933 169.058 142.097C167.888 140.816 165.771 138.681 164.165 138.971C163.892 139.035 163.645 139.179 163.454 139.384C163.264 139.59 163.14 139.847 163.097 140.124C163.051 141.007 162.849 141.874 162.5 142.686C162.239 142.994 162.026 143.34 161.868 143.711C161.817 144.262 161.817 144.817 161.868 145.368C161.799 146.162 161.014 146.495 160.928 147.272C160.953 147.871 161.019 148.467 161.125 149.057C161.125 149.441 161.005 149.775 161.005 150.159C161.087 150.948 161.43 151.687 161.979 152.26C163.578 154.123 165.474 155.71 167.59 156.957C169.298 158.084 171.586 159.083 173.568 160.142C175.549 161.201 197.804 178.298 200.767 176.283C201.98 175.429 205.174 171.355 208.53 166.795" fill="#FFA8A7"/>
<path d="M209.231 167.384C212.642 162.634 215.779 157.693 218.625 152.584C222.041 143.019 218.172 136.648 218.172 136.648C218.172 136.648 213.261 135.128 209.171 141.585C207.369 144.428 202.655 152.422 199.563 157.7" fill="#FFA8A7"/>
<path d="M226.763 136.794C226.763 136.794 221.349 134.599 217.839 134.829C214.329 135.06 211.733 136.051 209.154 140.193C205.738 145.718 200.024 155.266 200.024 155.266C202.439 160.23 206.293 164.352 211.084 167.094L221.571 151.278L226.763 136.794Z" fill="#455A64"/>
<path d="M243.946 146.359C245.752 147.813 247.083 149.772 247.772 151.986C248.572 154.662 248.964 157.443 248.933 160.236V178.213L249.164 212.236C237.754 216.122 223.253 212.697 211.084 199.17C211.084 199.17 211.758 155.616 211.758 148.502C211.758 148.178 211.758 147.853 211.758 147.52C212.202 137.434 220.905 132.754 229.479 137.605L236.687 141.67L243.92 146.359H243.946Z" fill="#F0F0F0"/>
<path d="M239.974 104.974C239.974 104.974 245.568 104.538 246.806 109.73C247.942 114.359 239.505 132.635 239.693 132.327C239.881 132.02 239.974 104.974 239.974 104.974Z" fill="#263238"/>
<path d="M220.222 94.5207C220.222 94.5207 222.297 88.9355 232.374 92.9066C237.498 94.9306 239.419 101.276 239.419 101.276L220.222 94.5207Z" fill="#8E82F0"/>
<path opacity="0.4" d="M220.222 94.5207C220.222 94.5207 222.297 88.9355 232.374 92.9066C237.498 94.9306 239.419 101.276 239.419 101.276L220.222 94.5207Z" fill="black"/>
<path d="M236.132 109.355C236.132 117.041 230.752 121.806 224.108 120.021C217.463 118.236 212.083 110.627 212.083 102.941C212.083 95.2551 217.814 95.2551 224.458 97.0485C231.102 98.8419 236.132 101.686 236.132 109.355Z" fill="#263238"/>
<path d="M242.408 121.499C242.408 121.499 240.64 130.636 239.932 132.028C239.718 132.432 239.407 132.775 239.026 133.027C238.646 133.279 238.209 133.432 237.754 133.472L237.873 126.742L242.408 121.499Z" fill="#263238"/>
<path d="M240.188 107.134C240.888 107.248 241.556 107.511 242.146 107.906C242.735 108.301 243.232 108.818 243.604 109.423C245.056 111.532 244.244 116.708 242.425 121.499L239.095 121.046L240.188 107.134Z" fill="#263238"/>
<path d="M238.07 120.781C238.745 121.422 239.692 120.192 240.521 119.415C241.349 118.638 244.039 117.997 245.389 121.627C246.738 125.256 244.202 129.048 242.075 129.253C238.42 129.594 237.873 126.742 237.873 126.742L237.754 142.345C231.614 148.852 220.87 141.183 225.704 138.305V133.668C224.027 133.524 222.372 133.179 220.776 132.643C218.086 131.439 216.395 128.544 215.575 124.957C214.269 119.21 213.774 114.709 214.884 104.401C216.096 93.0945 227.822 96.1177 234.15 102.412C240.478 108.706 238.07 120.781 238.07 120.781Z" fill="#FFA8A7"/>
<path d="M238.07 122.122C238.412 122.224 239.693 120.115 240.521 119.457C241.674 118.552 240.188 107.177 240.188 107.177C241.52 104.239 239.061 99.8069 236.49 98.005C234.643 96.8193 232.559 96.0526 230.384 95.759C228.54 95.4288 226.701 95.1754 224.867 94.9989C222.626 94.8817 220.395 94.6135 218.189 94.1962C216.462 93.7866 214.789 93.1791 213.202 92.3857C211.801 91.7452 210.64 93.1884 211.878 95.5882C212.987 97.7707 214.526 99.7056 216.404 101.276C221.853 105.366 228.181 106.349 233.689 106.955C234.927 107.092 235.201 108.552 235.867 112.523C236.456 115.973 236.943 121.755 238.07 122.122Z" fill="#263238"/>
<path d="M244.381 107.228L248.429 105.802C247.857 104.308 246.482 103.419 245.371 103.812C244.261 104.205 243.809 105.734 244.381 107.228Z" fill="#263238"/>
<path d="M225.712 133.668C225.712 133.668 231.69 133.882 233.808 133.156C235.074 132.714 236.116 131.795 236.712 130.594C236.423 131.856 235.86 133.04 235.064 134.061C233.526 135.914 225.712 135.487 225.712 135.487V133.668Z" fill="#F28F8F"/>
<path d="M227.164 116.144C227.169 116.516 227.286 116.877 227.499 117.182C227.712 117.487 228.012 117.72 228.36 117.852C229.017 118.023 229.555 117.519 229.555 116.725C229.561 116.344 229.449 115.971 229.235 115.656C229.021 115.342 228.716 115.1 228.36 114.965C227.694 114.82 227.164 115.29 227.164 116.144Z" fill="#263238"/>
<path d="M229.086 110.892L231.648 113.223C231.827 112.787 231.866 112.306 231.759 111.846C231.652 111.387 231.404 110.973 231.05 110.661C230.923 110.512 230.762 110.396 230.579 110.324C230.397 110.253 230.2 110.227 230.006 110.25C229.811 110.273 229.626 110.343 229.465 110.455C229.304 110.567 229.174 110.717 229.086 110.892Z" fill="#263238"/>
<path d="M226.251 125.478L223.509 125.931C223.588 126.366 223.817 126.76 224.158 127.043C224.499 127.326 224.928 127.48 225.371 127.477C226.131 127.357 226.524 126.46 226.251 125.478Z" fill="#F28F8F"/>
<path d="M216.122 108.637L218.471 107.177C217.984 106.323 217.079 105.87 216.43 106.272C216.1 106.562 215.888 106.962 215.831 107.397C215.775 107.832 215.878 108.273 216.122 108.637Z" fill="#263238"/>
<path d="M217.147 113.044C217.141 113.427 217.253 113.803 217.468 114.119C217.684 114.436 217.993 114.678 218.351 114.812C219.017 114.983 219.555 114.479 219.555 113.684C219.561 113.303 219.449 112.928 219.233 112.613C219.018 112.298 218.709 112.058 218.351 111.925C217.685 111.746 217.147 112.25 217.147 113.044Z" fill="#263238"/>
<path d="M223.091 113.522L222.954 121.908L218.642 119.654L223.091 113.522Z" fill="#F28F8F"/>
<path d="M262.016 197.274C258.651 162.687 253.211 150.398 244.688 146.956C241.828 149.194 241.366 159.399 244.603 167.059C244.603 167.059 251.725 189.998 252.289 197.803C252.649 205.103 252.377 212.421 251.478 219.674C251.432 220.11 251.295 220.532 251.076 220.911C250.857 221.291 250.56 221.62 250.205 221.878C248.386 223.125 248.549 224.867 247.268 226.549C246.26 227.864 245.303 228.12 245.56 228.599C245.773 229.077 246.143 229.468 246.609 229.708C247.075 229.947 247.609 230.02 248.122 229.914C248.938 229.631 249.695 229.196 250.35 228.633C249.869 230.474 249.108 232.231 248.096 233.842C245.79 237.574 245.961 240.042 251.614 240.734C255.158 241.17 257.678 238.915 259.241 230.025C259.685 227.463 260.778 222.851 261.196 219.538C262.409 210.084 262.563 202.842 262.016 197.274Z" fill="#FFA8A7"/>
<path d="M242.246 145.317C242.246 145.317 248.446 147.315 251.64 152.277C254.834 157.238 258.028 165.266 260.453 179.605C260.453 179.605 256.696 185.019 246.439 180.843C246.439 180.843 241.58 162.602 241.008 155.351C240.418 147.443 242.246 145.317 242.246 145.317Z" fill="#455A64"/>
<path d="M236.482 94.7939C242.281 98.4234 244.783 102.83 244.928 108.142C244.979 111.791 244.833 115.44 244.492 119.073C245.584 119.86 246.485 120.882 247.127 122.065C247.768 123.248 248.135 124.561 248.199 125.905C248.199 129.501 245.287 131.636 241.691 130.67C239.887 130.137 238.293 129.057 237.127 127.579C235.962 126.102 235.283 124.3 235.184 122.421C235.11 121.254 235.475 120.103 236.206 119.191C236.938 118.28 237.983 117.674 239.138 117.493C239.864 112.42 239.85 107.268 239.095 102.198C237.806 94.5121 223.441 90.0798 220.222 94.5121C221.187 90.6862 228.42 89.7126 236.482 94.7939Z" fill="#8E82F0"/>
<path opacity="0.15" d="M236.482 94.7939C242.281 98.4234 244.783 102.83 244.928 108.142C244.979 111.791 244.833 115.44 244.492 119.073C245.584 119.86 246.485 120.882 247.127 122.065C247.768 123.248 248.135 124.561 248.199 125.905C248.199 129.501 245.287 131.636 241.691 130.67C239.887 130.137 238.293 129.057 237.127 127.579C235.962 126.102 235.283 124.3 235.184 122.421C235.11 121.254 235.475 120.103 236.206 119.191C236.938 118.28 237.983 117.674 239.138 117.493C239.864 112.42 239.85 107.268 239.095 102.198C237.806 94.5121 223.441 90.0798 220.222 94.5121C221.187 90.6862 228.42 89.7126 236.482 94.7939Z" fill="black"/>
<path d="M238.573 123.326C238.555 122.944 238.632 122.563 238.797 122.218C238.962 121.872 239.21 121.574 239.519 121.348C239.828 121.122 240.188 120.976 240.567 120.923C240.946 120.871 241.332 120.913 241.691 121.046C242.555 121.302 243.319 121.82 243.877 122.528C244.435 123.236 244.76 124.1 244.808 125C244.821 125.38 244.74 125.758 244.572 126.1C244.404 126.441 244.154 126.736 243.845 126.958C243.536 127.181 243.177 127.323 242.8 127.373C242.422 127.423 242.038 127.38 241.682 127.246C240.824 126.991 240.065 126.478 239.509 125.777C238.953 125.075 238.626 124.22 238.573 123.326Z" fill="#8E82F0"/>
<path d="M287.746 178.196C287.887 178.332 288.015 178.481 288.131 178.64C288.336 178.892 288.49 179.182 288.583 179.494C288.645 179.674 288.645 179.869 288.583 180.049C288.561 180.176 288.498 180.293 288.404 180.382C288.359 180.434 288.307 180.48 288.25 180.518L291.384 178.708C291.51 178.638 291.614 178.535 291.683 178.409C291.733 178.29 291.759 178.162 291.759 178.033C291.759 177.904 291.733 177.777 291.683 177.658C291.683 177.658 291.683 177.658 291.683 177.658C291.615 177.446 291.517 177.244 291.393 177.06C291.231 176.817 291.048 176.588 290.846 176.377L287.746 178.196Z" fill="#8E82F0"/>
<path d="M287.721 178.161C289.352 179.869 288.78 181.022 286.44 180.723L273.34 179.212V163.216L287.721 178.161Z" fill="#8E82F0"/>
<path d="M287.721 178.161C288.755 179.238 288.9 180.092 288.285 180.51L291.419 178.7C292.077 178.29 291.932 177.419 290.89 176.325L276.5 161.406L273.331 163.242L287.721 178.161Z" fill="#8E82F0"/>
<path opacity="0.15" d="M287.746 178.196C287.887 178.332 288.015 178.481 288.131 178.64C288.329 178.897 288.482 179.185 288.583 179.494C288.634 179.675 288.634 179.867 288.583 180.049C288.558 180.175 288.496 180.291 288.404 180.382C288.359 180.434 288.307 180.48 288.25 180.518L291.384 178.708C291.51 178.638 291.614 178.535 291.683 178.409C291.733 178.29 291.759 178.162 291.759 178.033C291.759 177.904 291.733 177.777 291.683 177.658C291.683 177.658 291.683 177.658 291.683 177.658C291.611 177.447 291.514 177.246 291.393 177.06C291.231 176.817 291.048 176.588 290.846 176.377L287.746 178.196Z" fill="black"/>
<path opacity="0.4" d="M273.332 163.216L287.722 178.161L290.898 176.325L276.5 161.406L273.332 163.216Z" fill="white"/>
<path d="M199.529 157.7L196.643 162.636C196.643 162.636 177.735 152.61 176.667 151.295C175.6 149.979 175.668 147.324 175.506 145.889C175.241 143.498 176.121 141.439 176.249 140.577C176.505 138.741 173.866 139.168 173.029 139.894C172.48 140.479 172.022 141.144 171.672 141.866C171.262 142.55 170.493 144.779 169.707 144.915C169.093 145.026 167.871 144.155 167.367 143.779C165.292 142.208 164.011 140.03 162.414 138.041C162.13 137.612 161.734 137.27 161.27 137.05C160.862 136.969 160.441 136.981 160.039 137.086C159.636 137.191 159.263 137.386 158.947 137.656C158.274 138.033 157.691 138.551 157.239 139.176C156.963 139.645 156.767 140.155 156.658 140.688C155.804 144.309 157.666 147.366 159.861 150.082C162.064 152.753 164.675 155.059 167.598 156.914C169.306 158.041 171.595 159.04 173.576 160.099C175.557 161.158 196.788 178.947 199.76 176.932C203.312 174.168 206.495 170.959 209.23 167.384" fill="#FFA8A7"/>
<path d="M60.0532 126.845C53.2212 126.845 49.6344 128.894 46.7991 135.205C44.0834 141.243 35.6544 158.759 36.0729 163.003C36.4914 167.247 53.8019 185.318 53.8019 185.318L58.7466 179.34L48.0204 161.321L58.5843 146.034L60.0532 126.845Z" fill="#FFA8A7"/>
<path d="M76.6384 312.701C76.6384 312.701 75.8699 315.032 75.4514 317.082C75.1183 318.704 74.6486 321.411 75.2208 322.633C75.793 323.854 78.0048 324.64 81.4379 324.614C83.6669 324.614 87.1341 326.108 89.5082 327.441C91.8823 328.773 97.0661 329.354 99.6623 329.046C102.72 328.688 105.888 326.911 106.383 325.63C106.879 324.349 107.297 322.633 99.0133 319.977C98.9449 319.977 88.9958 316.714 85.5115 312.863L76.6384 312.701Z" fill="#263238"/>
<path d="M76.6377 312.931L78.2176 312.735L85.5107 312.88C88.995 316.732 98.9441 319.977 99.0124 319.994L100.336 320.438C101.779 321.599 100.558 323.572 97.1422 323.854C93.7262 324.136 83.0768 320.575 80.7198 319.439C79.4833 318.865 78.4397 317.944 77.7153 316.789C76.9908 315.634 76.6165 314.294 76.6377 312.931Z" fill="#FFA8A7"/>
<path d="M76.6378 309.797C76.6378 309.797 76.6378 311.787 76.6378 312.931C76.6378 314.076 77.97 315.767 81.4544 315.638C83.8969 315.553 85.6049 314.895 85.511 312.88V310.002L76.6378 309.797Z" fill="#FFA8A7"/>
<path d="M53.2555 299.609C52.6321 299.865 52.504 301.078 52.4784 303.477C52.4784 305.288 52.1453 308.465 54.2889 309.046C56.4324 309.626 59.5324 309.208 60.8476 307.466C62.4872 305.288 63.5889 303.375 65.9716 300.702C68.0126 298.388 70.2416 296.218 70.9931 293.016C71.6848 290.129 70.9931 288.908 69.0374 288.122C67.0818 287.337 65.2798 287.986 62.547 290.266C61.7846 290.782 60.9686 291.215 60.1131 291.556C58.2941 292.128 53.8875 299.353 53.2555 299.609Z" fill="#263238"/>
<path d="M53.1954 297.388L53.2808 300.335C53.2808 300.335 55.245 304.186 60.7191 300.335C60.8387 300.044 61.334 294.357 61.334 294.357L53.1954 297.388Z" fill="#FFA8A7"/>
<path d="M60.0877 291.573C60.9431 291.232 61.7592 290.799 62.5216 290.283C64.7248 289.574 69.3535 290.394 67.2783 293.605C65.5396 296.245 63.3137 298.529 60.7197 300.335C58.2431 301.556 57.3806 300.044 57.3806 300.044L58.2345 293.135C58.7271 292.482 59.3604 291.948 60.0877 291.573Z" fill="#FFA8A7"/>
<path d="M49.199 256.67C50.2921 247.011 52.3844 241.434 52.3844 241.434C52.3844 241.434 50.5312 228.436 49.0794 215.977C45.6634 186.71 47.935 186.24 52.0684 176.061C52.0684 176.061 89.5845 171.235 91.1559 186.838C93.1116 206.267 92.2234 243.945 91.8989 250.837C91.5743 257.729 91.0449 260.846 88.9611 275.278C87.4069 286.269 85.9294 310.292 85.9294 310.292C81.0104 313.128 76.2793 309.797 76.2793 309.797C76.2793 309.797 71.5737 280.257 71.6847 272.306C71.7806 266.421 72.6418 260.573 74.2467 254.91C74.2467 254.91 71.0528 223.244 70.2415 218.188C70.2415 218.188 69.3362 228.291 69.0032 235.183C68.6701 242.075 66.8084 248.693 65.1602 261.529C63.734 272.631 61.3599 295.885 61.3599 295.885C56.4409 298.721 53.0078 297.44 53.0078 297.44C53.0078 297.44 48.1144 266.32 49.199 256.67Z" fill="#8E82F0"/>
<path d="M75.9292 120.525L74.5543 135.111L61.7443 134.3L62.7691 118.125L75.9292 120.525Z" fill="#FFA8A7"/>
<path d="M50.2319 133.036C51.5385 129.176 54.1859 126.913 60.0529 126.845L62.2135 126.913C62.6234 129.065 68.9345 130.807 75.1687 128.621C76.0227 128.852 78.4566 129.296 79.8145 129.475L82.8035 129.91C87.3382 131.396 89.3451 139.304 89.7806 151.781C90.2162 164.258 92.0864 191.014 92.0864 191.014C92.0864 191.014 82.3252 196.241 66.9191 194.217C53.127 192.406 47.7638 184.251 48.2421 185.292C49.859 178.371 52.2481 171.654 55.3644 165.266C48.1054 147.409 48.3019 138.766 50.2319 133.036Z" fill="#455A64"/>
<path d="M74.5542 194.661C72.0016 194.688 69.4503 194.534 66.9194 194.2C54.3486 192.551 48.7805 185.66 48.2596 185.207C49.8748 178.31 52.2581 171.615 55.3648 165.249C51.6926 156.231 49.9334 149.57 49.3356 144.437C49.9334 148.178 55.4588 162.661 62.6922 167.008C62.6922 167.008 58.6101 167.64 55.1172 172.44C51.6243 177.239 54.4938 193.627 74.5542 194.661Z" fill="#37474F"/>
<path d="M79.7692 129.518C85.7912 130.267 90.977 131.334 93.1823 137.24C96.0918 145.283 100.547 152.678 106.296 159.011C110.044 163.009 125.412 170.651 128.87 170.072C132.328 169.494 135.436 164.561 137.214 165.582C138.992 166.604 135.104 170.129 135.319 171C135.534 171.871 141.765 170.049 144.708 167.952C147.65 165.854 149.412 171.855 145.577 176.354C141.742 180.852 134.552 181.215 126.726 179.667C118.901 178.118 104.597 173.498 98.9082 168.213C91.4489 161.266 90.0843 157.485 86.8455 151.496C76.5491 143.538 79.7692 129.518 79.7692 129.518Z" fill="#FFA8A7"/>
<path d="M82.6332 102.412C82.6332 102.412 87.4668 96.6472 83.6751 91.0278C79.2001 84.4008 71.3262 82.1633 61.5906 85.0498C56.774 86.476 49.6944 93.1372 49.3357 102.48C49.0624 109.679 69.251 114.436 68.9265 119.372L82.6332 102.412Z" fill="#263238"/>
<path d="M85.3995 104.521C85.3995 104.521 88.2348 108.791 87.8676 109.269C87.2022 109.706 86.465 110.021 85.6899 110.2L85.3995 104.521Z" fill="#F28F8F"/>
<path d="M76.7662 90.9339C79.5246 92.3601 84.2899 94.9904 85.5197 105.153C86.7751 115.58 84.4522 119.201 83.0345 120.568C82.0695 121.49 77.1163 121.823 74.4945 121.02C71.2579 120.021 64.2465 116.562 60.9757 111.182C57.1156 104.846 56.3214 96.408 60.7793 93.0945C67.0904 88.4402 74.4348 89.7297 76.7662 90.9339Z" fill="#FFA8A7"/>
<path d="M77.5773 91.378C77.5773 91.378 79.9856 100.892 77.1076 106.904C77.1076 106.904 75.3996 103.189 72.2313 104.256C69.063 105.324 69.3106 109.611 71.8385 111.797C72.4834 112.426 73.2934 112.86 74.1746 113.047C75.0559 113.234 75.9722 113.168 76.8173 112.856C76.8173 112.856 76.7319 118.125 72.2313 120.209C72.2313 120.209 62.8373 124.71 54.2973 115.623C46.6113 107.373 47.5764 92.565 58.9431 88.816C70.3098 85.0669 77.5773 91.378 77.5773 91.378Z" fill="#263238"/>
<path d="M39.335 131.516C41.1269 131.516 42.9013 131.162 44.5562 130.475C46.2111 129.788 47.714 128.78 48.9787 127.511C50.2435 126.241 51.2451 124.735 51.9262 123.077C52.6073 121.42 52.9544 119.644 52.9477 117.852V100.396C49.3396 100.396 45.8793 101.83 43.3281 104.381C40.7768 106.932 39.3435 110.392 39.3435 114L39.335 131.516Z" fill="#263238"/>
<path d="M84.9044 87.108C89.1318 91.378 89.3709 103.855 77.1074 106.912L69.0712 84.8876C73.7512 81.8388 81.1298 83.2479 84.9044 87.108Z" fill="#263238"/>
<path d="M78.3374 110.303C78.6447 110.201 78.9284 110.038 79.1719 109.824C79.4153 109.611 79.6136 109.351 79.7549 109.059C79.8962 108.768 79.9778 108.451 79.9947 108.128C80.0117 107.805 79.9637 107.481 79.8536 107.177C79.7436 106.872 79.5736 106.593 79.3538 106.355C79.1341 106.117 78.8689 105.926 78.5739 105.792C78.279 105.658 77.9602 105.585 77.6365 105.576C77.3128 105.568 76.9907 105.624 76.6891 105.742L78.3374 110.303Z" fill="#263238"/>
<path opacity="0.1" d="M70.2241 218.205L68.1831 205.148C64.072 204.656 60.1159 203.281 56.5858 201.117C56.5858 201.117 59.1478 204.968 65.8944 206.574L67.9781 221.698L68.8321 237.54L70.2241 218.205Z" fill="black"/>
</svg>
