<svg width="350" height="293" viewBox="0 0 350 293" fill="none" xmlns="http://www.w3.org/2000/svg">
<g clip-path="url(#clip0)">
<path opacity="0.1" d="M248.75 292.425C268.497 292.425 284.506 290.843 284.506 288.892C284.506 286.94 268.497 285.358 248.75 285.358C229.002 285.358 212.994 286.94 212.994 288.892C212.994 290.843 229.002 292.425 248.75 292.425Z" fill="#6C63FF"/>
<path opacity="0.1" d="M153.235 4.27751C168.983 -1.59007 188.154 3.45626 204.526 10.8161C255.946 33.9369 293.406 77.8266 323.169 122.541C333.945 138.732 344.181 155.636 348.232 173.71C356.481 210.499 334.967 248.584 298.378 261.93C285.935 266.473 272.265 268.336 258.574 269.374C234.229 271.222 209.023 270.489 184.873 263.642C167.651 258.75 151.359 250.88 135.733 242.185C92.095 217.89 52.2427 186.34 23.5467 147.801C10.961 130.897 0.313767 111.84 0.0069697 92.3365C-0.299828 72.8327 12.38 53.2345 33.2422 49.9181C41.8674 48.5482 50.9911 49.974 59.8917 51.4418C72.9968 53.605 86.2798 55.88 99.235 54.9365C112.619 53.9544 130.026 48.7124 132.467 35.9044C135.05 22.1528 137.508 10.1381 153.235 4.27751Z" fill="#6C63FF"/>
<path d="M85.0735 268.675C85.0735 268.675 101.899 267.658 99.9148 279.477C99.9148 279.477 100.309 281.574 98.4192 282.514C98.4192 282.514 98.3913 281.636 96.6934 281.934C96.0904 282.037 95.477 282.068 94.8666 282.024C94.0411 281.967 93.2567 281.642 92.6319 281.098C92.6319 281.098 87.9009 279.141 86.0636 271.39C86.0636 271.39 84.7005 269.702 84.7562 269.265L87.5941 270.482C87.5941 270.482 86.6249 272.536 87.3884 274.242C87.3884 274.242 87.4791 270.558 88.0264 270.642C88.1345 270.66 89.5011 271.341 89.5011 271.341C89.5011 271.341 87.8312 274.916 89.0898 277.516C89.0898 277.516 88.6121 273.109 90.0206 271.6L92.0218 272.771C92.0218 272.771 90.0694 276.464 91.3942 279.477C91.3942 279.477 91.0456 274.853 92.4401 273.054L94.253 274.451C94.253 274.451 92.4192 278.093 93.5383 280.595C93.5383 280.595 93.6813 275.21 94.6435 274.804C94.6435 274.804 96.2298 276.202 96.4703 276.782C96.4703 276.782 95.2152 279.424 95.9927 280.819C95.9927 280.819 96.4703 277.233 96.8643 277.216C96.8643 277.216 98.4401 279.592 98.6074 281.221C98.6074 281.221 98.5377 278.799 97.2443 276.989C97.2443 276.989 98.7713 277.251 99.6638 278.243C99.6638 278.243 99.4163 276.562 96.8573 276.415C96.8573 276.415 95.5534 274.616 95.2013 274.504C95.2013 274.504 97.7498 274.291 99.2943 274.979C99.2943 274.979 97.9346 273.393 94.7341 274.112L92.9456 272.652C92.9456 272.652 96.303 272.19 97.7219 272.701C97.7219 272.701 96.0868 271.303 92.4645 272.32L90.5191 271.152C90.5191 271.152 93.3779 270.534 95.0828 270.758C95.0828 270.758 93.2838 269.786 89.9474 270.838L88.5529 270.212C88.5529 270.212 90.6447 269.8 91.2617 269.734C91.8788 269.667 91.9067 269.5 91.9067 269.5C90.5797 269.277 89.2169 269.428 87.9706 269.936C87.9706 269.936 85.0212 268.877 85.0735 268.675Z" fill="#6C63FF"/>
<path opacity="0.1" d="M96.6621 285.561C103.239 285.561 108.571 284.658 108.571 283.545C108.571 282.431 103.239 281.528 96.6621 281.528C90.0848 281.528 84.7528 282.431 84.7528 283.545C84.7528 284.658 90.0848 285.561 96.6621 285.561Z" fill="#6C63FF"/>
<path d="M62.5343 260.724C62.5343 260.724 72.0207 260.151 70.9016 266.816C70.9607 267.153 70.9111 267.501 70.7601 267.809C70.6091 268.117 70.3644 268.369 70.0613 268.528C70.0613 268.528 70.0439 268.035 69.0887 268.203C68.7491 268.261 68.4037 268.278 68.0602 268.252C67.5936 268.223 67.1498 268.04 66.7981 267.731C66.7981 267.731 64.1346 266.623 63.0887 262.255C63.0887 262.255 62.3217 261.301 62.3496 261.056L63.9533 261.755C63.9533 261.755 63.4059 262.916 63.8347 263.877C63.8347 263.877 63.887 261.797 64.1834 261.846C64.2461 261.846 65.0166 262.248 65.0166 262.248C65.0166 262.248 64.0753 264.265 64.7865 265.743C64.7865 265.743 64.5146 263.258 65.3095 262.405L66.4356 263.066C66.4356 263.066 65.3374 265.163 66.0869 266.847C66.0869 266.847 65.8952 264.24 66.6761 263.227L67.6976 264.023C67.6976 264.023 66.6517 266.075 67.2967 267.487C67.2967 267.487 67.3769 264.45 67.9207 264.223C67.9207 264.223 68.8132 265.012 68.9492 265.337C68.9492 265.337 68.2519 266.826 68.6808 267.612C68.6808 267.612 68.9492 265.592 69.1723 265.582C69.1723 265.582 70.0613 266.92 70.152 267.84C70.1075 266.991 69.8432 266.168 69.385 265.453C69.8979 265.547 70.3719 265.79 70.7482 266.152C70.7482 266.152 70.6122 265.205 69.1654 265.121C69.1654 265.121 68.4297 264.104 68.2345 264.044C68.2345 264.044 69.6709 263.922 70.5425 264.31C70.5425 264.31 69.7755 263.415 67.9695 263.821L66.962 262.996C66.962 262.996 68.8551 262.737 69.6569 263.024C69.6569 263.024 68.733 262.234 66.69 262.811L65.5953 262.15C66.4387 261.966 67.3024 261.892 68.1648 261.93C68.1648 261.93 67.1537 261.381 65.2711 261.975L64.4867 261.626C64.4867 261.626 65.6686 261.392 66.0137 261.357C66.3589 261.322 66.3798 261.224 66.3798 261.224C65.6308 261.1 64.8622 261.186 64.159 261.472C64.159 261.472 62.5064 260.84 62.5343 260.724Z" fill="#6C63FF"/>
<path opacity="0.1" d="M69.0678 270.244C72.7762 270.244 75.7824 269.734 75.7824 269.105C75.7824 268.475 72.7762 267.965 69.0678 267.965C65.3593 267.965 62.3531 268.475 62.3531 269.105C62.3531 269.734 65.3593 270.244 69.0678 270.244Z" fill="#6C63FF"/>
<path d="M295.913 267.13C295.913 267.13 307.366 266.431 306.023 274.469C306.092 274.877 306.031 275.297 305.848 275.668C305.665 276.04 305.37 276.344 305.005 276.538C305.005 276.538 304.984 275.94 303.83 276.143C303.419 276.213 303.002 276.233 302.586 276.202C302.024 276.166 301.49 275.945 301.066 275.573C301.066 275.573 297.844 274.242 296.593 268.965C296.593 268.965 295.665 267.815 295.704 267.521L297.635 268.346C297.635 268.346 296.976 269.744 297.496 270.908C297.496 270.908 297.559 268.399 297.928 268.462C298.005 268.462 298.932 268.944 298.932 268.944C298.932 268.944 297.796 271.39 298.653 273.137C298.653 273.137 298.329 270.139 299.288 269.112L300.647 269.905C300.647 269.905 299.319 272.421 300.222 274.472C300.222 274.472 299.988 271.327 300.919 270.101L302.153 271.065C302.153 271.065 300.905 273.543 301.665 275.259C301.665 275.259 301.767 271.596 302.422 271.317C302.422 271.317 303.499 272.271 303.663 272.662C303.663 272.662 302.809 274.462 303.339 275.413C303.339 275.413 303.663 272.966 303.932 272.966C303.932 272.966 305.005 274.584 305.117 275.692C305.065 274.668 304.746 273.675 304.193 272.812C304.813 272.93 305.385 273.226 305.839 273.665C305.839 273.665 305.671 272.522 303.925 272.421C303.925 272.421 303.039 271.194 302.802 271.121C302.802 271.121 304.545 270.974 305.591 271.443C305.591 271.443 304.664 270.366 302.485 270.855L301.268 269.859C301.268 269.859 303.552 269.545 304.521 269.891C304.521 269.891 303.405 268.937 300.94 269.632L299.615 268.839C299.615 268.839 301.561 268.42 302.722 268.57C302.722 268.57 301.498 267.909 299.235 268.626L298.287 268.199C298.287 268.199 299.713 267.916 300.131 267.874C300.55 267.833 300.571 267.714 300.571 267.714C299.668 267.563 298.741 267.666 297.893 268.011C297.893 268.011 295.878 267.263 295.913 267.13Z" fill="#6C63FF"/>
<path opacity="0.1" d="M303.799 278.628C308.276 278.628 311.905 278.013 311.905 277.254C311.905 276.496 308.276 275.881 303.799 275.881C299.322 275.881 295.693 276.496 295.693 277.254C295.693 278.013 299.322 278.628 303.799 278.628Z" fill="#6C63FF"/>
<path d="M284.502 182.29C284.283 181.059 284.156 179.814 284.122 178.564C284.122 177.065 282.09 175.737 282.09 175.737C282.09 175.737 280.835 172.826 279.998 172.396C279.161 171.966 276.578 168.157 276.578 168.157C276.548 167.406 276.275 166.685 275.8 166.102C275.026 165.082 274.32 164.013 273.684 162.901C273.335 162.475 273.51 162.174 272.987 159.69C272.959 159.56 272.928 159.434 272.889 159.316C272.889 159.26 272.854 159.211 272.833 159.155C273.388 158.597 273.775 157.893 273.95 157.125C274.124 156.357 274.079 155.555 273.82 154.811C273.726 154.515 273.555 154.25 273.325 154.042C272.736 153.56 271.795 153.759 271.188 153.301L271.833 150.443C271.986 149.744 272.066 148.86 271.456 148.482C271.227 148.373 270.986 148.292 270.738 148.241C269.692 147.892 269.086 146.784 268.814 145.718C268.552 144.691 268.481 143.625 268.605 142.573C268.723 141.559 269.019 140.574 269.127 139.557C269.324 137.676 268.873 135.784 267.848 134.196C267.45 133.511 266.862 132.955 266.157 132.595C265.512 132.305 264.763 132.246 264.159 131.896C262.863 131.068 262.929 129.101 261.893 127.972C260.858 126.843 259.024 126.847 257.515 127.234C256.005 127.622 254.502 128.283 252.954 128.119C251.957 128.007 251.023 127.552 250.022 127.448C249.736 127.42 249.447 127.433 249.165 127.486V127.455C248.426 127.587 247.746 128 247.571 128.702C247.532 128.869 247.516 129.041 247.523 129.212C247.523 129.621 247.62 130.048 247.627 130.439C247.64 130.595 247.622 130.751 247.573 130.899C247.525 131.048 247.447 131.185 247.345 131.302C247.146 131.515 246.853 131.627 246.648 131.847C246.564 131.932 246.498 132.032 246.454 132.143C246.41 132.253 246.39 132.372 246.393 132.49C246.393 133.113 247.167 133.661 247.687 133.913H247.707C247.568 134.053 247.429 134.199 247.3 134.35C245.81 136.035 244.989 138.21 244.992 140.462C245.004 142.281 245.547 144.056 246.553 145.57C247.559 147.083 248.984 148.269 250.653 148.982L250.58 149.209C250.433 149.658 250.262 150.099 250.068 150.53C249.707 150.408 249.324 150.367 248.946 150.41C248.568 150.452 248.203 150.576 247.878 150.775C246.881 151.474 244.932 151.418 244.413 151.288C243.893 151.159 238.486 150.474 238.05 150.645C237.615 150.817 236.753 150.048 236.192 151.075C235.631 152.103 235.369 152.658 234.798 152.917C234.226 153.176 233.239 153.986 233.372 154.158C233.504 154.329 231.942 155.356 231.942 155.356C231.942 155.356 230.6 156.754 229.823 156.939C229.045 157.125 227.4 158.183 227.4 158.183L225.493 159.679C225.493 159.679 224.067 159.896 224.499 158.91C224.931 157.925 223.718 156.684 223.718 156.684C223.718 156.684 221.295 151.76 221.295 150.743C221.295 149.726 219.304 145.389 219.304 145.389L219.06 145.365L218.949 145.047C218.583 144.016 218.108 142.751 217.746 142.01C217.049 140.595 216.62 140.448 216.62 140.448C216.62 140.448 208.225 134.129 202.772 136.055C197.319 137.981 212.726 143.719 214.11 144.32C214.594 144.53 214.943 145.208 215.187 146.001C213.959 146.595 212.925 147.527 212.206 148.688C212.206 148.688 215.539 156.094 215.626 157.935C215.713 159.777 217.92 164.925 217.92 164.925C217.92 164.925 218.743 168.737 223.199 168.521C223.199 168.521 229.345 169.653 230.687 168.521C232.029 167.388 233.239 166.501 233.891 166.371C234.371 166.214 234.792 165.915 235.101 165.515C235.101 165.515 233.068 178.358 232.071 179.473C231.074 180.588 222.264 195.007 225.426 197.586C227.931 199.53 230.577 201.282 233.344 202.828C233.612 202.961 234.418 201.615 235.568 200.661C235.568 200.902 235.568 201.147 235.568 201.406C235.589 206.536 236.265 214.336 237.2 216.083C238.594 218.652 238.022 223.618 238.022 223.618C238.756 223.964 239.552 224.155 240.362 224.181C240.404 224.348 240.452 224.53 240.498 224.705C241.261 227.595 242.499 232.065 243.13 233.253C244.082 235.052 244.772 240.749 244.772 240.749C244.772 240.749 245.337 246.34 245.121 247.127C245.037 247.424 245.403 249.751 245.978 252.718C245.63 256.734 244.967 264.474 244.856 267.273C244.856 267.326 244.856 267.378 244.856 267.427V267.476C244.857 267.508 244.857 267.539 244.856 267.571C244.856 267.633 244.856 267.689 244.856 267.742C244.845 267.918 244.852 268.095 244.877 268.269C244.92 268.536 244.899 268.809 244.817 269.066C244.571 269.84 244.257 270.591 243.879 271.31C243.721 271.663 243.581 272.025 243.461 272.393C243.112 272.547 242.687 272.921 242.45 273.833C242.018 275.503 241.369 280.123 241.369 280.123C241.369 280.123 241.108 282.951 240.592 283.594C240.076 284.237 239.546 288.259 243.231 288.773C246.916 289.286 248.509 286.816 248.509 286.816L248.38 275.605V275.584C248.455 275.49 248.519 275.388 248.572 275.28V275.252C248.596 275.199 248.624 275.144 248.649 275.081L248.68 274.997L248.736 274.86C248.734 274.844 248.734 274.828 248.736 274.812C249.094 273.738 249.201 272.596 249.05 271.474V271.418V271.331C249.05 271.303 249.05 271.271 249.05 271.243V271.069C249.05 271.048 249.05 271.023 249.05 271.002C249.05 270.928 249.057 270.851 249.071 270.772C249.071 270.772 249.071 270.744 249.071 270.73L249.092 270.593V270.534C249.092 270.489 249.092 270.443 249.119 270.394C249.118 270.383 249.118 270.371 249.119 270.359C249.154 270.199 249.196 270.01 249.241 269.856V269.818L249.294 269.65C249.346 269.472 249.405 269.3 249.468 269.112V269.077C249.468 269.021 249.506 268.965 249.527 268.912V268.892C249.59 268.72 249.656 268.542 249.719 268.395L249.737 268.35L249.792 268.21L249.81 268.168L249.942 267.857L250.964 271.02C250.964 271.02 251.528 273.375 251.225 273.931C250.922 274.487 251.574 276.8 252.003 276.842L251.602 279.753C251.385 281.358 251.256 282.974 251.215 284.593C251.187 284.778 251.159 284.943 251.138 285.054C250.859 286.547 251.528 288.86 251.528 288.86C254.945 292.91 259.017 289.175 259.017 289.175C259.017 289.175 259.491 287.032 259.017 286.606C258.543 286.18 258.756 284.635 258.756 284.635C258.756 284.635 258.972 280.822 259.014 278.041C259.055 275.259 256.744 272.799 256.744 272.799L256.615 272.914C256.193 271.824 255.712 270.551 255.813 269.982C255.987 268.996 255.336 258.593 255.336 258.593C255.576 255.804 255.628 253.001 255.489 250.205C255.545 249.734 255.597 249.269 255.649 248.808C255.911 246.571 256.123 244.659 256.207 243.656V243.538C256.228 243.268 256.239 243.076 256.235 242.985C256.235 242.636 256.235 242.238 256.27 241.801C256.35 240.599 256.538 239.26 256.538 239.26L257.445 233.735C257.445 233.735 258.142 231.037 259.136 229.541L259.254 229.353C259.293 229.286 259.331 229.213 259.373 229.136L259.39 229.105C259.429 229.031 259.47 228.954 259.509 228.874L259.526 228.842C259.666 228.566 259.815 228.248 259.972 227.899C259.972 227.871 259.997 227.846 260.007 227.818L260.126 227.553C260.126 227.518 260.154 227.483 260.171 227.448C260.189 227.413 260.244 227.27 260.283 227.182C260.3 227.147 260.315 227.111 260.328 227.074C260.373 226.969 260.422 226.861 260.467 226.749L260.534 226.588C260.565 226.508 260.6 226.428 260.635 226.347L260.718 226.134C260.743 226.082 260.764 226.029 260.785 225.977L260.879 225.736C260.879 225.701 260.91 225.662 260.924 225.627C261.172 225.009 261.409 224.397 261.621 223.842C261.688 223.667 261.754 223.492 261.813 223.338C264.03 223.475 265.537 223.597 265.537 223.597C265.537 223.597 266.234 218.589 266.011 215.294C265.864 213.043 266.283 210.212 266.558 208.654C266.589 208.482 266.617 208.329 266.645 208.189L266.704 208.238C267.789 209.094 268.566 206.267 268.566 206.267C268.566 206.267 268.273 203.628 267.869 200.431L267.827 200.113C268.452 200.246 269.084 200.343 269.72 200.403C269.72 200.403 270.069 200.371 270.546 200.312C271.868 201.079 273.262 201.711 274.709 202.199L277.014 197.935C277.447 197.052 277.954 196.206 278.53 195.409C279.227 194.553 281.689 191.813 281.647 191.299C281.605 190.785 282.47 187.829 283.334 186.501C284.199 185.173 284.544 182.503 284.502 182.29ZM274.894 185.543C273.984 185.928 273.119 188.07 273.078 188.713C273.036 189.356 272.08 192.18 271.087 192.522C270.17 192.837 268.42 194.451 268.141 194.71C267.855 194.734 267.531 194.773 267.193 194.829C266.813 192.127 266.436 189.891 266.195 189.44C265.498 188.154 266.959 184.044 266.959 184.044C266.959 184.044 267.102 179.892 268.005 178.907C268.908 177.921 268.702 175.437 268.702 175.437C268.702 175.437 268.918 174.409 269.005 173.941C269.093 173.473 270.292 173.941 270.302 173.941C270.302 173.941 272.638 175.223 272.987 177.149C273.335 179.075 275.887 182.416 275.887 182.416C275.887 182.416 275.497 183.572 275.887 184.163C276.278 184.753 275.804 185.159 274.894 185.543Z" fill="url(#paint0_linear)"/>
<path d="M212.304 148.95C213.014 147.775 214.055 146.836 215.295 146.251C216.535 145.665 217.92 145.459 219.276 145.658V150.659H216.247L213.876 150.058L212.304 148.95Z" fill="#4C4981"/>
<path opacity="0.1" d="M212.304 148.95C213.014 147.775 214.055 146.836 215.295 146.251C216.535 145.665 217.92 145.459 219.276 145.658V150.659H216.247L213.876 150.058L212.304 148.95Z" fill="black"/>
<path d="M219.503 146.983L215.79 149.59C215.79 149.59 215.759 149.069 215.665 148.356C215.48 147.007 215.065 144.984 214.169 144.593C212.806 143.991 197.63 138.267 203.013 136.342C208.396 134.416 216.655 140.727 216.655 140.727C216.655 140.727 217.08 140.874 217.76 142.283C218.109 143.023 218.586 144.285 218.945 145.316C219.276 146.246 219.503 146.983 219.503 146.983Z" fill="#AE6E79"/>
<path d="M249.165 150.998L249.587 150.799L250.772 152.155L249.803 154.227L248.15 153.563L248.534 151.907L249.165 150.998Z" fill="#4C4981"/>
<path d="M243.548 272.372C243.548 272.372 242.482 272.246 242.056 273.913C241.631 275.58 240.989 280.204 240.989 280.204C240.989 280.204 240.735 283.024 240.222 283.667C239.71 284.31 239.201 288.326 242.823 288.836C246.446 289.346 248.025 286.882 248.025 286.882L247.896 275.675L243.548 272.372Z" fill="#444053"/>
<path d="M256.19 272.875C256.19 272.875 258.47 275.322 258.428 278.096C258.386 280.871 258.17 284.677 258.17 284.677C258.17 284.677 257.961 286.218 258.428 286.644C258.895 287.071 258.428 289.21 258.428 289.21C258.428 289.21 254.419 292.938 251.051 288.895C251.051 288.895 250.395 286.585 250.667 285.096C250.939 283.608 251.699 276.915 251.699 276.915L256.19 272.875Z" fill="#444053"/>
<path d="M261.838 221.773C261.838 221.773 259.537 228.224 258.554 229.72C257.57 231.215 256.894 233.913 256.894 233.913L255.998 239.424C255.823 240.657 255.723 241.898 255.698 243.143C255.74 244.383 253.481 262.458 253.481 262.458L249.9 267.032C249.9 267.032 248.325 270.237 248.579 271.575C248.834 272.914 248.408 275.039 247.882 275.678C247.882 275.678 247.798 279.872 247.669 280.805C247.54 281.738 248.14 284.397 247.669 284.866C247.199 285.334 240.934 285.124 240.763 284.352C240.592 283.58 241.53 279.865 241.53 279.865L242.084 276.276C242.084 276.276 243.193 274.312 242.938 273.669C242.684 273.026 243.405 271.533 243.447 271.404C243.489 271.275 244.643 269.182 244.43 268.371C244.218 267.56 245.773 250.317 245.773 250.317L250.162 219.421L261.838 221.773Z" fill="#AE6E79"/>
<path opacity="0.1" d="M261.838 221.773C261.838 221.773 261.489 222.744 261.011 224.02C260.251 226.033 259.157 228.804 258.554 229.72C257.574 231.215 256.891 233.913 256.891 233.913L255.995 239.428C255.821 240.66 255.722 241.902 255.698 243.146C255.698 243.635 255.37 246.756 254.952 250.352C254.307 255.849 253.481 262.461 253.481 262.461L249.9 267.036C249.9 267.036 249.719 267.385 249.493 267.937C249.043 268.986 248.408 270.688 248.579 271.565C248.834 272.889 248.408 275.025 247.882 275.668C247.882 275.668 247.795 279.861 247.669 280.794C247.544 281.727 248.14 284.383 247.669 284.855C247.199 285.327 240.934 285.114 240.763 284.345C240.592 283.576 241.53 279.858 241.53 279.858L242.084 276.265C242.084 276.265 243.193 274.301 242.935 273.658C242.677 273.015 243.405 271.523 243.447 271.394C243.489 271.264 244.643 269.171 244.43 268.36C244.267 267.742 245.128 257.618 245.529 252.816C245.665 251.306 245.752 250.324 245.752 250.324L249.527 223.744L249.834 221.601L250.141 219.428L261.838 221.773Z" fill="black"/>
<path d="M258.003 286.043C258.041 286.515 251.989 287.2 251.124 286.686C250.259 286.173 251.124 279.805 251.124 279.805L251.518 276.901C251.096 276.856 250.455 274.549 250.751 273.994C251.047 273.438 250.497 271.09 250.497 271.09L249.492 267.944L248.879 266.019C247.882 263.814 246.438 257.523 245.543 252.826C244.978 249.877 244.619 247.553 244.699 247.256C244.911 246.487 244.35 240.889 244.35 240.889C244.35 240.889 243.653 235.203 242.733 233.41C242.108 232.222 240.892 227.759 240.139 224.879C239.755 223.401 239.49 222.339 239.49 222.339C239.49 222.339 245.933 221.797 249.841 221.608C251.637 221.521 252.899 221.511 252.752 221.657C252.606 221.804 252.567 222.587 252.574 223.719C252.592 226.651 253 231.809 253.432 233.197C254.028 235.119 254.624 240.885 254.37 241.444C254.115 242.003 254.199 245.718 254.199 245.718C254.638 247.227 254.891 248.785 254.952 250.356C255.088 253.139 255.04 255.928 254.806 258.704C254.806 258.704 255.444 269.091 255.273 270.073C255.102 271.055 256.636 274.133 256.636 274.731C256.636 275.329 257.061 279.389 257.061 279.389C257.061 279.389 257.975 285.575 258.003 286.043Z" fill="#AE6E79"/>
<path d="M261.367 161.213L260.635 162.007L260.157 162.524L257.368 165.529L250.162 166.343L246.327 165.316L245.379 165.061C245.379 165.061 245.379 163.132 245.549 160.818C245.794 157.851 246.376 154.248 247.767 153.266C248.463 152.72 249.019 152.014 249.388 151.208C249.666 150.652 249.899 150.075 250.085 149.482C250.113 149.405 250.134 149.331 250.158 149.254C250.472 148.219 250.698 147.158 250.835 146.085C250.835 146.085 251.755 145.575 253.035 144.98C256.371 143.418 262.134 141.262 260.129 146.085C259.835 146.791 259.583 147.515 259.376 148.251C259.345 148.36 259.317 148.468 259.293 148.573C258.623 151.257 259.066 152.885 259.565 153.784C259.649 153.939 259.746 154.088 259.854 154.227C259.99 154.415 260.153 154.581 260.339 154.72L261.168 160.001L261.238 160.437L261.367 161.213Z" fill="#AE6E79"/>
<path opacity="0.1" d="M260.133 146.343C259.753 147.259 260.317 145.596 260.133 146.343C258.613 147.427 255.032 150.513 253.021 150.513C251.661 150.513 251.253 150.264 250.089 149.737C250.441 148.631 250.692 147.495 250.838 146.343C250.838 146.343 262.904 139.676 260.133 146.343Z" fill="black"/>
<path d="M263.204 140.727C263.202 143.029 262.351 145.248 260.815 146.959C259.279 148.669 257.166 149.749 254.882 149.992C254.562 150.023 254.237 150.044 253.91 150.044C252.071 150.044 250.274 149.498 248.746 148.474C247.217 147.45 246.026 145.995 245.323 144.293C244.619 142.59 244.435 140.717 244.794 138.91C245.152 137.103 246.038 135.442 247.337 134.139C248.637 132.837 250.293 131.949 252.096 131.59C253.899 131.23 255.768 131.415 257.467 132.12C259.165 132.825 260.616 134.019 261.638 135.551C262.659 137.083 263.204 138.885 263.204 140.727Z" fill="#AE6E79"/>
<path opacity="0.1" d="M264.526 182.028L263.201 185.491C263.201 185.491 262.123 185.536 260.443 185.589C254.771 185.77 242.272 186.001 241.714 184.54C241.589 184.17 241.523 183.782 241.519 183.391C241.446 181.164 242.481 177.747 242.481 177.747C242.481 177.747 243.078 170.908 243.078 170.61C243.078 170.313 242.565 165.522 242.565 165.522L243.59 161.678L246.445 159.669C246.445 159.669 247.725 161.636 248.492 161.804C249.259 161.972 250.284 162.919 250.284 162.919C250.284 162.919 252.798 164.456 253.61 163.6C254.422 162.744 260.729 158.984 260.729 158.984L264.055 162.66L264.526 182.028Z" fill="black"/>
<path d="M264.526 182.559L263.201 186.019C263.201 186.019 262.123 186.068 260.443 186.12H260.279C259.554 186.144 258.724 186.169 257.839 186.186C253.331 186.291 247.122 186.319 243.876 185.837C242.656 185.662 241.857 185.411 241.725 185.068C241.651 184.862 241.6 184.649 241.572 184.432C241.551 184.271 241.537 184.083 241.53 183.918C241.456 181.692 242.492 178.274 242.492 178.274C242.492 178.274 243.088 171.435 243.088 171.138C243.088 170.841 242.576 166.05 242.576 166.05L243.601 162.206L245.563 160.829L246.456 160.2C246.756 160.65 247.083 161.082 247.436 161.493C247.711 161.863 248.079 162.154 248.502 162.335C249.273 162.506 250.294 163.45 250.294 163.45C250.294 163.45 252.808 164.988 253.62 164.131C254.237 163.478 258.072 161.126 259.843 160.053C260.387 159.721 260.739 159.515 260.739 159.515L261.186 160.011L264.065 163.191L264.526 182.559Z" fill="white"/>
<path opacity="0.1" d="M219.503 146.983L215.79 149.59C215.79 149.59 215.759 149.069 215.665 148.356C217.498 147.58 218.614 145.865 218.935 145.316C219.276 146.246 219.503 146.983 219.503 146.983Z" fill="black"/>
<path d="M232.549 155.831L231.74 155.615C231.74 155.615 230.415 157.013 229.648 157.198C228.881 157.383 227.264 158.435 227.264 158.435L225.384 159.931C225.384 159.931 223.99 160.147 224.405 159.162C224.82 158.176 223.638 156.939 223.638 156.939C223.638 156.939 221.25 152.026 221.25 150.998C221.25 149.971 219.276 145.658 219.276 145.658C219.276 145.658 216.801 150.488 212.283 148.95C212.283 148.95 215.567 156.342 215.651 158.18C215.734 160.018 217.91 165.145 217.91 165.145C217.91 165.145 218.722 168.951 223.111 168.737C223.111 168.737 229.167 169.866 230.488 168.737C231.81 167.609 233.002 166.721 233.626 166.592C234.25 166.462 234.819 165.739 234.819 165.739V160.658L232.549 155.831Z" fill="#4C4981"/>
<path opacity="0.1" d="M224.959 160.658C224.959 160.658 226.026 164.635 225.343 165.061L224.959 160.658Z" fill="black"/>
<path opacity="0.1" d="M260.443 186.102C254.771 186.284 242.272 186.511 241.715 185.054C241.589 184.684 241.524 184.295 241.519 183.904L260.049 184.883L260.443 186.102Z" fill="black"/>
<path opacity="0.1" d="M261.838 221.773C261.838 221.773 261.489 222.744 261.011 224.02C258.658 223.876 255.541 223.726 252.581 223.705C251.536 223.705 250.511 223.705 249.541 223.74C247.484 223.803 245.706 223.971 244.573 224.292C243.141 224.734 241.643 224.928 240.146 224.865C239.762 223.387 239.497 222.325 239.497 222.325C239.497 222.325 245.94 221.783 249.848 221.594L250.155 219.421L261.838 221.773Z" fill="black"/>
<path d="M266.827 206.13L266.101 207.668C266.101 207.668 266 208.126 265.871 208.853C265.599 210.418 265.174 213.242 265.334 215.493C265.547 218.785 264.864 223.782 264.864 223.782C264.864 223.782 249.175 222.458 244.573 223.782C239.971 225.107 237.705 223.782 237.705 223.782C237.705 223.782 238.263 218.827 236.896 216.262C235.966 214.514 235.31 206.714 235.289 201.584C235.289 199.218 235.408 197.425 235.704 197.062C236.642 195.908 240.648 184.369 240.648 184.369L241.561 184.418L244.002 184.547L257.877 185.281L260.056 185.396L260.286 186.095L266.827 206.13Z" fill="#444053"/>
<path d="M273.733 201L273.862 202.37C273.862 202.37 266.99 200.127 267.339 197.369C267.688 194.612 267.339 194.923 267.339 194.923L272.861 195.391L273.733 201Z" fill="#4C4981"/>
<path opacity="0.1" d="M273.733 201L273.862 202.37C273.862 202.37 266.99 200.127 267.339 197.369C267.688 194.612 267.339 194.923 267.339 194.923L272.861 195.391L273.733 201Z" fill="black"/>
<path opacity="0.1" d="M229.544 161.762C230.245 162.359 231.072 162.791 231.963 163.024C231.705 162.967 231.466 162.847 231.266 162.674C230.774 162.325 230.307 161.944 229.833 161.573C229.45 161.273 228.972 160.773 228.501 160.651C228.809 161.056 229.159 161.429 229.544 161.762Z" fill="black"/>
<path opacity="0.1" d="M229.648 163.562C229.869 163.812 230.048 164.096 230.178 164.404C230.398 165.274 230.385 166.186 230.14 167.049L229.038 164.386C228.846 163.932 228.655 163.478 228.425 163.045C228.323 162.859 227.689 162.087 227.762 161.926C227.957 161.472 229.443 163.307 229.648 163.562Z" fill="black"/>
<path opacity="0.1" d="M260.387 178.309C261.138 178.218 261.841 177.889 262.392 177.369C261.259 177.513 260.185 177.96 259.07 178.194C258.034 178.435 256.948 178.335 255.974 177.907C257.257 178.536 259.021 178.557 260.387 178.309Z" fill="black"/>
<path opacity="0.1" d="M257.183 170.485C256.98 170.515 256.773 170.463 256.608 170.341C255.757 169.852 254.918 169.342 254.091 168.811C253.286 168.29 252.313 167.762 251.626 167.105C253.317 168.636 254.893 169.929 257.183 170.485Z" fill="black"/>
<path opacity="0.1" d="M259.547 179.55C259.994 179.57 260.441 179.534 260.879 179.442C261.322 179.349 261.713 179.092 261.974 178.722C261.815 178.685 261.649 178.711 261.51 178.795C260.159 179.365 258.676 179.543 257.229 179.309C257.922 179.606 258.811 179.546 259.547 179.55Z" fill="black"/>
<path opacity="0.1" d="M251.473 199.393C250.585 199.661 249.673 199.84 248.75 199.927C248.032 199.961 247.312 199.947 246.595 199.885L243.109 199.665L241.366 199.553C241.16 199.553 240.32 199.553 240.735 199.138C240.944 198.935 242.108 199.064 242.408 199.054C242.987 199.035 243.568 199.025 244.151 199.022C245.305 199.022 246.463 199.022 247.617 199.092C248.91 199.155 250.183 199.253 251.473 199.393Z" fill="black"/>
<path opacity="0.1" d="M247.432 201.122C246.839 201.098 246.076 201.451 245.466 201.528C244.783 201.609 244.095 201.636 243.409 201.608C242.05 201.576 240.708 201.301 239.445 200.797C242.105 200.934 244.772 201.014 247.432 201.122Z" fill="black"/>
<path opacity="0.1" d="M239.964 202.954C240.222 203.006 240.476 203.076 240.724 203.164C242.196 203.583 243.761 203.212 245.257 202.842C244.884 203.405 244.211 203.646 243.538 203.8C242.443 204.078 241.303 204.119 240.191 203.922C239.842 203.852 238.967 203.726 238.796 203.363C238.511 202.828 239.637 202.901 239.964 202.954Z" fill="black"/>
<path opacity="0.1" d="M248.213 205.711C248.654 205.802 249.09 205.918 249.517 206.061C251.173 206.473 252.892 205.907 254.555 205.526C256.554 205.071 258.604 204.881 260.652 204.96C260.286 204.96 259.704 205.281 259.345 205.39C258.874 205.533 258.397 205.666 257.919 205.785C256.981 206.015 256.029 206.204 255.071 206.34C253.135 206.621 251.177 206.706 249.224 206.595C248.332 206.546 246.784 206.637 246.02 206.186C246.68 205.793 247.45 205.626 248.213 205.711Z" fill="black"/>
<path opacity="0.1" d="M248.837 153.004C248.837 153.004 248.921 156.939 248.283 158.736C248.081 159.295 247.767 160.326 247.425 161.482C247.052 162.765 246.644 164.201 246.33 165.326C246.017 166.452 245.807 167.207 245.807 167.207C245.807 167.207 244.368 178.963 243.995 184.565C243.995 184.663 243.995 184.764 243.974 184.858C243.953 185.173 243.918 185.501 243.866 185.84C243.036 191.404 238.249 199.983 236.642 200.668C236.141 200.899 235.683 201.214 235.289 201.601C235.289 199.235 235.408 197.443 235.704 197.079C236.642 195.926 240.648 184.387 240.648 184.387L241.561 184.435C241.54 184.275 241.526 184.086 241.519 183.922C241.446 181.696 242.481 178.278 242.481 178.278C242.481 178.278 243.078 171.439 243.078 171.142C243.078 170.845 242.565 166.053 242.565 166.053L243.59 162.209L245.553 160.832C245.797 157.865 246.379 154.262 247.77 153.28C248.467 152.734 249.023 152.028 249.391 151.222C249.667 151.26 249.165 151.016 249.165 151.016L248.837 153.004Z" fill="black"/>
<path d="M249.587 150.799C249.231 150.677 248.853 150.636 248.48 150.678C248.107 150.721 247.748 150.845 247.429 151.044C246.445 151.743 244.528 151.683 244.015 151.557C243.503 151.432 238.176 150.743 237.74 150.914C237.304 151.086 236.461 150.317 235.906 151.344C235.352 152.372 235.097 152.924 234.543 153.179C233.989 153.434 233.006 154.248 233.149 154.42C233.291 154.591 231.754 155.615 231.754 155.615L234.864 165.749C234.864 165.749 232.859 178.568 231.88 179.679C230.9 180.79 222.201 195.192 225.315 197.757C227.779 199.7 230.388 201.452 233.117 202.999C233.466 203.17 234.693 200.864 236.398 200.137C238.103 199.41 243.391 189.793 243.719 184.324C244.047 178.854 245.553 166.675 245.553 166.675C245.553 166.675 247.387 160.008 248.025 158.211C248.663 156.415 248.579 152.48 248.579 152.48L249.587 150.799Z" fill="#4C4981"/>
<path opacity="0.1" d="M266.827 206.13L266.101 207.668C266.101 207.668 266 208.126 265.871 208.853C265.742 208.836 265.621 208.782 265.523 208.696C264.456 207.839 258.201 201.388 257.891 195.66C257.671 191.435 257.776 187.794 257.846 186.172C257.867 185.662 257.888 185.355 257.888 185.288C257.888 185.288 262.748 179.389 262.193 177.299C261.639 175.209 260.359 164.02 260.359 164.02L260.171 162.552L259.847 160.071L259.073 154.067L259.875 154.255C260.011 154.443 260.174 154.609 260.359 154.748L261.189 160.029L264.069 163.209L264.54 182.569L263.215 186.029C263.215 186.029 262.137 186.078 260.457 186.13H260.293L266.827 206.13Z" fill="black"/>
<path d="M269.511 174.172C269.511 174.172 268.319 173.7 268.235 174.172C268.151 174.643 267.935 175.664 267.935 175.664C267.935 175.664 268.148 178.145 267.238 179.127C266.328 180.109 266.192 184.254 266.192 184.254C266.192 184.254 264.756 188.356 265.435 189.639C265.683 190.104 266.067 192.435 266.45 195.23C266.694 196.978 266.935 198.896 267.147 200.651C267.534 203.838 267.824 206.476 267.824 206.476C267.824 206.476 267.053 209.297 265.986 208.44C264.919 207.584 258.665 201.133 258.358 195.405C258.149 191.383 258.233 187.888 258.302 186.165C258.33 185.435 258.358 185.023 258.358 185.023C258.358 185.023 263.218 179.123 262.664 177.03C262.11 174.937 260.83 163.75 260.83 163.75L260.607 162.021L260.366 160.161L260.311 159.752L259.54 153.812C259.676 153.843 264.459 154.926 265.09 155.559C265.721 156.191 269.623 157.097 269.623 157.097C270.211 157.257 270.746 157.572 271.171 158.009C271.597 158.447 271.898 158.991 272.042 159.585C272.08 159.704 272.108 159.829 272.136 159.959C272.649 162.44 272.485 162.737 272.833 163.167C273.182 163.597 269.511 174.172 269.511 174.172Z" fill="#4C4981"/>
<path opacity="0.1" d="M267.175 200.647C265.432 200.298 262.845 199.491 262.904 197.708C262.957 196.041 264.958 195.44 266.474 195.227C266.718 196.967 266.959 198.893 267.175 200.647Z" fill="black"/>
<path d="M272.583 199.76C272.513 199.91 272.234 200.039 271.836 200.155C270.904 200.377 269.957 200.532 269.002 200.619C269.002 200.619 263.075 200.148 263.159 197.453C263.222 195.521 265.899 195.007 267.402 194.892C267.734 194.86 268.068 194.846 268.402 194.85C268.402 194.85 272.837 199.208 272.583 199.76Z" fill="#AE6E79"/>
<path opacity="0.1" d="M272.582 199.76C272.513 199.91 272.234 200.039 271.836 200.155C270.292 198.082 268.137 195.423 267.081 195.189L267.402 194.892C267.734 194.86 268.068 194.846 268.402 194.85C268.402 194.85 272.837 199.208 272.582 199.76Z" fill="black"/>
<path d="M271.09 162.88L272.834 163.139C273.463 164.25 274.162 165.32 274.925 166.343C275.394 166.927 275.663 167.646 275.692 168.395C275.692 168.395 278.251 172.197 279.06 172.623C279.869 173.05 281.107 175.957 281.107 175.957C281.107 175.957 283.111 177.282 283.111 178.778C283.147 180.025 283.275 181.268 283.495 182.496C283.54 182.709 283.198 185.362 282.344 186.69C281.49 188.018 280.636 190.946 280.681 191.47C280.727 191.994 278.293 194.72 277.613 195.573C277.046 196.37 276.547 197.214 276.121 198.096L273.862 202.37C273.862 202.37 269.086 195.318 267.339 194.933C267.339 194.933 269.298 193.053 270.278 192.711C271.258 192.368 272.199 189.566 272.241 188.909C272.283 188.252 273.137 186.13 274.029 185.763C274.922 185.396 275.396 184.995 275.013 184.394C274.629 183.792 275.013 182.646 275.013 182.646C275.013 182.646 272.495 179.312 272.154 177.404C271.812 175.496 269.511 174.2 269.511 174.2L268.19 170.949L271.09 162.88Z" fill="#4C4981"/>
<path opacity="0.1" d="M277.432 178.833C278.397 178.017 279.611 177.556 280.873 177.526C280.064 177.666 279.213 177.844 278.621 178.411C278.388 178.656 278.179 178.922 277.997 179.207C277.795 179.497 276.149 181.594 275.905 181.262C275.497 180.776 277.101 179.116 277.432 178.833Z" fill="black"/>
<path opacity="0.1" d="M273.569 176.81C273.83 176.787 274.08 176.696 274.294 176.544C274.508 176.392 274.678 176.186 274.786 175.947C274.994 175.465 275.122 174.953 275.166 174.43C275.291 173.555 275.466 172.688 275.692 171.834C275.76 171.665 275.789 171.483 275.776 171.301C275.763 171.119 275.71 170.943 275.619 170.785C275.525 170.512 275.399 170.252 275.243 170.009C274.929 170.359 274.838 171.173 274.709 171.641C274.549 172.222 274.402 172.805 274.263 173.389C274.19 173.668 273.611 176.81 273.569 176.81Z" fill="black"/>
<path opacity="0.1" d="M272.06 159.557C271.888 159.782 271.69 159.986 271.47 160.165C270.773 160.72 269.849 161.189 269.762 162.066C269.786 162.351 269.751 162.638 269.657 162.908C269.434 163.293 268.887 163.258 268.451 163.184C268.083 163.151 267.731 163.021 267.43 162.807C266.973 162.415 266.931 161.716 266.582 161.224C266.371 160.969 266.103 160.767 265.801 160.633C265.499 160.5 265.17 160.437 264.839 160.451C264.187 160.43 263.539 160.577 262.887 160.605C262.468 160.626 262.048 160.598 261.635 160.521C261.499 160.5 261.364 160.472 261.231 160.437C260.94 160.365 260.655 160.268 260.38 160.147C260.238 160.091 260.1 160.025 259.965 159.952C259.529 159.727 259.124 159.445 258.763 159.113C258.125 158.526 257.595 157.715 257.647 156.845C257.678 156.31 257.919 155.817 257.996 155.29C258.257 153.78 257.257 152.354 256.172 151.274C255.74 150.845 255.28 150.429 254.847 149.992C254.174 149.369 253.643 148.609 253.289 147.762C252.998 146.861 252.903 145.908 253.01 144.966C253.108 144.012 253.135 143.052 253.09 142.094C252.77 138.697 249.876 136.093 246.982 134.678L246.853 134.612C247.712 133.624 248.768 132.829 249.954 132.279C251.14 131.728 252.428 131.435 253.735 131.418C255.041 131.4 256.337 131.659 257.537 132.178C258.737 132.696 259.814 133.463 260.698 134.427C261.583 135.392 262.254 136.532 262.669 137.774C263.084 139.016 263.232 140.332 263.105 141.636C262.978 142.939 262.578 144.202 261.931 145.34C261.285 146.478 260.406 147.466 259.352 148.241C259.32 148.349 259.293 148.458 259.268 148.562C258.599 151.246 259.042 152.875 259.54 153.773C259.676 153.804 264.459 154.888 265.09 155.52C265.721 156.153 269.623 157.058 269.623 157.058C270.215 157.216 270.755 157.532 271.184 157.972C271.613 158.411 271.915 158.959 272.06 159.557Z" fill="black"/>
<path d="M246.24 132.148C246.432 131.928 246.721 131.816 246.916 131.603C247.519 130.946 246.916 129.873 247.136 129.006C247.373 128.045 248.551 127.626 249.534 127.727C250.517 127.829 251.438 128.283 252.421 128.395C253.948 128.566 255.426 127.902 256.915 127.514C258.404 127.126 260.203 127.105 261.228 128.248C262.252 129.391 262.183 131.337 263.459 132.165C264.048 132.546 264.791 132.588 265.429 132.864C266.127 133.224 266.706 133.778 267.095 134.461C268.105 136.051 268.55 137.937 268.357 139.812C268.249 140.825 267.956 141.811 267.838 142.824C267.717 143.877 267.788 144.942 268.047 145.969C268.315 147.018 268.897 148.15 269.94 148.486C270.181 148.539 270.415 148.62 270.637 148.727C271.24 149.104 271.16 149.992 271.007 150.684L270.386 153.553C270.982 154.007 271.91 153.811 272.478 154.29C272.706 154.499 272.874 154.764 272.966 155.059C273.246 155.861 273.277 156.73 273.053 157.55C272.83 158.37 272.363 159.103 271.714 159.651C271.017 160.207 270.093 160.675 270.006 161.549C270.033 161.834 269.997 162.121 269.902 162.391C269.682 162.775 269.131 162.74 268.695 162.667C268.329 162.633 267.978 162.503 267.677 162.29C267.217 161.898 267.179 161.199 266.83 160.707C266.618 160.453 266.35 160.251 266.048 160.117C265.746 159.983 265.417 159.921 265.087 159.934C264.431 159.913 263.786 160.06 263.131 160.091C261.619 160.154 260.144 159.619 259.021 158.603C258.379 158.012 257.853 157.205 257.902 156.331C257.933 155.8 258.173 155.304 258.25 154.776C258.508 153.27 257.511 151.841 256.427 150.761C255.343 149.681 254.07 148.685 253.54 147.248C252.878 145.47 253.519 143.485 253.341 141.598C253.021 138.197 250.131 135.597 247.233 134.178C246.588 133.846 245.49 133.004 246.24 132.148Z" fill="#444053"/>
<path opacity="0.1" d="M269.04 161.496C268.58 161.101 268.542 160.406 268.193 159.913C267.981 159.659 267.714 159.457 267.411 159.323C267.109 159.188 266.78 159.125 266.45 159.137C265.795 159.116 265.146 159.263 264.494 159.295C262.977 159.361 261.495 158.825 260.37 157.802C259.728 157.215 259.205 156.405 259.254 155.534C259.286 155 259.526 154.503 259.603 153.979C259.864 152.47 258.864 151.04 257.78 149.96C256.695 148.881 255.426 147.885 254.893 146.448C254.234 144.673 254.893 142.688 254.698 140.797C254.373 137.397 251.483 134.797 248.59 133.378C247.913 133.046 246.815 132.204 247.565 131.348C247.753 131.128 248.042 131.016 248.237 130.803C248.841 130.149 248.237 129.073 248.461 128.209C248.503 128.038 248.578 127.875 248.68 127.731C247.952 127.867 247.286 128.279 247.108 128.978C246.895 129.845 247.491 130.918 246.888 131.575C246.693 131.788 246.404 131.9 246.212 132.117C245.462 132.973 246.561 133.818 247.237 134.147C250.134 135.566 253.024 138.169 253.345 141.566C253.523 143.457 252.881 145.442 253.544 147.221C254.074 148.653 255.346 149.667 256.43 150.733C257.515 151.799 258.522 153.238 258.254 154.748C258.107 155.259 257.99 155.778 257.905 156.303C257.856 157.173 258.383 157.984 259.024 158.571C260.147 159.594 261.629 160.131 263.145 160.064C263.8 160.032 264.445 159.889 265.101 159.906C265.431 159.894 265.76 159.957 266.062 160.092C266.364 160.226 266.632 160.428 266.844 160.682C267.193 161.175 267.231 161.874 267.691 162.265C267.992 162.477 268.343 162.606 268.709 162.639C269.145 162.72 269.696 162.747 269.915 162.367C269.994 162.211 270.027 162.037 270.013 161.863C269.662 161.829 269.327 161.702 269.04 161.496Z" fill="black"/>
<path d="M213.646 134.569H194.988V116.172H213.659L213.646 134.569ZM213.376 106.83H195.258C195.258 78.2411 222.415 79.9119 222.415 61.8252C222.415 51.8628 214.266 43.8816 204.31 43.8816C194.354 43.8816 186.208 52.4863 186.208 62.1086H168.103C168.095 57.3485 169.026 52.6336 170.843 48.2343C172.66 43.835 175.326 39.8378 178.69 36.4719C182.054 33.106 186.048 30.4376 190.445 28.6198C194.841 26.802 199.553 25.8704 204.31 25.8786C224.309 25.8786 240.517 41.8438 240.517 61.8252C240.517 84.441 213.363 87.0159 213.363 106.83H213.376Z" fill="#6C63FF"/>
<path opacity="0.1" d="M98.0148 133.633H91.7952V127.476H98.0148V133.633ZM97.9207 124.372H91.8893C91.8893 114.832 100.936 115.387 100.936 109.345C100.933 108.555 100.775 107.772 100.47 107.043C100.165 106.314 99.7196 105.652 99.1595 105.096C98.5994 104.539 97.9353 104.099 97.2053 103.799C96.4753 103.5 95.6937 103.348 94.905 103.352C93.3122 103.389 91.7956 104.043 90.6736 105.176C89.5516 106.31 88.9115 107.836 88.8876 109.433H82.8562C82.8962 106.26 84.1785 103.23 86.4267 100.996C88.6749 98.7617 91.7088 97.5028 94.8744 97.4904C98.0399 97.4781 101.084 98.7132 103.349 100.929C105.615 103.146 106.92 106.166 106.985 109.338C106.968 116.887 97.9207 117.746 97.9207 124.358V124.372Z" fill="#6C63FF"/>
<path opacity="0.1" d="M145.108 176.412H138.889V170.271H145.108V176.412ZM145.018 167.154H138.986C138.986 157.61 148.033 158.169 148.033 152.127C148.03 151.337 147.871 150.555 147.566 149.826C147.262 149.097 146.816 148.435 146.256 147.879C145.696 147.323 145.032 146.882 144.302 146.584C143.572 146.285 142.79 146.133 142.002 146.137C140.402 146.166 138.877 146.817 137.748 147.954C136.619 149.09 135.975 150.622 135.953 152.225H129.922C129.962 149.052 131.244 146.022 133.492 143.788C135.74 141.554 138.774 140.295 141.94 140.283C145.105 140.27 148.149 141.506 150.415 143.722C152.68 145.938 153.986 148.958 154.051 152.131C154.061 159.679 145.018 160.542 145.018 167.154Z" fill="#6C63FF"/>
<path opacity="0.1" d="M173.745 100.682H169.237V96.2401H173.745V100.682ZM173.679 93.9685H169.307C169.307 87.056 175.865 87.4579 175.865 83.0826C175.862 82.5098 175.747 81.9432 175.526 81.4151C175.304 80.887 174.982 80.4078 174.576 80.0048C174.17 79.6017 173.688 79.2828 173.159 79.0661C172.631 78.8495 172.064 78.7394 171.493 78.7422C170.336 78.7656 169.233 79.2387 168.418 80.0615C167.602 80.8843 167.137 81.9926 167.121 83.1525H162.749C162.74 80.8279 163.652 78.5949 165.285 76.9447C166.919 75.2944 169.139 74.3621 171.458 74.3529C173.777 74.3436 176.005 75.2581 177.651 76.8953C179.297 78.5324 180.227 80.758 180.237 83.0826C180.23 88.5518 173.679 89.1773 173.679 93.9685Z" fill="#6C63FF"/>
<path opacity="0.1" d="M250.737 106.951H248.189V104.435H250.737V106.951ZM250.699 103.16H248.213C248.213 99.2525 251.919 99.4796 251.919 97.0054C251.919 96.6818 251.855 96.3614 251.731 96.0627C251.606 95.7641 251.424 95.4932 251.194 95.2656C250.965 95.0381 250.693 94.8585 250.393 94.7372C250.094 94.6159 249.774 94.5554 249.451 94.5591C248.797 94.5726 248.174 94.8399 247.713 95.3047C247.252 95.7694 246.989 96.3954 246.979 97.0508H244.507C244.536 95.7594 245.067 94.5303 245.986 93.6254C246.906 92.7205 248.142 92.2113 249.43 92.2063C250.719 92.2013 251.959 92.7009 252.885 93.5986C253.812 94.4963 254.352 95.7212 254.391 97.0124C254.405 100.084 250.699 100.451 250.699 103.16Z" fill="#6C63FF"/>
<path opacity="0.1" d="M289.7 221.392H287.152V218.875H289.7V221.392ZM289.662 217.6H287.19C287.19 213.689 290.9 213.92 290.9 211.446C290.895 210.793 290.632 210.169 290.169 209.71C289.705 209.251 289.079 208.996 288.428 209C287.774 209.012 287.15 209.279 286.689 209.744C286.228 210.209 285.965 210.836 285.956 211.491H283.484C283.513 210.2 284.044 208.971 284.963 208.066C285.883 207.161 287.119 206.652 288.407 206.647C289.696 206.642 290.936 207.141 291.862 208.039C292.789 208.937 293.329 210.162 293.368 211.453C293.382 214.539 289.676 214.892 289.676 217.6H289.662Z" fill="#6C63FF"/>
</g>
<defs>
<linearGradient id="paint0_linear" x1="243.067" y1="290.775" x2="243.067" y2="126.962" gradientUnits="userSpaceOnUse">
<stop stop-color="#808080" stop-opacity="0.25"/>
<stop offset="0.54" stop-color="#808080" stop-opacity="0.12"/>
<stop offset="1" stop-color="#808080" stop-opacity="0.1"/>
</linearGradient>
<clipPath id="clip0">
<rect width="350" height="292.428" fill="white"/>
</clipPath>
</defs>
</svg>
