<svg width="1440" height="1157" viewBox="0 0 1440 1157" fill="none" xmlns="http://www.w3.org/2000/svg">
<path d="M521.362 173C227.558 132.2 51.369 236.333 0 293.5V1120C145.601 992 495.844 901 863.099 979.5C1156.9 1042.3 1370.12 931.667 1440 868.5V38C1105.77 250 888.617 224 521.362 173Z" fill="url(#paint0_linear)"/>
<path d="M521.362 144.358C227.558 100.73 51.369 212.081 0 273.21V1157C145.601 1020.13 495.844 922.82 863.099 1006.76C1156.9 1073.91 1370.12 955.612 1440 888.067V0C1105.77 226.695 888.617 198.893 521.362 144.358Z" fill="url(#paint1_linear)" fill-opacity="0.4"/>
<defs>
<linearGradient id="paint0_linear" x1="28.0195" y1="304.5" x2="1440.23" y2="870.677" gradientUnits="userSpaceOnUse">
<stop stop-color="#4568DC"/>
<stop offset="1" stop-color="#B06AB3"/>
</linearGradient>
<linearGradient id="paint1_linear" x1="28.0195" y1="284.973" x2="1465.19" y2="823.809" gradientUnits="userSpaceOnUse">
<stop stop-color="#4568DC"/>
<stop offset="1" stop-color="#B06AB3"/>
</linearGradient>
</defs>
</svg>
