<svg width="1401" height="966" viewBox="0 0 1401 966" fill="none" xmlns="http://www.w3.org/2000/svg">
<g clip-path="url(#clip0)">
<path d="M144.392 348.925H27.3096V366.707H144.392V348.925Z" fill="#4D8AF0"/>
<path d="M27.3094 366.288L14.0586 966H22.3384L40.6845 366.707L27.3094 366.288Z" fill="#EEEEEE"/>
<path d="M144.377 366.288L157.612 966H149.348L131.001 366.707L144.377 366.288Z" fill="#EEEEEE"/>
<path d="M52.2575 366.707L38.0591 966H47.9856L61.0966 366.288L52.2575 366.707Z" fill="#E0E0E0"/>
<path d="M121.898 366.707L136.112 966H126.17L113.075 366.288L121.898 366.707Z" fill="#E0E0E0"/>
<path d="M124.943 893.208H49.6479V902.309H124.943V893.208Z" fill="#E0E0E0"/>
<path d="M128.252 842.75H47.1626V851.85H128.252V842.75Z" fill="#E0E0E0"/>
<path d="M128.252 793.114H49.6479V802.215H128.252V793.114Z" fill="#E0E0E0"/>
<path d="M124.943 742.655H49.6479V751.756H124.943V742.655Z" fill="#E0E0E0"/>
<path d="M124.943 690.55H49.6479V698.828H124.943V690.55Z" fill="#E0E0E0"/>
<path d="M124.943 640.915H52.1333V650.839H124.943V640.915Z" fill="#E0E0E0"/>
<path d="M122.457 591.279H52.1333V597.895H122.457V591.279Z" fill="#E0E0E0"/>
<path d="M116.663 538.351H54.6035V549.098H116.663V538.351Z" fill="#E0E0E0"/>
<path d="M119.133 488.715H54.6035V497.816H119.133V488.715Z" fill="#E0E0E0"/>
<path d="M119.133 437.434H54.6035V447.358H119.133V437.434Z" fill="#E0E0E0"/>
<path d="M116.663 386.975H57.9121V396.899H116.663V386.975Z" fill="#E0E0E0"/>
<path d="M172.09 315.006H0V351.41H172.09V315.006Z" fill="#4D8AF0"/>
<g opacity="0.5">
<path opacity="0.5" d="M163.002 59.0161L103.148 97.9978C102.563 95.5864 101.198 93.4356 99.2649 91.8788C99.9662 90.0002 100.08 87.9529 99.5911 86.0082C99.5013 85.4484 99.2833 84.9169 98.9542 84.4552C98.645 84.1651 98.27 83.9543 97.8616 83.8407C97.4531 83.7271 97.0231 83.7141 96.6085 83.8029L87.1014 84.4241C85.9945 84.3708 84.9013 84.6878 83.9946 85.3249C82.6586 86.4431 82.2547 88.7882 80.8877 89.7821C79.9712 90.4344 78.8061 90.3723 77.7808 90.8848C75.5905 92.0496 75.1089 95.544 74.938 98.3861C74.705 102.269 74.7205 106.835 77.2526 109.257C79.1012 110.981 81.6644 110.81 83.9946 110.686L86.3403 110.5C86.9331 110.852 87.5571 111.148 88.2044 111.385V114.693H87.7694C87.7694 114.693 60.9415 106.928 31.4728 188.059H30.9602C30.9602 188.059 26.6105 202.813 33.5699 200.22C39.6283 197.952 39.7837 190.389 39.675 188.494H40.0788C40.0788 188.494 52.2423 152.898 71.3496 148.55C71.3496 148.55 85.2529 165.913 62.6659 200.639H80.344C80.2881 204.524 81.0723 208.376 82.6431 211.93C87.8471 222.351 72.2195 321.327 72.2195 321.327H85.2528L91.8084 288.527L92.6317 321.327H102.185L111.739 258.258L110.434 182.282V162.605L112.174 164.919V134.526H137.355L141.705 100.669H141.254C141.361 98.3043 141.262 95.9348 140.959 93.5871L173.426 86.7692C178.537 65.073 163.002 59.0161 163.002 59.0161ZM134.575 101.197L126.963 120.657C126.963 120.657 106.116 111.106 98.3017 114.584H97.8668V110.453C99.4649 109.53 100.812 108.229 101.79 106.664C102.767 105.099 103.346 103.317 103.475 101.477L134.776 94.9072C134.371 96.9738 134.298 99.0918 134.559 101.182L134.575 101.197Z" fill="url(#paint0_linear)"/>
</g>
<path d="M139.312 106.182C139.312 106.182 140.306 91.8321 135.833 94.9848C131.359 98.1376 133.285 107.068 133.285 107.068L139.312 106.182Z" fill="#FDA57D"/>
<path d="M34.3309 188.028C34.3309 188.028 30.1988 202.083 36.8164 199.614C43.4341 197.145 42.6107 188.028 42.6107 188.028H34.3309Z" fill="#FDA57D"/>
<path d="M98.0528 112.752H88.9497V121.03H98.0528V112.752Z" fill="#FDA57D"/>
<path d="M88.9342 158.256H81.4932V195.483H88.9342V158.256Z" fill="#4D8AF0"/>
<path opacity="0.1" d="M88.9342 158.256H81.4932V195.483H88.9342V158.256Z" fill="black"/>
<path d="M92.4917 118.141H101.098C103.467 118.141 105.739 119.081 107.414 120.756C109.089 122.431 110.03 124.702 110.03 127.071V182.655H83.6216V127.071C83.6215 124.713 84.5541 122.451 86.2158 120.778C87.8775 119.105 90.1335 118.157 92.4917 118.141Z" fill="white"/>
<path d="M92.6629 115.64C98.5998 115.64 103.413 110.829 103.413 104.893C103.413 98.9577 98.5998 94.146 92.6629 94.146C86.7259 94.146 81.9131 98.9577 81.9131 104.893C81.9131 110.829 86.7259 115.64 92.6629 115.64Z" fill="#FDA57D"/>
<path d="M88.5305 118.141C88.5305 118.141 62.8833 110.702 34.7505 188.447H43.0303C43.0303 188.447 54.619 154.529 72.8097 150.398C72.8097 150.398 86.045 166.938 64.5299 200.095H81.9129V189.007C81.8116 172.2 83.9004 155.452 88.1266 139.185C90.1197 132.329 90.2591 125.068 88.5305 118.141V118.141Z" fill="#4D8AF0"/>
<path d="M98.457 118.141V120.626C98.457 120.626 104.251 146.267 109.207 162.807L111.739 166.177V137.166H135.74L139.872 104.909H133.254L125.72 123.918C125.72 123.918 105.898 114.817 98.457 118.141Z" fill="#4D8AF0"/>
<path d="M83.5593 182.655C83.5593 182.655 78.5883 200.857 83.5593 210.781C88.5303 220.705 73.6328 315.006 73.6328 315.006H86.0603L103.847 226.078L106.737 182.593L83.5593 182.655Z" fill="#333333"/>
<path d="M110.046 182.655L111.289 255.027L102.185 315.006H93.0823L89.7734 182.655H110.046Z" fill="#333333"/>
<path d="M90.9074 100.793C91.1279 100.434 91.4 100.11 91.7152 99.8301C92.0261 99.6478 92.38 99.5513 92.7404 99.5505C94.9929 99.3642 97.5872 99.3176 98.9542 97.1899C99.9588 95.2798 100.203 93.0604 99.6377 90.9777C99.564 90.4187 99.3562 89.8859 99.0319 89.4246C98.737 89.148 98.3795 88.947 97.9899 88.8388C97.6003 88.7306 97.1902 88.7184 96.7949 88.8034L87.7384 89.3936C86.7028 89.3541 85.6827 89.6541 84.8334 90.2477C83.5596 91.3193 83.1868 93.5402 81.8508 94.5031C80.9654 95.1243 79.8624 95.0622 78.9304 95.5592C76.8488 96.6619 76.3983 99.9543 76.2274 102.703C76.0099 106.4 76.0099 110.748 78.4333 113C80.1886 114.646 82.6276 114.553 84.849 114.367L88.9811 114.025C89.3981 114.036 89.8073 113.911 90.1462 113.668C90.4076 113.319 90.5925 112.918 90.6889 112.493C90.7853 112.067 90.7909 111.626 90.7054 111.198C90.5967 109.117 90.3792 106.757 89.0122 105.483C88.6861 105.238 88.389 104.957 88.1267 104.645C86.651 102.346 90.1307 101.818 90.9074 100.793Z" fill="#333333"/>
<path d="M160.098 65.2285C160.098 65.2285 174.995 71.0214 170.024 91.6304L103.009 105.686V102.378L160.098 65.2285Z" fill="#F55F44"/>
<path opacity="0.1" d="M144.377 350.99H27.7134V354.298H144.377V350.99Z" fill="black"/>
<path opacity="0.1" d="M55.8463 584.259H46.7432V585.921H55.8463V584.259Z" fill="black"/>
<path opacity="0.1" d="M127.009 584.259H117.906V585.921H127.009V584.259Z" fill="black"/>
<path d="M143.973 570.608H27.3096V584.663H143.973V570.608Z" fill="#EEEEEE"/>
<path d="M234.802 59.5598L235.967 58.9696L235.688 58.9386L235.781 58.8764L235.61 58.923L203.547 54.7764L204.23 65.3837L205.24 74.7952L207.213 73.7857L209.046 77.9479L234.802 59.5598Z" fill="url(#paint1_linear)"/>
<path d="M205.302 65.1819L206.234 73.8013L234.895 59.2803L210.009 59.8238L205.302 65.1819Z" fill="#6C63FF"/>
<path opacity="0.2" d="M205.302 65.1819L206.234 73.8013L234.895 59.2803L210.009 59.8238L205.302 65.1819Z" fill="black"/>
<path d="M204.665 55.4756L234.895 59.2806L205.302 65.1822L204.665 55.4756Z" fill="#6C63FF"/>
<path d="M209.776 76.6594L234.724 59.1875L205.799 67.7914L209.776 76.6594Z" fill="#6C63FF"/>
<path d="M390.255 15.1579L391.42 14.5678L391.14 14.5212L391.234 14.459L391.063 14.5212L358.984 10.3745L359.683 20.9819L360.693 30.3934L362.666 29.3839L364.499 33.5461L390.255 15.1579Z" fill="url(#paint2_linear)"/>
<path d="M360.755 20.7795L361.687 29.399L390.348 14.8779L365.462 15.4215L360.755 20.7795Z" fill="#6C63FF"/>
<path opacity="0.2" d="M360.755 20.7795L361.687 29.399L390.348 14.8779L365.462 15.4215L360.755 20.7795Z" fill="black"/>
<path d="M360.118 11.0732L390.348 14.8782L360.755 20.7798L360.118 11.0732Z" fill="#6C63FF"/>
<path d="M365.229 32.257L390.177 14.7852L361.252 23.3735L365.229 32.257Z" fill="#6C63FF"/>
<path d="M662.619 1.30457L664.219 0.108714L663.8 0.124244L663.909 0L663.676 0.124244L614.292 2.15875L618.082 17.9688L622.028 31.8687L624.747 29.8342L628.568 35.6271L662.619 1.30457Z" fill="url(#paint3_linear)"/>
<path d="M619.651 17.3789L623.271 30.1139L662.697 0.838867L625.352 8.09163L619.651 17.3789Z" fill="#6C63FF"/>
<path opacity="0.2" d="M619.651 17.3789L623.271 30.1139L662.697 0.838867L625.352 8.09163L619.651 17.3789Z" fill="black"/>
<path d="M616.187 2.91996L662.697 0.838867L619.651 17.3789L616.187 2.91996Z" fill="#6C63FF"/>
<path d="M629.345 33.5146L662.418 0.745117L621.065 21.1678L629.345 33.5146Z" fill="#6C63FF"/>
<path d="M531.525 90.714L532.798 90.419L532.534 90.3258L532.643 90.2792H532.457L502.336 78.5381L500.456 89.0057L499.167 98.3706L501.326 97.8736L502.087 102.346L531.525 90.714Z" fill="url(#paint4_linear)"/>
<path d="M501.543 89.068L500.363 97.6409L531.68 90.4658L507.4 84.999L501.543 89.068Z" fill="#6C63FF"/>
<path opacity="0.2" d="M501.543 89.068L500.363 97.6409L531.68 90.4658L507.4 84.999L501.543 89.068Z" fill="black"/>
<path d="M503.268 79.4854L531.68 90.4654L501.543 89.0677L503.268 79.4854Z" fill="#6C63FF"/>
<path d="M503.112 101.275L531.54 90.3262L501.388 91.7084L503.112 101.275Z" fill="#6C63FF"/>
<g opacity="0.5">
<path opacity="0.5" d="M354.386 201.322L355.535 200.717L355.271 200.686L355.349 200.623L355.178 200.67L323.115 196.523L323.814 207.146L324.824 216.542L326.797 215.533L328.614 219.695L354.386 201.322Z" fill="url(#paint5_linear)"/>
<path opacity="0.5" d="M324.886 206.944L325.818 215.548L354.479 201.027L329.593 201.571L324.886 206.944Z" fill="#6C63FF"/>
<path opacity="0.2" d="M324.886 206.944L325.818 215.548L354.479 201.027L329.593 201.571L324.886 206.944Z" fill="black"/>
<path opacity="0.5" d="M324.249 197.222L354.479 201.027L324.886 206.944L324.249 197.222Z" fill="#6C63FF"/>
<path opacity="0.5" d="M329.36 218.406L354.308 200.934L325.383 209.538L329.36 218.406Z" fill="#6C63FF"/>
</g>
<g opacity="0.2">
<path opacity="0.2" d="M701.906 59.3734L703.506 58.162L703.087 58.1776L703.211 58.0688L702.962 58.1931L653.594 60.2121L657.384 76.0222L661.315 89.9375L664.033 87.903L667.87 93.6959L701.906 59.3734Z" fill="url(#paint6_linear)"/>
<path opacity="0.2" d="M658.938 75.4477L662.557 88.1673L701.984 58.9077L664.639 66.1605L658.938 75.4477Z" fill="#6C63FF"/>
<path opacity="0.2" d="M658.938 75.4477L662.557 88.1673L701.984 58.9077L664.639 66.1605L658.938 75.4477Z" fill="black"/>
<path opacity="0.2" d="M655.474 60.9888L701.984 58.9077L658.938 75.4478L655.474 60.9888Z" fill="#6C63FF"/>
<path opacity="0.2" d="M668.631 91.5839L701.704 58.8145L660.352 79.2371L668.631 91.5839Z" fill="#6C63FF"/>
</g>
<g opacity="0.3">
<path opacity="0.3" d="M833.451 231.855L835.035 230.66L834.616 230.675L834.74 230.551L834.492 230.675L785.124 232.71L788.914 248.52L792.86 262.435L795.563 260.385L799.4 266.193L833.451 231.855Z" fill="url(#paint7_linear)"/>
<path opacity="0.3" d="M790.467 247.93L794.087 260.665L833.529 231.39L796.168 238.642L790.467 247.93Z" fill="#6C63FF"/>
<path opacity="0.2" d="M790.467 247.93L794.087 260.665L833.529 231.39L796.168 238.642L790.467 247.93Z" fill="black"/>
<path opacity="0.3" d="M787.003 233.471L833.529 231.39L790.467 247.93L787.003 233.471Z" fill="#6C63FF"/>
<path opacity="0.3" d="M800.161 264.065L833.233 231.312L791.881 251.719L800.161 264.065Z" fill="#6C63FF"/>
</g>
<g opacity="0.5">
<path opacity="0.5" d="M536.651 229.06L537.925 228.75L537.661 228.656L537.77 228.61L537.583 228.625L507.462 216.869L505.582 227.336L504.293 236.717L506.437 236.204L507.213 240.677L536.651 229.06Z" fill="url(#paint8_linear)"/>
<path opacity="0.5" d="M506.67 227.399L505.489 235.971L536.807 228.796L512.526 223.33L506.67 227.399Z" fill="#6C63FF"/>
<path opacity="0.2" d="M506.67 227.399L505.489 235.971L536.807 228.796L512.526 223.33L506.67 227.399Z" fill="black"/>
<path opacity="0.5" d="M508.394 217.816L536.806 228.796L506.67 227.398L508.394 217.816Z" fill="#6C63FF"/>
<path opacity="0.5" d="M508.239 239.621L536.667 228.672L506.514 230.039L508.239 239.621Z" fill="#6C63FF"/>
</g>
<g opacity="0.5">
<path opacity="0.5" d="M1061.08 217.102L1062.35 216.791L1062.09 216.698L1062.19 216.651L1062.01 216.667L1031.89 204.91L1030.01 215.378L1028.72 224.758L1030.88 224.246L1031.65 228.718L1061.08 217.102Z" fill="url(#paint9_linear)"/>
<path opacity="0.5" d="M1031.09 215.44L1029.91 224.013L1061.25 216.838L1036.95 211.371L1031.09 215.44Z" fill="#6C63FF"/>
<path opacity="0.2" d="M1031.09 215.44L1029.91 224.013L1061.25 216.838L1036.95 211.371L1031.09 215.44Z" fill="black"/>
<path opacity="0.5" d="M1032.82 205.873L1061.25 216.838L1031.09 215.44L1032.82 205.873Z" fill="#6C63FF"/>
<path opacity="0.5" d="M1032.66 227.662L1061.09 216.713L1030.94 218.08L1032.66 227.662Z" fill="#6C63FF"/>
</g>
<g opacity="0.2">
<path opacity="0.2" d="M1344.64 37.7702L1345.92 37.4751L1345.67 37.3819L1345.76 37.3353L1345.57 37.3509L1315.45 25.5942L1313.57 36.0618L1312.28 45.4423L1314.44 44.9298L1315.22 49.4026L1344.64 37.7702Z" fill="url(#paint10_linear)"/>
<path opacity="0.2" d="M1314.66 36.1242L1313.48 44.697L1344.81 37.5219L1320.52 32.0552L1314.66 36.1242Z" fill="#6C63FF"/>
<path opacity="0.2" d="M1314.66 36.1242L1313.48 44.697L1344.81 37.5219L1320.52 32.0552L1314.66 36.1242Z" fill="black"/>
<path opacity="0.2" d="M1316.38 26.5415L1344.81 37.5216L1314.66 36.1239L1316.38 26.5415Z" fill="#6C63FF"/>
<path opacity="0.2" d="M1316.23 48.3464L1344.66 37.3818L1314.52 38.7641L1316.23 48.3464Z" fill="#6C63FF"/>
</g>
<g opacity="0.2">
<path opacity="0.2" d="M295.79 95.839L297.064 95.544L296.8 95.4352L296.909 95.4042H296.722L266.601 83.6631L264.722 94.1307L263.417 103.496L265.592 102.983L266.353 107.471L295.79 95.839Z" fill="url(#paint11_linear)"/>
<path opacity="0.2" d="M265.809 94.193L264.628 102.766L295.946 95.5908L271.665 90.124L265.809 94.193Z" fill="#6C63FF"/>
<path opacity="0.2" d="M265.809 94.193L264.628 102.766L295.946 95.5908L271.665 90.124L265.809 94.193Z" fill="black"/>
<path opacity="0.2" d="M267.533 84.6104L295.946 95.5904L265.809 94.1927L267.533 84.6104Z" fill="#6C63FF"/>
<path opacity="0.2" d="M267.378 106.4L295.806 95.4507L265.654 96.8329L267.378 106.4Z" fill="#6C63FF"/>
</g>
<path d="M903.822 57.7582L905.593 56.8418L905.173 56.7797L905.313 56.6865L905.049 56.7642L856.038 50.4277L857.11 66.6572L858.648 81.0385L861.662 79.4699L864.458 85.8374L903.822 57.7582Z" fill="url(#paint12_linear)"/>
<path d="M858.741 66.3464L860.155 79.5008L903.962 57.3076L865.934 58.1463L858.741 66.3464Z" fill="#6C63FF"/>
<path opacity="0.2" d="M858.741 66.3464L860.155 79.5008L903.962 57.3076L865.934 58.1463L858.741 66.3464Z" fill="black"/>
<path d="M857.762 51.499L903.962 57.3075L858.741 66.3462L857.762 51.499Z" fill="#6C63FF"/>
<path d="M865.576 83.8805L903.713 57.168L859.502 70.3068L865.576 83.8805Z" fill="#6C63FF"/>
<path d="M1228.88 39.1679L1233.04 37.2732L1232.09 37.1023L1232.42 36.9004L1231.8 37.0557L1120.57 16.835L1121.1 54.0306L1122.92 87.0641L1129.99 83.8648L1135.64 98.7275L1228.88 39.1679Z" fill="url(#paint13_linear)"/>
<path d="M1124.88 53.5025L1126.57 83.725L1229.28 38.1583L1142.27 35.6113L1124.88 53.5025Z" fill="#6C63FF"/>
<path opacity="0.2" d="M1124.88 53.5025L1126.57 83.725L1229.28 38.1583L1142.27 35.6113L1124.88 53.5025Z" fill="black"/>
<path d="M1124.39 19.4902L1229.28 38.1579L1124.88 53.5021L1124.39 19.4902Z" fill="#6C63FF"/>
<path d="M1138.42 94.3942L1228.69 37.8164L1126.13 62.6653L1138.42 94.3942Z" fill="#6C63FF"/>
<path d="M1322.56 217.486L1327.12 217.948L1326.39 217.326L1326.76 217.293L1326.16 217.125L1239.95 144L1221.81 176.476L1206.86 205.993L1214.58 206.77L1212.05 222.455L1322.56 217.486Z" fill="url(#paint14_linear)"/>
<path d="M1225.33 177.92L1211.67 204.932L1323.41 216.827L1249.33 171.117L1225.33 177.92Z" fill="#6C63FF"/>
<path opacity="0.2" d="M1225.33 177.92L1211.67 204.932L1323.41 216.827L1249.33 171.117L1225.33 177.92Z" fill="black"/>
<path d="M1241.91 148.217L1323.41 216.828L1225.33 177.921L1241.91 148.217Z" fill="#6C63FF"/>
<path d="M1216.62 220.093L1323.07 216.236L1221.85 186.471L1216.62 220.093Z" fill="#6C63FF"/>
<path d="M749.612 156.439L751.398 155.523L750.979 155.476L751.103 155.383L750.839 155.46L701.844 149.124L702.916 165.338L704.438 179.719L707.452 178.166L710.248 184.534L749.612 156.439Z" fill="url(#paint15_linear)"/>
<path d="M704.547 165.043L705.961 178.182L749.768 156.004L711.739 156.843L704.547 165.043Z" fill="#6C63FF"/>
<path opacity="0.2" d="M704.547 165.043L705.961 178.182L749.768 156.004L711.739 156.843L704.547 165.043Z" fill="black"/>
<path d="M703.568 150.195L749.767 156.004L704.547 165.043L703.568 150.195Z" fill="#6C63FF"/>
<path d="M711.366 182.577L749.503 155.864L705.292 169.003L711.366 182.577Z" fill="#6C63FF"/>
<path d="M1045.14 134.246L1046.91 133.33L1046.51 133.268L1046.63 133.174L1046.37 133.252L997.37 126.916L998.426 143.145L999.964 157.526L1002.98 155.973L1005.77 162.325L1045.14 134.246Z" fill="url(#paint16_linear)"/>
<path d="M1000.07 142.835L1001.49 155.989L1045.29 133.796L1007.27 134.635L1000.07 142.835Z" fill="#6C63FF"/>
<path opacity="0.2" d="M1000.07 142.835L1001.49 155.989L1045.29 133.796L1007.27 134.635L1000.07 142.835Z" fill="black"/>
<path d="M999.094 128.003L1045.29 133.796L1000.07 142.835L999.094 128.003Z" fill="#6C63FF"/>
<path d="M1006.89 160.368L1045.03 133.656L1000.82 146.81L1006.89 160.368Z" fill="#6C63FF"/>
</g>
<defs>
<linearGradient id="paint0_linear" x1="102.046" y1="321.203" x2="102.046" y2="58.9851" gradientUnits="userSpaceOnUse">
<stop stop-color="#808080" stop-opacity="0.25"/>
<stop offset="0.54" stop-color="#808080" stop-opacity="0.12"/>
<stop offset="1" stop-color="#808080" stop-opacity="0.1"/>
</linearGradient>
<linearGradient id="paint1_linear" x1="12585.8" y1="10798.4" x2="12562.9" y2="10448.8" gradientUnits="userSpaceOnUse">
<stop stop-color="#808080" stop-opacity="0.25"/>
<stop offset="0.54" stop-color="#808080" stop-opacity="0.12"/>
<stop offset="1" stop-color="#808080" stop-opacity="0.1"/>
</linearGradient>
<linearGradient id="paint2_linear" x1="16002.8" y1="10019.6" x2="15979.9" y2="9670" gradientUnits="userSpaceOnUse">
<stop stop-color="#808080" stop-opacity="0.25"/>
<stop offset="0.54" stop-color="#808080" stop-opacity="0.12"/>
<stop offset="1" stop-color="#808080" stop-opacity="0.1"/>
</linearGradient>
<linearGradient id="paint3_linear" x1="35752.5" y1="9758.98" x2="35560.7" y2="8958.65" gradientUnits="userSpaceOnUse">
<stop stop-color="#808080" stop-opacity="0.25"/>
<stop offset="0.54" stop-color="#808080" stop-opacity="0.12"/>
<stop offset="1" stop-color="#808080" stop-opacity="0.1"/>
</linearGradient>
<linearGradient id="paint4_linear" x1="16364.2" y1="15770.5" x2="16427.9" y2="15416.2" gradientUnits="userSpaceOnUse">
<stop stop-color="#808080" stop-opacity="0.25"/>
<stop offset="0.54" stop-color="#808080" stop-opacity="0.12"/>
<stop offset="1" stop-color="#808080" stop-opacity="0.1"/>
</linearGradient>
<linearGradient id="paint5_linear" x1="15151.5" y1="13004.1" x2="15128.6" y2="12654.8" gradientUnits="userSpaceOnUse">
<stop stop-color="#808080" stop-opacity="0.25"/>
<stop offset="0.54" stop-color="#808080" stop-opacity="0.12"/>
<stop offset="1" stop-color="#808080" stop-opacity="0.1"/>
</linearGradient>
<linearGradient id="paint6_linear" x1="36916.3" y1="11088" x2="36724.4" y2="10287.4" gradientUnits="userSpaceOnUse">
<stop stop-color="#808080" stop-opacity="0.25"/>
<stop offset="0.54" stop-color="#808080" stop-opacity="0.12"/>
<stop offset="1" stop-color="#808080" stop-opacity="0.1"/>
</linearGradient>
<linearGradient id="paint7_linear" x1="40888.4" y1="15004" x2="40696.5" y2="14203.3" gradientUnits="userSpaceOnUse">
<stop stop-color="#808080" stop-opacity="0.25"/>
<stop offset="0.54" stop-color="#808080" stop-opacity="0.12"/>
<stop offset="1" stop-color="#808080" stop-opacity="0.1"/>
</linearGradient>
<linearGradient id="paint8_linear" x1="16607" y1="18061.3" x2="16670.8" y2="17707" gradientUnits="userSpaceOnUse">
<stop stop-color="#808080" stop-opacity="0.25"/>
<stop offset="0.54" stop-color="#808080" stop-opacity="0.12"/>
<stop offset="1" stop-color="#808080" stop-opacity="0.1"/>
</linearGradient>
<linearGradient id="paint9_linear" x1="28362" y1="18534.1" x2="28425.7" y2="18180" gradientUnits="userSpaceOnUse">
<stop stop-color="#808080" stop-opacity="0.25"/>
<stop offset="0.54" stop-color="#808080" stop-opacity="0.12"/>
<stop offset="1" stop-color="#808080" stop-opacity="0.1"/>
</linearGradient>
<linearGradient id="paint10_linear" x1="34558.3" y1="15935.7" x2="34622" y2="15581.4" gradientUnits="userSpaceOnUse">
<stop stop-color="#808080" stop-opacity="0.25"/>
<stop offset="0.54" stop-color="#808080" stop-opacity="0.12"/>
<stop offset="1" stop-color="#808080" stop-opacity="0.1"/>
</linearGradient>
<linearGradient id="paint11_linear" x1="11086.1" y1="15554.9" x2="11149.8" y2="15200.6" gradientUnits="userSpaceOnUse">
<stop stop-color="#808080" stop-opacity="0.25"/>
<stop offset="0.54" stop-color="#808080" stop-opacity="0.12"/>
<stop offset="1" stop-color="#808080" stop-opacity="0.1"/>
</linearGradient>
<linearGradient id="paint12_linear" x1="41073.9" y1="16583.8" x2="41020.5" y2="15767.5" gradientUnits="userSpaceOnUse">
<stop stop-color="#808080" stop-opacity="0.25"/>
<stop offset="0.54" stop-color="#808080" stop-opacity="0.12"/>
<stop offset="1" stop-color="#808080" stop-opacity="0.1"/>
</linearGradient>
<linearGradient id="paint13_linear" x1="111897" y1="45494" x2="111854" y2="41165.2" gradientUnits="userSpaceOnUse">
<stop stop-color="#808080" stop-opacity="0.25"/>
<stop offset="0.54" stop-color="#808080" stop-opacity="0.12"/>
<stop offset="1" stop-color="#808080" stop-opacity="0.1"/>
</linearGradient>
<linearGradient id="paint14_linear" x1="78485.1" y1="104848" x2="80612" y2="101078" gradientUnits="userSpaceOnUse">
<stop stop-color="#808080" stop-opacity="0.25"/>
<stop offset="0.54" stop-color="#808080" stop-opacity="0.12"/>
<stop offset="1" stop-color="#808080" stop-opacity="0.1"/>
</linearGradient>
<linearGradient id="paint15_linear" x1="35954.8" y1="19037.9" x2="35901.3" y2="18221.7" gradientUnits="userSpaceOnUse">
<stop stop-color="#808080" stop-opacity="0.25"/>
<stop offset="0.54" stop-color="#808080" stop-opacity="0.12"/>
<stop offset="1" stop-color="#808080" stop-opacity="0.1"/>
</linearGradient>
<linearGradient id="paint16_linear" x1="45663.7" y1="18314.9" x2="45610.3" y2="17498.7" gradientUnits="userSpaceOnUse">
<stop stop-color="#808080" stop-opacity="0.25"/>
<stop offset="0.54" stop-color="#808080" stop-opacity="0.12"/>
<stop offset="1" stop-color="#808080" stop-opacity="0.1"/>
</linearGradient>
<clipPath id="clip0">
<rect width="1401" height="966" fill="white"/>
</clipPath>
</defs>
</svg>
