<svg width="1401" height="966" viewBox="0 0 1401 966" fill="none" xmlns="http://www.w3.org/2000/svg">
<g clip-path="url(#clip0)">
<path d="M144.392 348.925H27.3094V366.707H144.392V348.925Z" fill="#4D8AF0"/>
<path d="M27.3095 366.288L14.0587 966H22.3385L40.6846 366.707L27.3095 366.288Z" fill="#EEEEEE"/>
<path d="M144.377 366.288L157.612 966H149.348L131.001 366.707L144.377 366.288Z" fill="#EEEEEE"/>
<path d="M52.2577 366.707L38.0593 966H47.9857L61.0968 366.288L52.2577 366.707Z" fill="#E0E0E0"/>
<path d="M121.898 366.707L136.112 966H126.17L113.075 366.288L121.898 366.707Z" fill="#E0E0E0"/>
<path d="M124.943 893.208H49.6479V902.309H124.943V893.208Z" fill="#E0E0E0"/>
<path d="M128.252 842.75H47.1624V851.85H128.252V842.75Z" fill="#E0E0E0"/>
<path d="M128.252 793.114H49.6479V802.215H128.252V793.114Z" fill="#E0E0E0"/>
<path d="M124.943 742.655H49.6479V751.756H124.943V742.655Z" fill="#E0E0E0"/>
<path d="M124.943 690.55H49.6479V698.828H124.943V690.55Z" fill="#E0E0E0"/>
<path d="M124.943 640.915H52.1334V650.839H124.943V640.915Z" fill="#E0E0E0"/>
<path d="M122.458 591.279H52.1334V597.895H122.458V591.279Z" fill="#E0E0E0"/>
<path d="M116.663 538.351H54.6034V549.098H116.663V538.351Z" fill="#E0E0E0"/>
<path d="M119.133 488.715H54.6034V497.816H119.133V488.715Z" fill="#E0E0E0"/>
<path d="M119.133 437.434H54.6034V447.358H119.133V437.434Z" fill="#E0E0E0"/>
<path d="M116.663 386.975H57.9122V396.899H116.663V386.975Z" fill="#E0E0E0"/>
<path d="M172.09 315.006H0V351.41H172.09V315.006Z" fill="#4D8AF0"/>
<g opacity="0.5">
<path opacity="0.5" d="M163.002 59.0161L103.148 97.9978C102.563 95.5864 101.198 93.4356 99.2648 91.8788C99.9661 90.0002 100.08 87.9529 99.591 86.0082C99.5011 85.4484 99.2832 84.9169 98.9541 84.4552C98.6448 84.1651 98.2699 83.9543 97.8614 83.8407C97.4529 83.7271 97.023 83.7141 96.6084 83.8029L87.1013 84.4241C85.9943 84.3708 84.9012 84.6878 83.9944 85.3249C82.6585 86.4431 82.2546 88.7882 80.8876 89.7821C79.971 90.4344 78.806 90.3723 77.7807 90.8848C75.5903 92.0496 75.1088 95.544 74.9379 98.3861C74.7049 102.269 74.7204 106.835 77.2525 109.257C79.1011 110.981 81.6643 110.81 83.9944 110.686L86.3401 110.5C86.933 110.852 87.557 111.148 88.2043 111.385V114.693H87.7693C87.7693 114.693 60.9414 106.928 31.4727 188.059H30.96C30.96 188.059 26.6104 202.813 33.5698 200.22C39.6282 197.952 39.7836 190.389 39.6748 188.494H40.0787C40.0787 188.494 52.2422 152.898 71.3495 148.55C71.3495 148.55 85.2527 165.913 62.6657 200.639H80.3439C80.2879 204.524 81.0722 208.376 82.643 211.93C87.847 222.351 72.2194 321.327 72.2194 321.327H85.2527L91.8082 288.527L92.6316 321.327H102.185L111.739 258.258L110.434 182.282V162.605L112.174 164.919V134.526H137.355L141.705 100.669H141.254C141.361 98.3043 141.262 95.9348 140.959 93.5871L173.426 86.7692C178.537 65.073 163.002 59.0161 163.002 59.0161ZM134.574 101.197L126.963 120.657C126.963 120.657 106.115 111.106 98.3016 114.584H97.8667V110.453C99.4648 109.53 100.812 108.229 101.79 106.664C102.767 105.099 103.346 103.317 103.475 101.477L134.776 94.9072C134.371 96.9739 134.298 99.0918 134.559 101.182L134.574 101.197Z" fill="url(#paint0_linear)"/>
</g>
<path d="M139.312 106.182C139.312 106.182 140.307 91.8321 135.833 94.9848C131.359 98.1376 133.285 107.068 133.285 107.068L139.312 106.182Z" fill="#FDA57D"/>
<path d="M34.331 188.028C34.331 188.028 30.1989 202.083 36.8165 199.614C43.4341 197.145 42.6108 188.028 42.6108 188.028H34.331Z" fill="#FDA57D"/>
<path d="M98.053 112.752H88.9499V121.029H98.053V112.752Z" fill="#FDA57D"/>
<path d="M88.9344 158.256H81.4934V195.483H88.9344V158.256Z" fill="#4D8AF0"/>
<path opacity="0.1" d="M88.9344 158.256H81.4934V195.483H88.9344V158.256Z" fill="black"/>
<path d="M92.4918 118.141H101.098C103.467 118.141 105.739 119.082 107.414 120.756C109.089 122.431 110.03 124.703 110.03 127.071V182.655H83.6216V127.071C83.6216 124.713 84.5541 122.451 86.2158 120.778C87.8775 119.105 90.1336 118.157 92.4918 118.141Z" fill="white"/>
<path d="M92.6626 115.641C98.5996 115.641 103.412 110.829 103.412 104.893C103.412 98.9579 98.5996 94.1462 92.6626 94.1462C86.7257 94.1462 81.9128 98.9579 81.9128 104.893C81.9128 110.829 86.7257 115.641 92.6626 115.641Z" fill="#FDA57D"/>
<path d="M88.5305 118.141C88.5305 118.141 62.8832 110.702 34.7504 188.448H43.0303C43.0303 188.448 54.6189 154.529 72.8097 150.398C72.8097 150.398 86.045 166.938 64.5298 200.096H81.9128V189.007C81.8115 172.2 83.9003 155.452 88.1266 139.185C90.1196 132.329 90.259 125.068 88.5305 118.141Z" fill="#4D8AF0"/>
<path d="M98.457 118.141V120.626C98.457 120.626 104.251 146.267 109.207 162.807L111.739 166.177V137.166H135.739L139.872 104.909H133.254L125.72 123.918C125.72 123.918 105.898 114.817 98.457 118.141Z" fill="#4D8AF0"/>
<path d="M83.5595 182.655C83.5595 182.655 78.5885 200.856 83.5595 210.78C88.5305 220.704 73.633 315.006 73.633 315.006H86.0605L103.847 226.078L106.737 182.593L83.5595 182.655Z" fill="#333333"/>
<path d="M110.046 182.655L111.288 255.027L102.185 315.006H93.0821L89.7733 182.655H110.046Z" fill="#333333"/>
<path d="M90.9073 100.793C91.1277 100.434 91.3999 100.11 91.715 99.8303C92.026 99.648 92.3798 99.5515 92.7403 99.5508C94.9928 99.3644 97.5871 99.3178 98.9541 97.1901C99.9587 95.2801 100.203 93.0606 99.6376 90.9779C99.5639 90.419 99.3561 89.8861 99.0318 89.4249C98.7369 89.1482 98.3793 88.9472 97.9897 88.839C97.6001 88.7308 97.1901 88.7187 96.7948 88.8036L87.7382 89.3938C86.7027 89.3543 85.6826 89.6543 84.8333 90.248C83.5595 91.3196 83.1867 93.5405 81.8507 94.5034C80.9652 95.1246 79.8623 95.0624 78.9303 95.5594C76.8486 96.6621 76.3981 99.9546 76.2273 102.703C76.0098 106.4 76.0098 110.748 78.4331 113C80.1885 114.646 82.6274 114.553 84.8489 114.367L88.981 114.025C89.398 114.037 89.8071 113.911 90.1461 113.668C90.4075 113.319 90.5924 112.918 90.6888 112.493C90.7851 112.067 90.7908 111.626 90.7053 111.199C90.5966 109.118 90.3791 106.757 89.0121 105.483C88.6859 105.238 88.3889 104.957 88.1266 104.645C86.6508 102.346 90.1305 101.818 90.9073 100.793Z" fill="#333333"/>
<path d="M160.097 65.2283C160.097 65.2283 174.995 71.0212 170.024 91.6302L103.009 105.685V102.377L160.097 65.2283Z" fill="#F55F44"/>
<path opacity="0.1" d="M144.377 350.99H27.7134V354.298H144.377V350.99Z" fill="black"/>
<path opacity="0.1" d="M55.8461 584.259H46.743V585.921H55.8461V584.259Z" fill="black"/>
<path opacity="0.1" d="M127.009 584.259H117.906V585.921H127.009V584.259Z" fill="black"/>
<path d="M143.973 570.608H27.3094V584.663H143.973V570.608Z" fill="#EEEEEE"/>
<path d="M234.802 59.5595L235.967 58.9694L235.688 58.9383L235.781 58.8762L235.61 58.9228L203.547 54.7761L204.231 65.3835L205.24 74.795L207.213 73.7855L209.046 77.9477L234.802 59.5595Z" fill="url(#paint1_linear)"/>
<path d="M205.302 65.1816L206.235 73.8011L234.895 59.28L210.009 59.8236L205.302 65.1816Z" fill="#6C63FF"/>
<path opacity="0.2" d="M205.302 65.1816L206.235 73.8011L234.895 59.28L210.009 59.8236L205.302 65.1816Z" fill="black"/>
<path d="M204.666 55.4751L234.895 59.2801L205.302 65.1817L204.666 55.4751Z" fill="#6C63FF"/>
<path d="M209.776 76.6589L234.725 59.187L205.8 67.7909L209.776 76.6589Z" fill="#6C63FF"/>
<path d="M390.255 15.1579L391.42 14.5678L391.14 14.5212L391.234 14.459L391.063 14.5212L358.984 10.3745L359.683 20.9819L360.693 30.3934L362.666 29.3839L364.499 33.5461L390.255 15.1579Z" fill="url(#paint2_linear)"/>
<path d="M360.755 20.7798L361.687 29.3992L390.348 14.8782L365.462 15.4217L360.755 20.7798Z" fill="#6C63FF"/>
<path opacity="0.2" d="M360.755 20.7798L361.687 29.3992L390.348 14.8782L365.462 15.4217L360.755 20.7798Z" fill="black"/>
<path d="M360.118 11.0732L390.348 14.8782L360.755 20.7798L360.118 11.0732Z" fill="#6C63FF"/>
<path d="M365.229 32.257L390.177 14.7852L361.252 23.3735L365.229 32.257Z" fill="#6C63FF"/>
<path d="M662.619 1.30457L664.219 0.108714L663.8 0.124244L663.909 0L663.676 0.124244L614.292 2.15875L618.082 17.9688L622.028 31.8687L624.747 29.8342L628.568 35.6271L662.619 1.30457Z" fill="url(#paint3_linear)"/>
<path d="M619.651 17.3787L623.271 30.1137L662.697 0.838623L625.352 8.09139L619.651 17.3787Z" fill="#6C63FF"/>
<path opacity="0.2" d="M619.651 17.3787L623.271 30.1137L662.697 0.838623L625.352 8.09139L619.651 17.3787Z" fill="black"/>
<path d="M616.187 2.91972L662.697 0.838623L619.651 17.3787L616.187 2.91972Z" fill="#6C63FF"/>
<path d="M629.345 33.5148L662.417 0.745361L621.065 21.168L629.345 33.5148Z" fill="#6C63FF"/>
<path d="M531.525 90.7138L532.798 90.4187L532.534 90.3255L532.643 90.2789H532.457L502.336 78.5378L500.456 89.0054L499.167 98.3703L501.326 97.8734L502.087 102.346L531.525 90.7138Z" fill="url(#paint4_linear)"/>
<path d="M501.543 89.0675L500.363 97.6404L531.68 90.4653L507.4 84.9985L501.543 89.0675Z" fill="#6C63FF"/>
<path opacity="0.2" d="M501.543 89.0675L500.363 97.6404L531.68 90.4653L507.4 84.9985L501.543 89.0675Z" fill="black"/>
<path d="M503.268 79.4854L531.68 90.4654L501.543 89.0677L503.268 79.4854Z" fill="#6C63FF"/>
<path d="M503.112 101.275L531.54 90.3257L501.388 91.7079L503.112 101.275Z" fill="#6C63FF"/>
<g opacity="0.5">
<path opacity="0.5" d="M354.386 201.323L355.536 200.717L355.271 200.686L355.349 200.624L355.178 200.67L323.115 196.524L323.814 207.147L324.824 216.543L326.797 215.533L328.614 219.695L354.386 201.323Z" fill="url(#paint5_linear)"/>
<path opacity="0.5" d="M324.886 206.945L325.818 215.549L354.479 201.028L329.593 201.571L324.886 206.945Z" fill="#6C63FF"/>
<path opacity="0.2" d="M324.886 206.945L325.818 215.549L354.479 201.028L329.593 201.571L324.886 206.945Z" fill="black"/>
<path opacity="0.5" d="M324.249 197.222L354.479 201.027L324.886 206.945L324.249 197.222Z" fill="#6C63FF"/>
<path opacity="0.5" d="M329.36 218.406L354.308 200.934L325.383 209.538L329.36 218.406Z" fill="#6C63FF"/>
</g>
<g opacity="0.2">
<path opacity="0.2" d="M701.906 59.3732L703.506 58.1618L703.086 58.1773L703.211 58.0686L702.962 58.1929L653.594 60.2118L657.384 76.0219L661.315 89.9373L664.033 87.9028L667.87 93.6957L701.906 59.3732Z" fill="url(#paint6_linear)"/>
<path opacity="0.2" d="M658.938 75.4473L662.557 88.1668L701.984 58.9072L664.639 66.16L658.938 75.4473Z" fill="#6C63FF"/>
<path opacity="0.2" d="M658.938 75.4473L662.557 88.1668L701.984 58.9072L664.639 66.16L658.938 75.4473Z" fill="black"/>
<path opacity="0.2" d="M655.474 60.9883L701.984 58.9072L658.938 75.4473L655.474 60.9883Z" fill="#6C63FF"/>
<path opacity="0.2" d="M668.631 91.5834L701.704 58.814L660.351 79.2366L668.631 91.5834Z" fill="#6C63FF"/>
</g>
<g opacity="0.3">
<path opacity="0.3" d="M833.451 231.856L835.036 230.66L834.616 230.675L834.74 230.551L834.492 230.675L785.124 232.71L788.914 248.52L792.86 262.435L795.563 260.385L799.4 266.194L833.451 231.856Z" fill="url(#paint7_linear)"/>
<path opacity="0.3" d="M790.467 247.93L794.087 260.665L833.529 231.39L796.169 238.642L790.467 247.93Z" fill="#6C63FF"/>
<path opacity="0.2" d="M790.467 247.93L794.087 260.665L833.529 231.39L796.169 238.642L790.467 247.93Z" fill="black"/>
<path opacity="0.3" d="M787.003 233.471L833.529 231.39L790.467 247.93L787.003 233.471Z" fill="#6C63FF"/>
<path opacity="0.3" d="M800.161 264.066L833.234 231.312L791.881 251.719L800.161 264.066Z" fill="#6C63FF"/>
</g>
<g opacity="0.5">
<path opacity="0.5" d="M536.651 229.06L537.925 228.75L537.661 228.656L537.769 228.61L537.583 228.625L507.462 216.869L505.582 227.336L504.293 236.717L506.437 236.204L507.213 240.677L536.651 229.06Z" fill="url(#paint8_linear)"/>
<path opacity="0.5" d="M506.67 227.398L505.489 235.971L536.806 228.796L512.526 223.329L506.67 227.398Z" fill="#6C63FF"/>
<path opacity="0.2" d="M506.67 227.398L505.489 235.971L536.806 228.796L512.526 223.329L506.67 227.398Z" fill="black"/>
<path opacity="0.5" d="M508.394 217.816L536.806 228.796L506.67 227.398L508.394 217.816Z" fill="#6C63FF"/>
<path opacity="0.5" d="M508.239 239.621L536.667 228.672L506.514 230.039L508.239 239.621Z" fill="#6C63FF"/>
</g>
<g opacity="0.5">
<path opacity="0.5" d="M1061.08 217.102L1062.35 216.791L1062.09 216.698L1062.2 216.651L1062.01 216.667L1031.89 204.91L1030.01 215.378L1028.72 224.758L1030.88 224.246L1031.65 228.718L1061.08 217.102Z" fill="url(#paint9_linear)"/>
<path opacity="0.5" d="M1031.1 215.44L1029.91 224.013L1061.25 216.838L1036.95 211.371L1031.1 215.44Z" fill="#6C63FF"/>
<path opacity="0.2" d="M1031.1 215.44L1029.91 224.013L1061.25 216.838L1036.95 211.371L1031.1 215.44Z" fill="black"/>
<path opacity="0.5" d="M1032.82 205.873L1061.25 216.838L1031.1 215.44L1032.82 205.873Z" fill="#6C63FF"/>
<path opacity="0.5" d="M1032.66 227.662L1061.09 216.713L1030.94 218.08L1032.66 227.662Z" fill="#6C63FF"/>
</g>
<g opacity="0.2">
<path opacity="0.2" d="M1344.64 37.7704L1345.92 37.4753L1345.67 37.3822L1345.76 37.3356L1345.57 37.3511L1315.45 25.5945L1313.57 36.0621L1312.28 45.4425L1314.44 44.93L1315.22 49.4028L1344.64 37.7704Z" fill="url(#paint10_linear)"/>
<path opacity="0.2" d="M1314.66 36.1242L1313.48 44.697L1344.81 37.5219L1320.52 32.0552L1314.66 36.1242Z" fill="#6C63FF"/>
<path opacity="0.2" d="M1314.66 36.1242L1313.48 44.697L1344.81 37.5219L1320.52 32.0552L1314.66 36.1242Z" fill="black"/>
<path opacity="0.2" d="M1316.38 26.5417L1344.81 37.5218L1314.66 36.1241L1316.38 26.5417Z" fill="#6C63FF"/>
<path opacity="0.2" d="M1316.23 48.3466L1344.66 37.3821L1314.52 38.7643L1316.23 48.3466Z" fill="#6C63FF"/>
</g>
<g opacity="0.2">
<path opacity="0.2" d="M295.79 95.839L297.064 95.544L296.8 95.4352L296.909 95.4042H296.722L266.601 83.6631L264.722 94.1307L263.417 103.496L265.591 102.983L266.353 107.471L295.79 95.839Z" fill="url(#paint11_linear)"/>
<path opacity="0.2" d="M265.809 94.1928L264.628 102.766L295.946 95.5905L271.665 90.1238L265.809 94.1928Z" fill="#6C63FF"/>
<path opacity="0.2" d="M265.809 94.1928L264.628 102.766L295.946 95.5905L271.665 90.1238L265.809 94.1928Z" fill="black"/>
<path opacity="0.2" d="M267.533 84.6104L295.946 95.5904L265.809 94.1927L267.533 84.6104Z" fill="#6C63FF"/>
<path opacity="0.2" d="M267.378 106.4L295.806 95.4507L265.654 96.8329L267.378 106.4Z" fill="#6C63FF"/>
</g>
<path d="M903.822 57.7582L905.593 56.8418L905.173 56.7797L905.313 56.6865L905.049 56.7642L856.038 50.4277L857.11 66.6572L858.648 81.0385L861.662 79.4699L864.458 85.8374L903.822 57.7582Z" fill="url(#paint12_linear)"/>
<path d="M858.741 66.3464L860.155 79.5008L903.962 57.3076L865.934 58.1463L858.741 66.3464Z" fill="#6C63FF"/>
<path opacity="0.2" d="M858.741 66.3464L860.155 79.5008L903.962 57.3076L865.934 58.1463L858.741 66.3464Z" fill="black"/>
<path d="M857.762 51.4993L903.962 57.3077L858.741 66.3465L857.762 51.4993Z" fill="#6C63FF"/>
<path d="M865.576 83.8805L903.713 57.168L859.502 70.3068L865.576 83.8805Z" fill="#6C63FF"/>
<path d="M1228.88 39.1681L1233.04 37.2734L1232.09 37.1026L1232.42 36.9007L1231.8 37.056L1120.57 16.8352L1121.1 54.0309L1122.92 87.0643L1129.99 83.865L1135.64 98.7278L1228.88 39.1681Z" fill="url(#paint13_linear)"/>
<path d="M1124.88 53.5028L1126.57 83.7252L1229.28 38.1586L1142.27 35.6116L1124.88 53.5028Z" fill="#6C63FF"/>
<path opacity="0.2" d="M1124.88 53.5028L1126.57 83.7252L1229.28 38.1586L1142.27 35.6116L1124.88 53.5028Z" fill="black"/>
<path d="M1124.39 19.4907L1229.28 38.1584L1124.88 53.5026L1124.39 19.4907Z" fill="#6C63FF"/>
<path d="M1138.42 94.3947L1228.69 37.8169L1126.13 62.6658L1138.42 94.3947Z" fill="#6C63FF"/>
<path d="M1322.56 217.486L1327.12 217.948L1326.39 217.326L1326.76 217.293L1326.16 217.125L1239.95 144L1221.81 176.476L1206.86 205.993L1214.58 206.77L1212.05 222.455L1322.56 217.486Z" fill="url(#paint14_linear)"/>
<path d="M1225.33 177.92L1211.67 204.932L1323.41 216.827L1249.33 171.117L1225.33 177.92Z" fill="#6C63FF"/>
<path opacity="0.2" d="M1225.33 177.92L1211.67 204.932L1323.41 216.827L1249.33 171.117L1225.33 177.92Z" fill="black"/>
<path d="M1241.91 148.217L1323.41 216.827L1225.33 177.92L1241.91 148.217Z" fill="#6C63FF"/>
<path d="M1216.62 220.093L1323.07 216.236L1221.85 186.471L1216.62 220.093Z" fill="#6C63FF"/>
<path d="M749.612 156.439L751.398 155.523L750.979 155.476L751.103 155.383L750.839 155.461L701.844 149.124L702.916 165.338L704.438 179.719L707.452 178.166L710.248 184.534L749.612 156.439Z" fill="url(#paint15_linear)"/>
<path d="M704.547 165.043L705.96 178.182L749.767 156.004L711.739 156.843L704.547 165.043Z" fill="#6C63FF"/>
<path opacity="0.2" d="M704.547 165.043L705.96 178.182L749.767 156.004L711.739 156.843L704.547 165.043Z" fill="black"/>
<path d="M703.568 150.196L749.767 156.004L704.547 165.043L703.568 150.196Z" fill="#6C63FF"/>
<path d="M711.366 182.577L749.503 155.865L705.292 169.003L711.366 182.577Z" fill="#6C63FF"/>
<path d="M1045.14 134.246L1046.91 133.33L1046.51 133.268L1046.63 133.174L1046.37 133.252L997.37 126.916L998.426 143.145L999.964 157.526L1002.98 155.973L1005.77 162.325L1045.14 134.246Z" fill="url(#paint16_linear)"/>
<path d="M1000.07 142.834L1001.49 155.989L1045.29 133.796L1007.27 134.634L1000.07 142.834Z" fill="#6C63FF"/>
<path opacity="0.2" d="M1000.07 142.834L1001.49 155.989L1045.29 133.796L1007.27 134.634L1000.07 142.834Z" fill="black"/>
<path d="M999.094 128.003L1045.29 133.796L1000.07 142.834L999.094 128.003Z" fill="#6C63FF"/>
<path d="M1006.89 160.368L1045.03 133.656L1000.82 146.81L1006.89 160.368Z" fill="#6C63FF"/>
</g>
<defs>
<linearGradient id="paint0_linear" x1="102.045" y1="321.203" x2="102.045" y2="58.9851" gradientUnits="userSpaceOnUse">
<stop stop-color="#808080" stop-opacity="0.25"/>
<stop offset="0.54" stop-color="#808080" stop-opacity="0.12"/>
<stop offset="1" stop-color="#808080" stop-opacity="0.1"/>
</linearGradient>
<linearGradient id="paint1_linear" x1="12585.8" y1="10798.4" x2="12562.9" y2="10448.8" gradientUnits="userSpaceOnUse">
<stop stop-color="#808080" stop-opacity="0.25"/>
<stop offset="0.54" stop-color="#808080" stop-opacity="0.12"/>
<stop offset="1" stop-color="#808080" stop-opacity="0.1"/>
</linearGradient>
<linearGradient id="paint2_linear" x1="16002.8" y1="10019.6" x2="15979.9" y2="9670" gradientUnits="userSpaceOnUse">
<stop stop-color="#808080" stop-opacity="0.25"/>
<stop offset="0.54" stop-color="#808080" stop-opacity="0.12"/>
<stop offset="1" stop-color="#808080" stop-opacity="0.1"/>
</linearGradient>
<linearGradient id="paint3_linear" x1="35752.5" y1="9758.98" x2="35560.7" y2="8958.65" gradientUnits="userSpaceOnUse">
<stop stop-color="#808080" stop-opacity="0.25"/>
<stop offset="0.54" stop-color="#808080" stop-opacity="0.12"/>
<stop offset="1" stop-color="#808080" stop-opacity="0.1"/>
</linearGradient>
<linearGradient id="paint4_linear" x1="16364.2" y1="15770.5" x2="16427.9" y2="15416.2" gradientUnits="userSpaceOnUse">
<stop stop-color="#808080" stop-opacity="0.25"/>
<stop offset="0.54" stop-color="#808080" stop-opacity="0.12"/>
<stop offset="1" stop-color="#808080" stop-opacity="0.1"/>
</linearGradient>
<linearGradient id="paint5_linear" x1="15151.5" y1="13004.1" x2="15128.6" y2="12654.8" gradientUnits="userSpaceOnUse">
<stop stop-color="#808080" stop-opacity="0.25"/>
<stop offset="0.54" stop-color="#808080" stop-opacity="0.12"/>
<stop offset="1" stop-color="#808080" stop-opacity="0.1"/>
</linearGradient>
<linearGradient id="paint6_linear" x1="36916.3" y1="11088" x2="36724.4" y2="10287.4" gradientUnits="userSpaceOnUse">
<stop stop-color="#808080" stop-opacity="0.25"/>
<stop offset="0.54" stop-color="#808080" stop-opacity="0.12"/>
<stop offset="1" stop-color="#808080" stop-opacity="0.1"/>
</linearGradient>
<linearGradient id="paint7_linear" x1="40888.4" y1="15004" x2="40696.5" y2="14203.3" gradientUnits="userSpaceOnUse">
<stop stop-color="#808080" stop-opacity="0.25"/>
<stop offset="0.54" stop-color="#808080" stop-opacity="0.12"/>
<stop offset="1" stop-color="#808080" stop-opacity="0.1"/>
</linearGradient>
<linearGradient id="paint8_linear" x1="16607" y1="18061.3" x2="16670.8" y2="17707" gradientUnits="userSpaceOnUse">
<stop stop-color="#808080" stop-opacity="0.25"/>
<stop offset="0.54" stop-color="#808080" stop-opacity="0.12"/>
<stop offset="1" stop-color="#808080" stop-opacity="0.1"/>
</linearGradient>
<linearGradient id="paint9_linear" x1="28362" y1="18534.1" x2="28425.7" y2="18180" gradientUnits="userSpaceOnUse">
<stop stop-color="#808080" stop-opacity="0.25"/>
<stop offset="0.54" stop-color="#808080" stop-opacity="0.12"/>
<stop offset="1" stop-color="#808080" stop-opacity="0.1"/>
</linearGradient>
<linearGradient id="paint10_linear" x1="34558.3" y1="15935.7" x2="34622" y2="15581.4" gradientUnits="userSpaceOnUse">
<stop stop-color="#808080" stop-opacity="0.25"/>
<stop offset="0.54" stop-color="#808080" stop-opacity="0.12"/>
<stop offset="1" stop-color="#808080" stop-opacity="0.1"/>
</linearGradient>
<linearGradient id="paint11_linear" x1="11086.1" y1="15554.9" x2="11149.8" y2="15200.6" gradientUnits="userSpaceOnUse">
<stop stop-color="#808080" stop-opacity="0.25"/>
<stop offset="0.54" stop-color="#808080" stop-opacity="0.12"/>
<stop offset="1" stop-color="#808080" stop-opacity="0.1"/>
</linearGradient>
<linearGradient id="paint12_linear" x1="41073.9" y1="16583.8" x2="41020.5" y2="15767.5" gradientUnits="userSpaceOnUse">
<stop stop-color="#808080" stop-opacity="0.25"/>
<stop offset="0.54" stop-color="#808080" stop-opacity="0.12"/>
<stop offset="1" stop-color="#808080" stop-opacity="0.1"/>
</linearGradient>
<linearGradient id="paint13_linear" x1="111897" y1="45494" x2="111854" y2="41165.2" gradientUnits="userSpaceOnUse">
<stop stop-color="#808080" stop-opacity="0.25"/>
<stop offset="0.54" stop-color="#808080" stop-opacity="0.12"/>
<stop offset="1" stop-color="#808080" stop-opacity="0.1"/>
</linearGradient>
<linearGradient id="paint14_linear" x1="78485.1" y1="104848" x2="80612" y2="101078" gradientUnits="userSpaceOnUse">
<stop stop-color="#808080" stop-opacity="0.25"/>
<stop offset="0.54" stop-color="#808080" stop-opacity="0.12"/>
<stop offset="1" stop-color="#808080" stop-opacity="0.1"/>
</linearGradient>
<linearGradient id="paint15_linear" x1="35954.8" y1="19037.9" x2="35901.3" y2="18221.7" gradientUnits="userSpaceOnUse">
<stop stop-color="#808080" stop-opacity="0.25"/>
<stop offset="0.54" stop-color="#808080" stop-opacity="0.12"/>
<stop offset="1" stop-color="#808080" stop-opacity="0.1"/>
</linearGradient>
<linearGradient id="paint16_linear" x1="45663.7" y1="18314.9" x2="45610.3" y2="17498.7" gradientUnits="userSpaceOnUse">
<stop stop-color="#808080" stop-opacity="0.25"/>
<stop offset="0.54" stop-color="#808080" stop-opacity="0.12"/>
<stop offset="1" stop-color="#808080" stop-opacity="0.1"/>
</linearGradient>
<clipPath id="clip0">
<rect width="1401" height="966" fill="white"/>
</clipPath>
</defs>
</svg>
