<svg width="35" height="35" viewBox="0 0 35 35" fill="none" xmlns="http://www.w3.org/2000/svg">
<path d="M12.5781 33.9063H9.29688V29.2141C9.29688 28.3555 9.57578 27.5188 10.0898 26.8297C10.6367 26.1023 11.4188 25.5828 12.3047 25.3586L13.5625 25.0469L15.6898 29.832L17.5 33.9063H12.5781Z" fill="#B4DD7F"/>
<path d="M22.4219 33.9063H17.5L19.3102 29.832L21.4375 25.0469L22.6953 25.3586C23.5813 25.5828 24.3633 26.1023 24.9102 26.8297C25.4242 27.5188 25.7031 28.3555 25.7031 29.2141V33.9063H22.4219Z" fill="#B4DD7F"/>
<path d="M15.3125 24.6094L16.4063 26.25L15.6898 29.832L13.5625 25.0469L15.3125 24.6094Z" fill="#CCD1D9"/>
<path d="M21.4375 25.0469L19.3102 29.832L18.5938 26.25L19.6875 24.6094L21.4375 25.0469Z" fill="#CCD1D9"/>
<path d="M18.5937 26.25L19.3101 29.832L17.5 33.9062L15.6898 29.832L16.4062 26.25H18.5937Z" fill="#FF826E"/>
<path d="M20.2344 16.4062H14.7656C14.1641 16.4062 13.6719 16.8984 13.6719 17.5H13.125C12.6164 17.5 12.1625 17.7297 11.8617 18.0906L11.632 17.3906C11.5336 17.1008 11.4844 16.7945 11.4844 16.4938C11.4844 15.7391 11.7852 15.0117 12.3156 14.4812L12.5781 14.2188C12.5781 13.3109 12.9445 12.4906 13.5406 11.9C14.1313 11.3039 14.9516 10.9375 15.8594 10.9375H19.4195C20.475 10.9375 21.3281 11.7906 21.3281 12.8461C21.3281 12.9391 21.3227 13.0266 21.3117 13.1141L21.7437 13.3328C22.832 13.8742 23.5156 14.9844 23.5156 16.1984C23.5156 16.6961 23.4008 17.1828 23.1766 17.6313L23.0125 17.9594C22.7172 17.675 22.318 17.5 21.875 17.5H21.3281C21.3281 16.8984 20.8359 16.4062 20.2344 16.4062Z" fill="#B27946"/>
<path d="M27.8906 13.125C31.213 13.125 33.9062 10.4317 33.9062 7.10938C33.9062 3.78704 31.213 1.09375 27.8906 1.09375C24.5683 1.09375 21.875 3.78704 21.875 7.10938C21.875 10.4317 24.5683 13.125 27.8906 13.125Z" fill="#E6E9ED"/>
<path d="M7.10938 13.125C10.4317 13.125 13.125 10.4317 13.125 7.10938C13.125 3.78704 10.4317 1.09375 7.10938 1.09375C3.78704 1.09375 1.09375 3.78704 1.09375 7.10938C1.09375 10.4317 3.78704 13.125 7.10938 13.125Z" fill="#E6E9ED"/>
<path d="M11.4188 11.304C10.3305 12.4305 8.80474 13.125 7.10943 13.125C5.41411 13.125 3.88833 12.4305 2.80005 11.304C3.05708 9.77817 4.09614 8.52583 5.49068 7.96802C5.47974 8.04458 5.4688 8.12114 5.4688 8.20317C5.4688 9.11099 6.20161 9.8438 7.10943 9.8438C8.01724 9.8438 8.75005 9.11099 8.75005 8.20317C8.75005 8.12114 8.73911 8.04458 8.72818 7.96802C10.1227 8.52583 11.1618 9.77817 11.4188 11.304Z" fill="#FCD770"/>
<path d="M32.2 11.3039C31.1117 12.4305 29.5859 13.125 27.8906 13.125C26.1953 13.125 24.6695 12.4305 23.5812 11.3039C23.8273 9.84924 24.7898 8.63518 26.0914 8.04456L27.8906 9.84377L29.6898 8.04456C30.9914 8.63518 31.9539 9.84924 32.2 11.3039Z" fill="#FCD770"/>
<path d="M3.82812 33.9062C4.43219 33.9062 4.92188 33.4166 4.92188 32.8125C4.92188 32.2084 4.43219 31.7188 3.82812 31.7188C3.22406 31.7188 2.73438 32.2084 2.73438 32.8125C2.73438 33.4166 3.22406 33.9062 3.82812 33.9062Z" fill="#FF826E"/>
<path d="M31.1719 33.9062C31.7759 33.9062 32.2656 33.4166 32.2656 32.8125C32.2656 32.2084 31.7759 31.7188 31.1719 31.7188C30.5678 31.7188 30.0781 32.2084 30.0781 32.8125C30.0781 33.4166 30.5678 33.9062 31.1719 33.9062Z" fill="#FF826E"/>
<path d="M23.0125 17.9594C23.3242 18.2547 23.5156 18.6758 23.5156 19.1406C23.5156 19.5945 23.3297 20.0047 23.0344 20.3C22.7391 20.5953 22.3289 20.7812 21.875 20.7812H21.1696C21.2735 20.4367 21.3281 20.0703 21.3281 19.6875V17.5H21.875C22.318 17.5 22.7172 17.675 23.0125 17.9594Z" fill="#F0D0B4"/>
<path d="M15.8102 23.1218C16.3187 23.3734 16.893 23.5156 17.5 23.5156C18.107 23.5156 18.6813 23.3734 19.1898 23.1218L19.6875 24.6093L18.5938 26.2499H16.4062L15.3125 24.6093L15.8102 23.1218Z" fill="#F0D0B4"/>
<path d="M13.6719 17.5V19.6875C13.6719 20.0703 13.7266 20.4367 13.8305 20.7812H13.125C12.6711 20.7812 12.2609 20.5953 11.9656 20.3C11.6703 20.0047 11.4844 19.5945 11.4844 19.1406C11.4844 18.7414 11.6266 18.375 11.8617 18.0906C12.1625 17.7297 12.6164 17.5 13.125 17.5H13.6719Z" fill="#F0D0B4"/>
<path d="M21.3281 17.5V19.6875C21.3281 20.0703 21.2734 20.4367 21.1695 20.7812C20.9891 21.3992 20.65 21.9516 20.207 22.3945C19.9117 22.6898 19.5672 22.9359 19.1898 23.1219C18.6813 23.3734 18.107 23.5156 17.5 23.5156C16.893 23.5156 16.3187 23.3734 15.8102 23.1219C14.8586 22.657 14.1367 21.8094 13.8305 20.7812C13.7266 20.4367 13.6719 20.0703 13.6719 19.6875V17.5C13.6719 16.8984 14.1641 16.4062 14.7656 16.4062H20.2344C20.8359 16.4062 21.3281 16.8984 21.3281 17.5Z" fill="#F0D0B4"/>
<path d="M7.10938 7.65625C8.3175 7.65625 9.29688 6.67687 9.29688 5.46875C9.29688 4.26063 8.3175 3.28125 7.10938 3.28125C5.90125 3.28125 4.92188 4.26063 4.92188 5.46875C4.92188 6.67687 5.90125 7.65625 7.10938 7.65625Z" fill="#F0D0B4"/>
<path d="M8.72813 7.96797C8.73906 8.04453 8.75 8.12109 8.75 8.20312C8.75 9.11094 8.01719 9.84375 7.10938 9.84375C6.20156 9.84375 5.46875 9.11094 5.46875 8.20312C5.46875 8.12109 5.47969 8.04453 5.49062 7.96797C5.98828 7.76562 6.53516 7.65625 7.10938 7.65625C7.68359 7.65625 8.23047 7.76562 8.72813 7.96797Z" fill="#F0D0B4"/>
<path d="M27.8906 7.65625C28.536 7.65625 29.143 7.79297 29.6899 8.04453L27.8906 9.84375L26.0914 8.04453C26.6383 7.79297 27.2453 7.65625 27.8906 7.65625Z" fill="#F0D0B4"/>
<path d="M27.8906 7.65625C29.0987 7.65625 30.0781 6.67687 30.0781 5.46875C30.0781 4.26063 29.0987 3.28125 27.8906 3.28125C26.6825 3.28125 25.7031 4.26063 25.7031 5.46875C25.7031 6.67687 26.6825 7.65625 27.8906 7.65625Z" fill="#F0D0B4"/>
<path d="M22.8266 24.8309L20.1113 24.1516L19.851 23.3707C20.6101 22.8845 21.2095 22.1725 21.5529 21.3281H21.875C23.0814 21.3281 24.0625 20.347 24.0625 19.1406C24.0625 18.673 23.9121 18.241 23.6611 17.885L23.6666 17.8735C23.9258 17.3551 24.0625 16.7759 24.0625 16.1973C24.0625 14.7689 23.2684 13.4837 21.9904 12.8445L21.869 12.7837C21.8356 11.4592 20.7534 10.3906 19.4212 10.3906H15.8594C13.8266 10.3906 12.1592 11.9826 12.0384 13.9852L11.9317 14.0919C11.2908 14.7328 10.9375 15.5848 10.9375 16.491C10.9375 16.8569 10.996 17.2178 11.1114 17.564L11.2607 18.0113C11.06 18.3422 10.9375 18.7261 10.9375 19.1406C10.9375 20.347 11.9186 21.3281 13.125 21.3281H13.4471C13.7905 22.1725 14.3899 22.8845 15.149 23.3707L14.8887 24.1516L12.1734 24.8309C11.1694 25.0813 10.2747 25.6752 9.65453 26.5032C9.07102 27.2803 8.75 28.2434 8.75 29.2146V34.4531H26.25V29.2146C26.25 28.2434 25.929 27.2803 25.346 26.5037C24.7253 25.6752 23.8306 25.0813 22.8266 24.8309ZM15.8255 26.3648L15.4908 28.0388L14.3265 25.4198L15.0713 25.2339L15.8255 26.3648ZM16.8547 26.7969H18.1459L18.7403 29.7691L17.5 32.5593L16.2597 29.7691L16.8547 26.7969ZM19.5092 28.0388L19.1745 26.3648L19.9287 25.2334L20.6735 25.4193L19.5092 28.0388ZM21.875 20.2344H21.8373C21.8597 20.055 21.875 19.8729 21.875 19.6875V18.0469C22.4782 18.0469 22.9688 18.5374 22.9688 19.1406C22.9688 19.7438 22.4782 20.2344 21.875 20.2344ZM12.7045 14.8657L13.125 14.4452V14.2188C13.125 12.711 14.3516 11.4844 15.8594 11.4844H19.4212C20.1709 11.4844 20.7812 12.0947 20.7812 12.8445C20.7812 13.4307 20.4072 13.9491 19.8521 14.134L19.5152 14.2461L19.8603 15.2841L20.1977 15.1714C20.8452 14.9554 21.3522 14.4878 21.6327 13.8999C22.4585 14.373 22.9688 15.2365 22.9688 16.1968C22.9688 16.5244 22.9042 16.8514 22.7855 17.1571C22.5072 17.0297 22.2009 16.9531 21.875 16.9531H21.7744C21.548 16.3182 20.9464 15.8594 20.2344 15.8594H14.7656C14.0536 15.8594 13.452 16.3182 13.2256 16.9531H13.125C12.7701 16.9531 12.4398 17.0461 12.1434 17.1965C12.0701 16.9684 12.0312 16.7316 12.0312 16.491C12.0312 15.8769 12.2708 15.2999 12.7045 14.8657ZM13.125 20.2344C12.5218 20.2344 12.0312 19.7438 12.0312 19.1406C12.0312 18.5374 12.5218 18.0469 13.125 18.0469V19.6875C13.125 19.8729 13.1403 20.055 13.1627 20.2344H13.125ZM14.2188 19.6875V17.5C14.2188 17.1981 14.4637 16.9531 14.7656 16.9531H20.2344C20.5363 16.9531 20.7812 17.1981 20.7812 17.5V19.6875C20.7812 21.4971 19.3096 22.9688 17.5 22.9688C15.6904 22.9688 14.2188 21.4971 14.2188 19.6875ZM17.5 24.0625C17.9736 24.0625 18.4286 23.9843 18.8562 23.8448L19.0843 24.529L18.3012 25.7031H16.6988L15.9157 24.5284L16.1438 23.8443C16.5714 23.9843 17.0264 24.0625 17.5 24.0625ZM9.84375 29.2146C9.84375 28.478 10.0871 27.7484 10.529 27.1595C10.9993 26.5322 11.678 26.0816 12.4381 25.8918L13.2491 25.6889L16.6584 33.3594H13.125V30.4374C13.125 29.7068 12.8401 29.0199 12.3238 28.5037L11.871 28.0509L11.0977 28.8241L11.5505 29.277C11.8606 29.587 12.0312 29.9988 12.0312 30.4374V33.3594H9.84375V29.2146ZM25.1562 33.3594H22.9688V30.4374C22.9688 29.9988 23.1399 29.5865 23.4495 29.277L23.9023 28.8241L23.129 28.0509L22.6762 28.5037C22.1599 29.0199 21.875 29.7068 21.875 30.4374V33.3594H18.3416L21.7509 25.6889L22.5619 25.8918C23.3226 26.0821 24.0007 26.5322 24.471 27.16C24.9129 27.7484 25.1562 28.478 25.1562 29.2146V33.3594Z" fill="black"/>
<path d="M27.8906 13.6719C31.5093 13.6719 34.4531 10.728 34.4531 7.10938C34.4531 3.4907 31.5093 0.546875 27.8906 0.546875C24.272 0.546875 21.3281 3.4907 21.3281 7.10938C21.3281 10.728 24.272 13.6719 27.8906 13.6719ZM24.1801 11.1152C24.4344 10.0745 25.0983 9.21867 25.9837 8.71063L27.8906 10.617L29.7976 8.71008C30.683 9.21867 31.3474 10.074 31.6012 11.1147C30.625 12.0198 29.3234 12.5781 27.8906 12.5781C26.4578 12.5781 25.1562 12.0198 24.1801 11.1152ZM26.25 5.46875C26.25 4.56422 26.9861 3.82812 27.8906 3.82812C28.7952 3.82812 29.5312 4.56422 29.5312 5.46875C29.5312 6.37328 28.7952 7.10938 27.8906 7.10938C26.9861 7.10938 26.25 6.37328 26.25 5.46875ZM27.8906 8.20312C28.1591 8.20312 28.4211 8.23375 28.6748 8.28625L27.8906 9.07047L27.1064 8.28625C27.3602 8.23375 27.6221 8.20312 27.8906 8.20312ZM27.8906 1.64062C30.9061 1.64062 33.3594 4.09391 33.3594 7.10938C33.3594 8.2343 33.017 9.28047 32.4324 10.1511C31.9277 8.92117 30.9515 7.96086 29.7391 7.47086C30.2799 6.97102 30.625 6.26172 30.625 5.46875C30.625 3.96102 29.3984 2.73438 27.8906 2.73438C26.3829 2.73438 25.1562 3.96102 25.1562 5.46875C25.1562 6.26172 25.5013 6.97102 26.0422 7.47086C24.8292 7.96086 23.8536 8.92062 23.3488 10.1511C22.7642 9.28047 22.4219 8.2343 22.4219 7.10938C22.4219 4.09391 24.8752 1.64062 27.8906 1.64062Z" fill="black"/>
<path d="M7.10938 13.6719C10.728 13.6719 13.6719 10.728 13.6719 7.10938C13.6719 3.4907 10.728 0.546875 7.10938 0.546875C3.4907 0.546875 0.546875 3.4907 0.546875 7.10938C0.546875 10.728 3.4907 13.6719 7.10938 13.6719ZM3.39883 11.1152C3.63508 10.1473 4.22789 9.34062 5.0225 8.82383C5.29156 9.72617 6.12008 10.3906 7.10938 10.3906C8.09867 10.3906 8.92719 9.72617 9.19625 8.82328C9.99086 9.34063 10.5831 10.1467 10.8199 11.1147C9.84375 12.0198 8.54219 12.5781 7.10938 12.5781C5.67656 12.5781 4.375 12.0198 3.39883 11.1152ZM5.46875 5.46875C5.46875 4.56422 6.20484 3.82812 7.10938 3.82812C8.01391 3.82812 8.75 4.56422 8.75 5.46875C8.75 6.37328 8.01391 7.10938 7.10938 7.10938C6.20484 7.10938 5.46875 6.37328 5.46875 5.46875ZM8.18727 8.35844C8.11125 8.88781 7.65898 9.29688 7.10938 9.29688C6.55977 9.29688 6.1075 8.88781 6.03148 8.35844C6.37438 8.25836 6.73586 8.20312 7.10938 8.20312C7.48289 8.20312 7.84437 8.25836 8.18727 8.35844ZM7.10938 1.64062C10.1248 1.64062 12.5781 4.09391 12.5781 7.10938C12.5781 8.2343 12.2358 9.28047 11.6512 10.1511C11.1464 8.92117 10.1702 7.96086 8.95781 7.47086C9.49867 6.97102 9.84375 6.26172 9.84375 5.46875C9.84375 3.96102 8.61711 2.73438 7.10938 2.73438C5.60164 2.73438 4.375 3.96102 4.375 5.46875C4.375 6.26172 4.72008 6.97102 5.26094 7.47086C4.04797 7.96086 3.07234 8.92062 2.56758 10.1511C1.98297 9.28047 1.64062 8.2343 1.64062 7.10938C1.64062 4.09391 4.09391 1.64062 7.10938 1.64062Z" fill="black"/>
<path d="M27.3438 14.7656H28.4375V15.8594H27.3438V14.7656Z" fill="black"/>
<path d="M27.3438 20.7812H24.6094V21.875H28.4375V16.9531H27.3438V20.7812Z" fill="black"/>
<path d="M31.7188 30.0781V22.9688H24.6094V24.0625H30.625V30.0781H31.7188Z" fill="black"/>
<path d="M31.1719 31.1719C30.2673 31.1719 29.5312 31.908 29.5312 32.8125C29.5312 33.717 30.2673 34.4531 31.1719 34.4531C32.0764 34.4531 32.8125 33.717 32.8125 32.8125C32.8125 31.908 32.0764 31.1719 31.1719 31.1719ZM31.1719 33.3594C30.87 33.3594 30.625 33.1144 30.625 32.8125C30.625 32.5106 30.87 32.2656 31.1719 32.2656C31.4737 32.2656 31.7188 32.5106 31.7188 32.8125C31.7188 33.1144 31.4737 33.3594 31.1719 33.3594Z" fill="black"/>
<path d="M6.5625 14.7656H7.65625V15.8594H6.5625V14.7656Z" fill="black"/>
<path d="M10.3906 20.7812H7.65625V16.9531H6.5625V21.875H10.3906V20.7812Z" fill="black"/>
<path d="M3.28125 30.0781H4.375V24.0625H10.3906V22.9688H3.28125V30.0781Z" fill="black"/>
<path d="M3.82812 31.1719C2.92359 31.1719 2.1875 31.908 2.1875 32.8125C2.1875 33.717 2.92359 34.4531 3.82812 34.4531C4.73266 34.4531 5.46875 33.717 5.46875 32.8125C5.46875 31.908 4.73266 31.1719 3.82812 31.1719ZM3.82812 33.3594C3.52625 33.3594 3.28125 33.1144 3.28125 32.8125C3.28125 32.5106 3.52625 32.2656 3.82812 32.2656C4.13 32.2656 4.375 32.5106 4.375 32.8125C4.375 33.1144 4.13 33.3594 3.82812 33.3594Z" fill="black"/>
</svg>
